<svg width="64" height="64" viewBox="0 0 64 64" fill="none" xmlns="http://www.w3.org/2000/svg">
<g opacity="0.85">
<rect width="64" height="64" fill="white"/>
<circle cx="32" cy="32" r="31.5" fill="white" stroke="#34008E"/>
<path d="M47.3395 12.5021L47.3395 12.502C47.2712 11.4177 46.6184 10.5653 45.6014 9.90869C44.5863 9.25325 43.1958 8.7838 41.6172 8.46224C38.4585 7.81883 34.5092 7.76035 31.1988 8.02206C28.9353 8.20098 25.0496 8.72118 21.7635 9.79449C20.1212 10.3309 18.6192 11.0084 17.5441 11.8572C16.468 12.7069 15.8047 13.7414 15.8824 14.9862C15.9608 16.243 16.8942 17.1324 18.2279 17.7577C19.5638 18.3841 21.3335 18.7622 23.157 18.9844C26.8062 19.4291 30.7111 19.2539 31.8961 19.1598C33.0798 19.0659 36.9974 18.6634 40.584 17.667C42.3762 17.1691 44.0954 16.5204 45.35 15.6817C46.603 14.8441 47.4197 13.7973 47.3395 12.5021ZM18.2422 15.1578C18.0369 14.988 17.9449 14.83 17.936 14.6886L17.936 14.6886C17.9271 14.5459 17.9977 14.3751 18.1767 14.177C18.3543 13.9804 18.6258 13.7715 18.984 13.5565C19.6995 13.1268 20.7383 12.6858 21.9976 12.2736C24.5149 11.4497 27.8918 10.7478 31.2731 10.4797L31.2732 10.4797C34.6887 10.2059 38.1619 10.3249 40.7914 10.7231C42.107 10.9223 43.2052 11.1905 43.9777 11.5112C44.3644 11.6716 44.663 11.8426 44.8661 12.0197C45.0693 12.197 45.1661 12.3704 45.1764 12.5373C45.1868 12.7036 45.1097 12.8927 44.9234 13.1043C44.7378 13.315 44.4546 13.5352 44.0824 13.7591C43.3387 14.2067 42.2628 14.6556 40.9703 15.0701C38.4216 15.8873 35.0535 16.5633 31.7894 16.8325V16.8284L31.6559 16.839C28.3505 17.1005 24.9213 16.9157 22.309 16.476C21.0021 16.2561 19.9054 15.9732 19.1323 15.6533C18.7454 15.4932 18.4458 15.3263 18.2422 15.1578Z" fill="#69F0ED" stroke="#69F0ED" stroke-width="0.247524"/>
</g>
</svg>

