<svg width="65" height="65" viewBox="0 0 65 65" fill="none" xmlns="http://www.w3.org/2000/svg">
<g clip-path="url(#clip0_550:5062)">
<path d="M0.0712891 32.9736C0.0712891 15.3005 14.3982 0.973633 32.0713 0.973633C49.7444 0.973633 64.0713 15.3005 64.0713 32.9736C64.0713 50.6467 49.7444 64.9736 32.0713 64.9736C14.3982 64.9736 0.0712891 50.6467 0.0712891 32.9736Z" fill="white"/>
<rect x="0.0712891" y="0.973633" width="64" height="64" fill="#A677E0" fill-opacity="0.5"/>
<circle cx="32.0713" cy="32.9736" r="30.1158" stroke="white" stroke-width="3.76842"/>
<path d="M36.7519 43.7905C35.3861 43.7491 31.3338 42.4559 30.5282 41.8592L36.7519 43.7905Z" fill="#FAE5E3"/>
<path d="M37.3139 50.1641C39.8337 53.6935 47.9813 54.7412 49.3714 55.2457C51.6515 56.1097 52.0393 58.4457 52.073 59.7181C52.1704 63.3435 52.5957 69.5628 51.3236 72.8494" fill="#FAE5E3"/>
<path d="M37.3139 50.1641C35.7852 47.4084 36.7519 43.7905 36.7519 43.7905C36.7519 43.7905 39.7138 43.9317 40.9016 43.3237C43.1854 42.3392 45.8982 38.7382 45.8701 33.5825C45.8053 28.9395 44.8294 24.355 42.9981 20.0917C41.3456 15.798 31.0921 11.7848 23.3677 19.2841C23.3677 19.2841 19.203 23.1091 21.6216 29.4658" fill="#FAE5E3"/>
<path d="M9.61995 72.8494C8.52022 69.3087 8.95299 59.9986 9.11224 58.6847C9.27149 57.3708 9.88599 54.7054 13.1402 53.8941C14.5791 53.5308 23.5888 52.0672 25.4173 49.5279" fill="#FAE5E3"/>
<path d="M25.8594 39.9279C25.8594 39.9279 22.8338 38.2018 21.6272 34.6027C20.4207 31.0037 21.6216 29.4658 21.6216 29.4658C22.5902 28.0145 26.444 27.6587 26.444 32.0371" fill="#FAE5E3"/>
<path d="M25.8594 39.9279C26.0899 44.502 26.148 46.6008 25.4173 49.5279L25.8594 39.9279Z" fill="#FAE5E3"/>
<path d="M37.3139 50.1641C39.8337 53.6935 47.9813 54.7412 49.3714 55.2457C51.6515 56.1097 52.0393 58.4457 52.073 59.7181C52.1704 63.3435 52.5957 69.5628 51.3236 72.8494H9.61995C8.52022 69.3087 8.95299 59.9986 9.11224 58.6847C9.27149 57.3708 9.88599 54.7054 13.1402 53.8941C14.5791 53.5308 23.5888 52.0672 25.4173 49.5279C26.148 46.6008 26.0899 44.502 25.8594 39.9279C25.8594 39.9279 22.8338 38.2018 21.6272 34.6027C20.4207 31.0037 21.6216 29.4658 21.6216 29.4658C19.203 23.1091 23.3677 19.2841 23.3677 19.2841C31.0921 11.7848 41.3456 15.798 42.9981 20.0917C44.8294 24.355 45.8053 28.9395 45.8701 33.5825C45.8982 38.7382 43.1854 42.3392 40.9016 43.3237C39.7138 43.9317 36.7519 43.7905 36.7519 43.7905C36.7519 43.7905 35.7852 47.4084 37.3139 50.1641Z" fill="#FAE5E3"/>
<path opacity="0.4" d="M36.7087 43.6456C36.5273 44.9266 36.2463 46.809 36.7087 48.3149C34.9945 47.9064 30.1553 44.5453 30.1553 41.8159C32.2726 42.6468 34.4683 43.2598 36.7087 43.6456Z" fill="#050504"/>
<path d="M23.8293 30.5266C23.0986 30.7261 22.6003 31.8348 23.181 33.0301" stroke="#050504" stroke-width="0.565263" stroke-linecap="round"/>
<path d="M39.741 30.9892C39.6784 30.8462 39.5117 30.7811 39.3687 30.8437C39.2257 30.9064 39.1606 31.073 39.2232 31.216L39.741 30.9892ZM39.8239 35.846C39.6814 35.9097 39.6175 36.0769 39.6812 36.2194C39.7449 36.3619 39.9121 36.4257 40.0546 36.362L39.8239 35.846ZM30.9909 26.8452C30.8903 26.9646 30.9056 27.1429 31.0249 27.2435C31.1443 27.344 31.3226 27.3288 31.4232 27.2094L30.9909 26.8452ZM35.3081 25.2579L35.3558 24.9793L35.3538 24.979L35.3081 25.2579ZM35.8261 25.6885C35.9724 25.7428 36.1351 25.6682 36.1894 25.5219C36.2437 25.3756 36.1692 25.2129 36.0228 25.1586L35.8261 25.6885ZM40.1269 25.6424C40.0118 25.7478 40.0039 25.9265 40.1093 26.0417C40.2147 26.1568 40.3935 26.1647 40.5086 26.0593L40.1269 25.6424ZM44.1097 24.9605L44.2286 24.7041L44.2283 24.7039L44.1097 24.9605ZM44.4322 25.4816C44.5568 25.5756 44.7341 25.5508 44.8281 25.4262C44.9221 25.3016 44.8972 25.1244 44.7726 25.0304L44.4322 25.4816ZM39.4821 31.1026C39.2232 31.216 39.2232 31.216 39.2233 31.216C39.2233 31.2161 39.2233 31.2161 39.2233 31.2162C39.2233 31.2163 39.2234 31.2164 39.2235 31.2166C39.2237 31.2171 39.224 31.2177 39.2244 31.2186C39.2251 31.2203 39.2262 31.2229 39.2277 31.2263C39.2307 31.2332 39.2352 31.2434 39.241 31.2567C39.2527 31.2834 39.2698 31.3227 39.2916 31.3728C39.3351 31.4731 39.3974 31.6169 39.4722 31.7908C39.6217 32.1387 39.8209 32.6066 40.02 33.0874C40.2194 33.5688 40.4176 34.0607 40.5657 34.4573C40.6399 34.656 40.7003 34.8276 40.7417 34.9605C40.7625 35.0271 40.7775 35.0808 40.7871 35.1216C40.7979 35.1679 40.7976 35.1803 40.7976 35.1722H41.3628C41.3628 35.1115 41.35 35.046 41.3374 34.9925C41.3236 34.9335 41.3043 34.8657 41.2813 34.7922C41.2354 34.6449 41.1709 34.4623 41.0953 34.2596C40.9437 33.8537 40.7425 33.3545 40.5423 32.8712C40.3419 32.3873 40.1416 31.9169 39.9915 31.5676C39.9164 31.3929 39.8538 31.2484 39.81 31.1475C39.7881 31.0971 39.7709 31.0576 39.7591 31.0306C39.7532 31.0172 39.7487 31.0068 39.7457 30.9998C39.7441 30.9964 39.743 30.9937 39.7422 30.9919C39.7418 30.991 39.7415 30.9904 39.7413 30.9899C39.7412 30.9897 39.7411 30.9895 39.7411 30.9894C39.7411 30.9893 39.741 30.9893 39.741 30.9892C39.741 30.9892 39.741 30.9892 39.4821 31.1026ZM40.7976 35.1722C40.7976 35.1585 40.7989 35.1989 40.7019 35.296C40.6164 35.3817 40.4938 35.472 40.3587 35.5573C40.2259 35.6413 40.0915 35.7139 39.9894 35.7658C39.9386 35.7916 39.8965 35.812 39.8673 35.8258C39.8528 35.8327 39.8415 35.8379 39.8341 35.8414C39.8304 35.8431 39.8276 35.8443 39.8259 35.8451C39.825 35.8455 39.8244 35.8458 39.8241 35.8459C39.8239 35.846 39.8238 35.846 39.8238 35.846C39.8238 35.8461 39.8238 35.8461 39.8238 35.846C39.8238 35.846 39.8238 35.846 39.8238 35.846C39.8239 35.846 39.8239 35.846 39.9392 36.104C40.0546 36.362 40.0547 36.362 40.0547 36.362C40.0547 36.362 40.0548 36.362 40.0548 36.3619C40.0549 36.3619 40.055 36.3619 40.0551 36.3618C40.0554 36.3617 40.0557 36.3615 40.0561 36.3614C40.0568 36.361 40.0579 36.3606 40.0592 36.36C40.0618 36.3588 40.0654 36.3571 40.0701 36.355C40.0793 36.3507 40.0926 36.3446 40.1092 36.3367C40.1425 36.321 40.1895 36.2982 40.2457 36.2696C40.3575 36.2128 40.5083 36.1315 40.6607 36.0352C40.8109 35.9403 40.9735 35.824 41.1019 35.6954C41.2189 35.5783 41.3628 35.3969 41.3628 35.1722H40.7976ZM31.4232 27.2094C32.4507 25.9896 33.9261 25.3179 35.2624 25.5368L35.3538 24.979C33.7712 24.7197 32.1104 25.5163 30.9909 26.8452L31.4232 27.2094ZM35.2604 25.5365C35.4532 25.5695 35.6426 25.6203 35.8261 25.6885L36.0228 25.1586C35.8065 25.0782 35.5832 25.0182 35.3558 24.9793L35.2604 25.5365ZM40.5086 26.0593C41.5944 25.0652 42.9343 24.7286 43.9911 25.217L44.2283 24.7039C42.8982 24.0892 41.3193 24.5508 40.1269 25.6424L40.5086 26.0593ZM43.9908 25.2169C44.1468 25.2892 44.2948 25.378 44.4322 25.4816L44.7726 25.0304C44.6033 24.9026 44.4209 24.7932 44.2286 24.7041L43.9908 25.2169Z" fill="#050504"/>
<path d="M36.2656 38.2654C36.8243 39.5718 38.7571 39.8857 39.6379 39.7376" stroke="#050504" stroke-width="0.565263" stroke-miterlimit="10" stroke-linecap="round"/>
<path d="M35.2314 31.8895C35.815 31.8895 36.2881 31.2406 36.2881 30.4401C36.2881 29.6396 35.815 28.9907 35.2314 28.9907C34.6479 28.9907 34.1748 29.6396 34.1748 30.4401C34.1748 31.2406 34.6479 31.8895 35.2314 31.8895Z" fill="#2E1701"/>
<path d="M35.9263 29.9167C35.6435 28.84 34.229 28.6725 33.2061 29.5685" stroke="#050504" stroke-width="0.565263" stroke-linecap="round"/>
<path d="M43.4971 31.3661C44.0806 31.3661 44.5537 30.7172 44.5537 29.9167C44.5537 29.1162 44.0806 28.4673 43.4971 28.4673C42.9135 28.4673 42.4404 29.1162 42.4404 29.9167C42.4404 30.7172 42.9135 31.3661 43.4971 31.3661Z" fill="#2E1701"/>
<path d="M44.192 29.3935C43.9091 28.3168 42.4946 28.1493 41.4717 29.0453" stroke="#050504" stroke-width="0.565263" stroke-linecap="round"/>
<path d="M8.94921 58.6847C8.78921 59.9986 8.35439 69.3087 9.45933 72.8494H51.3604C52.6385 69.5628 52.2113 63.3435 52.1134 59.7181C52.0795 58.4456 51.6898 56.1096 49.399 55.2456C48.1201 54.7837 41.5765 53.9618 38.1883 51.2324L31.506 54.4324L24.4471 50.4795C21.4023 52.3719 14.2426 53.5809 12.9963 53.8941C9.72662 54.7054 9.10921 57.3708 8.94921 58.6847Z" fill="#F1CF73" stroke="#050504" stroke-width="0.565263" stroke-linecap="round" stroke-linejoin="round"/>
<path d="M28.7104 54.214C25.5104 53.335 24.526 51.8874 23.7617 50.7731C24.0234 49.6135 24.1647 48.0324 25.5764 47.3735C23.1294 48.6912 25.5744 49.5928 30.0375 50.5171L28.7104 54.214Z" fill="#E3F0DF"/>
<path d="M34.7848 53.7472C37.9848 52.8681 37.8135 52.3543 38.254 51.7745C38.254 50.391 38.1523 48.5444 36.7594 47.9966C38.8168 49.0583 37.6309 49.9919 33.2601 50.5171L34.7848 53.7472Z" fill="#E3F0DF"/>
<path d="M28.7104 54.214C25.5104 53.335 24.526 51.8874 23.7617 50.7731C24.0234 49.6135 24.1647 48.0324 25.5764 47.3735C23.1294 48.6912 25.5744 49.5928 30.0375 50.5171L28.7104 54.214Z" stroke="#050504" stroke-width="0.565263" stroke-linecap="round" stroke-linejoin="round"/>
<path d="M34.7848 53.7472C37.9848 52.8681 37.8135 52.3543 38.254 51.7745C38.254 50.391 38.1523 48.5444 36.7594 47.9966C38.8168 49.0583 37.6309 49.9919 33.2601 50.5171L34.7848 53.7472Z" stroke="#050504" stroke-width="0.565263" stroke-linecap="round" stroke-linejoin="round"/>
<path d="M26.141 49.256L25.8587 47.2795C25.3848 47.3154 24.541 47.8927 24.541 48.409C24.541 48.9253 25.6988 49.2202 26.141 49.256Z" fill="#050504"/>
<path d="M36.1175 49.8207L36.494 48.0325C36.9678 48.0683 37.7175 48.3632 37.7175 48.8795C37.7175 49.3958 36.5597 49.7849 36.1175 49.8207Z" fill="#050504"/>
<g opacity="0.2">
<path d="M32.9177 50.4795L34.5177 53.0997L33.0382 53.7303L32.1497 54.0899L32.9177 50.4795Z" fill="#050504"/>
<path d="M30.3766 50.4795L31.1295 54.056L29.6763 53.3783L28.9893 53.0019L30.3766 50.4795Z" fill="#050504"/>
</g>
<path d="M37.7592 30.1745C37.7592 30.3305 37.8857 30.4571 38.0418 30.4571C38.1979 30.4571 38.3244 30.3305 38.3244 30.1745H37.7592ZM40.6574 29.8639C40.6574 30.02 40.784 30.1465 40.9401 30.1465C41.0962 30.1465 41.2227 30.02 41.2227 29.8639H40.6574ZM32.2633 30.2915C32.4121 30.3385 32.5709 30.2559 32.6178 30.107C32.6648 29.9582 32.5822 29.7994 32.4333 29.7524L32.2633 30.2915ZM22.2615 28.5481L22.3829 28.8035L22.3919 28.7988L22.2615 28.5481ZM20.4848 31.5494C20.5133 31.7029 20.6609 31.8041 20.8143 31.7756C20.9678 31.7471 21.0691 31.5996 21.0406 31.4461L20.4848 31.5494ZM37.7592 30.022C37.7592 31.7242 36.5743 33.0316 35.196 33.0316V33.5968C36.961 33.5968 38.3244 31.9563 38.3244 30.022H37.7592ZM35.196 33.0316C33.8176 33.0316 32.6328 31.7242 32.6328 30.022H32.0675C32.0675 31.9563 33.4309 33.5968 35.196 33.5968V33.0316ZM32.6328 30.022C32.6328 28.3198 33.8176 27.0124 35.196 27.0124V26.4471C33.4309 26.4471 32.0675 28.0877 32.0675 30.022H32.6328ZM35.196 27.0124C36.5743 27.0124 37.7592 28.3198 37.7592 30.022H38.3244C38.3244 28.0877 36.961 26.4471 35.196 26.4471V27.0124ZM46.3229 29.3857C46.3229 31.088 45.138 32.3953 43.7597 32.3953V32.9606C45.5247 32.9606 46.8881 31.32 46.8881 29.3857H46.3229ZM43.7597 32.3953C42.3813 32.3953 41.1965 31.088 41.1965 29.3857H40.6312C40.6312 31.32 41.9946 32.9606 43.7597 32.9606V32.3953ZM41.1965 29.3857C41.1965 27.6835 42.3813 26.3761 43.7597 26.3761V25.8109C41.9946 25.8109 40.6312 27.4515 40.6312 29.3857H41.1965ZM43.7597 26.3761C45.138 26.3761 46.3229 27.6835 46.3229 29.3857H46.8881C46.8881 27.4515 45.5247 25.8109 43.7597 25.8109V26.3761ZM38.3244 30.1745C38.3244 29.9669 38.4324 29.7972 38.6463 29.6611C38.8665 29.521 39.1785 29.434 39.5081 29.414C39.8379 29.3939 40.1516 29.4431 40.3707 29.5423C40.5918 29.6423 40.6574 29.7592 40.6574 29.8639H41.2227C41.2227 29.4443 40.926 29.1731 40.6038 29.0273C40.2794 28.8805 39.8686 28.8258 39.4738 28.8497C39.0788 28.8737 38.6662 28.9786 38.343 29.1841C38.0135 29.3936 37.7592 29.7232 37.7592 30.1745H38.3244ZM32.3483 30.022C32.4333 29.7524 32.4333 29.7524 32.4332 29.7524C32.4331 29.7524 32.433 29.7523 32.4329 29.7523C32.4326 29.7522 32.4322 29.7521 32.4317 29.7519C32.4306 29.7516 32.4291 29.7511 32.4271 29.7505C32.4231 29.7492 32.4171 29.7474 32.4094 29.7449C32.3938 29.7401 32.3708 29.7329 32.3408 29.7237C32.2808 29.7052 32.1927 29.6782 32.0801 29.6444C31.8548 29.5766 31.531 29.4812 31.1363 29.3701C30.347 29.1479 29.2724 28.8625 28.1324 28.6103C26.994 28.3584 25.7832 28.1379 24.7237 28.0481C24.194 28.0032 23.6958 27.9903 23.2598 28.0243C22.8279 28.058 22.4352 28.1391 22.131 28.2974L22.3919 28.7988C22.5987 28.6912 22.9045 28.619 23.3037 28.5878C23.6988 28.557 24.1642 28.5679 24.676 28.6113C25.6994 28.6981 26.8826 28.9126 28.0103 29.1622C29.1366 29.4114 30.2004 29.6938 30.9831 29.9142C31.3742 30.0243 31.6948 30.1188 31.9174 30.1857C32.0286 30.2191 32.1154 30.2457 32.1742 30.2638C32.2036 30.2729 32.226 30.2799 32.241 30.2845C32.2485 30.2869 32.2541 30.2886 32.2578 30.2898C32.2597 30.2904 32.2611 30.2908 32.262 30.2911C32.2625 30.2913 32.2628 30.2914 32.263 30.2914C32.2631 30.2915 32.2632 30.2915 32.2632 30.2915C32.2633 30.2915 32.2633 30.2915 32.3483 30.022ZM22.1401 28.2929C21.5446 28.5761 21.0594 29.0493 20.7601 29.6384L21.264 29.8944C21.5069 29.4163 21.9004 29.0328 22.3829 28.8033L22.1401 28.2929ZM20.7601 29.6384C20.4607 30.2275 20.364 30.8994 20.4848 31.5494L21.0406 31.4461C20.9424 30.9182 21.021 30.3726 21.264 29.8944L20.7601 29.6384Z" fill="#EB8682"/>
<path d="M31.7225 9.55728C27.8006 9.83456 18.266 11.1697 18.5237 14.8635C18.7814 18.5573 30.2609 18.1602 32.3109 18.0147C34.3609 17.8692 45.8844 16.7669 45.62 12.9464C45.3944 9.74037 37.4588 9.15164 31.7225 9.55728ZM32.1194 16.4041C26.3626 16.8114 20.1753 15.8289 20.0922 14.6444C20.0091 13.4599 25.8827 11.6917 31.77 11.2741C37.7149 10.8479 43.865 11.6439 43.9565 12.9618C44.048 14.2798 37.8743 16.0001 32.1194 16.4074V16.4041Z" fill="#69F0ED"/>
</g>
<path d="M32.0713 64.4084C14.7104 64.4084 0.636552 50.3346 0.636552 32.9736H-0.493974C-0.493974 50.9589 14.086 65.5389 32.0713 65.5389V64.4084ZM63.506 32.9736C63.506 50.3346 49.4322 64.4084 32.0713 64.4084V65.5389C50.0566 65.5389 64.6366 50.9589 64.6366 32.9736H63.506ZM32.0713 1.5389C49.4322 1.5389 63.506 15.6127 63.506 32.9736H64.6366C64.6366 14.9883 50.0566 0.40837 32.0713 0.40837V1.5389ZM32.0713 0.40837C14.086 0.40837 -0.493974 14.9883 -0.493974 32.9736H0.636552C0.636552 15.6127 14.7104 1.5389 32.0713 1.5389V0.40837Z" fill="#050504"/>
<defs>
<clipPath id="clip0_550:5062">
<path d="M0.0712891 32.9736C0.0712891 15.3005 14.3982 0.973633 32.0713 0.973633C49.7444 0.973633 64.0713 15.3005 64.0713 32.9736C64.0713 50.6467 49.7444 64.9736 32.0713 64.9736C14.3982 64.9736 0.0712891 50.6467 0.0712891 32.9736Z" fill="white"/>
</clipPath>
</defs>
</svg>

