<svg width="16" height="16" viewBox="0 0 16 16" fill="none" xmlns="http://www.w3.org/2000/svg">
<path d="M15.5268 6.54384H7.99479V9.63961H12.2976C12.1121 10.6403 11.5492 11.4866 10.7007 12.0537C9.98358 12.5332 9.0684 12.8167 7.9927 12.8167C5.9101 12.8167 4.14853 11.4095 3.51896 9.5187C3.36052 9.03922 3.2688 8.52638 3.2688 7.99896C3.2688 7.47153 3.36052 6.9587 3.51896 6.47922C4.15062 4.59049 5.91218 3.18332 7.99479 3.18332C9.16847 3.18332 10.2212 3.58775 11.0509 4.37993L13.3441 2.08469C11.9578 0.792182 10.1504 0 7.99479 0C4.86984 0 2.16599 1.79283 0.850554 4.40704C0.308534 5.48691 0 6.70853 0 8.00104C0 9.29355 0.308534 10.5131 0.850554 11.593C2.16599 14.2072 4.86984 16 7.99479 16C10.1545 16 11.964 15.2829 13.2857 14.0612C14.7971 12.6687 15.6706 10.6173 15.6706 8.18033C15.6706 7.61329 15.6206 7.06919 15.5268 6.54384Z" fill="black" fill-opacity="0.75"/>
</svg>
