<svg width="14" height="15" viewBox="0 0 18 20" fill="none" xmlns="http://www.w3.org/2000/svg">
<path d="M12.8977 13.0563C13.4649 12.7516 14.1141 12.5781 14.8055 12.5781H14.8079C14.8782 12.5781 14.911 12.4938 14.8594 12.4469C14.1404 11.8016 13.319 11.2804 12.429 10.9047C12.4196 10.9 12.4102 10.8977 12.4008 10.893C13.8563 9.83594 14.8032 8.11797 14.8032 6.17969C14.8032 2.96875 12.2063 0.367188 9.0024 0.367188C5.7985 0.367188 3.20397 2.96875 3.20397 6.17969C3.20397 8.11797 4.15084 9.83594 5.60865 10.893C5.59928 10.8977 5.5899 10.9 5.58053 10.9047C4.53287 11.3477 3.59303 11.9828 2.78443 12.7938C1.98051 13.5962 1.34048 14.5475 0.900058 15.5945C0.46673 16.6198 0.232867 17.7184 0.210996 18.8312C0.210371 18.8563 0.214758 18.8812 0.2239 18.9044C0.233043 18.9277 0.246755 18.949 0.264228 18.9669C0.281702 18.9848 0.302584 18.999 0.325643 19.0087C0.348703 19.0184 0.373474 19.0234 0.398496 19.0234H1.8024C1.90318 19.0234 1.98756 18.9414 1.9899 18.8406C2.03678 17.0312 2.761 15.3367 4.04303 14.0523C5.36725 12.7234 7.12975 11.9922 9.00475 11.9922C10.3337 11.9922 11.6087 12.3602 12.7079 13.0492C12.7361 13.067 12.7685 13.077 12.8019 13.0782C12.8352 13.0794 12.8682 13.0719 12.8977 13.0563ZM9.00475 10.2109C7.93131 10.2109 6.92115 9.79141 6.15943 9.02969C5.78466 8.65588 5.48755 8.21161 5.28521 7.72248C5.08288 7.23335 4.97933 6.70901 4.98053 6.17969C4.98053 5.10391 5.40006 4.09141 6.15943 3.32969C6.91881 2.56797 7.92897 2.14844 9.00475 2.14844C10.0805 2.14844 11.0883 2.56797 11.8501 3.32969C12.2248 3.70349 12.5219 4.14776 12.7243 4.63689C12.9266 5.12603 13.0302 5.65036 13.029 6.17969C13.029 7.25547 12.6094 8.26797 11.8501 9.02969C11.0883 9.79141 10.0782 10.2109 9.00475 10.2109ZM17.6251 15.7891H15.6563V13.8203C15.6563 13.7172 15.5719 13.6328 15.4688 13.6328H14.1563C14.0532 13.6328 13.9688 13.7172 13.9688 13.8203V15.7891H12.0001C11.8969 15.7891 11.8126 15.8734 11.8126 15.9766V17.2891C11.8126 17.3922 11.8969 17.4766 12.0001 17.4766H13.9688V19.4453C13.9688 19.5484 14.0532 19.6328 14.1563 19.6328H15.4688C15.5719 19.6328 15.6563 19.5484 15.6563 19.4453V17.4766H17.6251C17.7282 17.4766 17.8126 17.3922 17.8126 17.2891V15.9766C17.8126 15.8734 17.7282 15.7891 17.6251 15.7891Z" fill="black" fill-opacity="0.87"/>
</svg>
