<svg width="15" height="15" viewBox="0 0 20 20" fill="none" xmlns="http://www.w3.org/2000/svg">
<path d="M18.9064 16.0938H17.0314V14.2188C17.0314 14.1157 16.947 14.0313 16.8439 14.0313H15.7189C15.6158 14.0313 15.5314 14.1157 15.5314 14.2188V16.0938H13.6564C13.5533 16.0938 13.4689 16.1782 13.4689 16.2813V17.4063C13.4689 17.5094 13.5533 17.5938 13.6564 17.5938H15.5314V19.4688C15.5314 19.5719 15.6158 19.6563 15.7189 19.6563H16.8439C16.947 19.6563 17.0314 19.5719 17.0314 19.4688V17.5938H18.9064C19.0095 17.5938 19.0939 17.5094 19.0939 17.4063V16.2813C19.0939 16.1782 19.0095 16.0938 18.9064 16.0938ZM6.75407 9.68131C6.73297 9.47741 6.72125 9.27116 6.72125 9.06256C6.72125 8.68991 6.75641 8.32662 6.82203 7.97272C6.83844 7.88834 6.79391 7.80162 6.71657 7.76647C6.39781 7.6235 6.10485 7.42662 5.85172 7.17819C5.55345 6.88899 5.31875 6.54078 5.16258 6.1558C5.0064 5.77082 4.9322 5.35751 4.94469 4.94225C4.96578 4.18991 5.26813 3.47506 5.79547 2.936C6.37438 2.34303 7.1525 2.01959 7.97985 2.02897C8.7275 2.036 9.44938 2.32428 9.99547 2.83522C10.1806 3.00866 10.34 3.20084 10.4736 3.40709C10.5205 3.47975 10.6119 3.51022 10.6916 3.48209C11.1041 3.33912 11.54 3.23834 11.9877 3.19147C12.1189 3.17741 12.1939 3.03678 12.1353 2.91959C11.3736 1.41256 9.81735 0.371937 8.01735 0.343812C5.42047 0.303968 3.25484 2.43444 3.25484 5.03131C3.25484 6.50319 3.93219 7.81569 4.99391 8.67584C4.2486 9.02037 3.56188 9.49616 2.96656 10.0915C1.68219 11.3735 0.955625 13.0657 0.90875 14.8727C0.908124 14.8977 0.912512 14.9226 0.921654 14.9459C0.930797 14.9692 0.944509 14.9904 0.961982 15.0083C0.979456 15.0263 1.00034 15.0405 1.0234 15.0502C1.04646 15.0599 1.07123 15.0649 1.09625 15.0649H2.41109C2.51188 15.0649 2.59625 14.9852 2.59859 14.8844C2.64313 13.5251 3.19391 12.2524 4.16188 11.2868C4.85094 10.5977 5.69469 10.1196 6.61578 9.88756C6.70485 9.86178 6.76578 9.77506 6.75407 9.68131ZM17.3127 9.06256C17.3127 6.4985 15.2525 4.41491 12.6978 4.37506C10.1009 4.33522 7.93766 6.46569 7.93766 9.06256C7.93766 10.5344 8.61735 11.8469 9.67672 12.7071C8.92369 13.0561 8.23817 13.5354 7.65172 14.1227C6.36735 15.4047 5.64078 17.0969 5.59391 18.9016C5.59328 18.9266 5.59767 18.9515 5.60681 18.9748C5.61596 18.9981 5.62967 19.0193 5.64714 19.0372C5.66461 19.0552 5.6855 19.0694 5.70856 19.0791C5.73162 19.0888 5.75639 19.0938 5.78141 19.0938H7.09391C7.19469 19.0938 7.27907 19.0141 7.28141 18.9133C7.32594 17.554 7.87672 16.2813 8.84469 15.3157C9.85485 14.3055 11.1955 13.7501 12.6252 13.7501C15.2127 13.7501 17.3127 11.6524 17.3127 9.06256ZM14.7463 11.1837C14.1791 11.7508 13.4267 12.0626 12.6252 12.0626C11.8236 12.0626 11.0713 11.7508 10.5041 11.1837C10.221 10.9021 9.9974 10.5666 9.84642 10.197C9.69545 9.82742 9.62021 9.43129 9.62516 9.03209C9.63219 8.26334 9.93922 7.52037 10.4759 6.96959C11.0384 6.39303 11.7908 6.07194 12.5947 6.06256C13.3892 6.05553 14.1603 6.36491 14.7275 6.92037C15.3088 7.48991 15.6275 8.25162 15.6275 9.06256C15.6252 9.86412 15.3134 10.6165 14.7463 11.1837Z" fill="black" fill-opacity="0.87"/>
</svg>
