<svg width="24" height="24" viewBox="0 0 24 24" fill="none" xmlns="http://www.w3.org/2000/svg">
<path d="M11.9996 22.8532C12.4195 22.8436 12.8225 22.6857 13.1373 22.4075C13.4521 22.1294 13.6583 21.7488 13.7196 21.3333H10.2129C10.2759 21.7601 10.4918 22.1496 10.8204 22.4292C11.1491 22.7088 11.5681 22.8595 11.9996 22.8532Z" fill="#34008E"/>
<path d="M21.6732 18.5533C21.0303 17.9802 20.4675 17.3232 19.9999 16.6C19.4893 15.6017 19.1834 14.5115 19.0999 13.3933V10.1C19.0972 9.69998 19.0615 9.30085 18.9932 8.90668C18.4685 8.80179 17.9642 8.61268 17.4999 8.34668C17.6769 8.91658 17.7668 9.50994 17.7665 10.1067V13.4C17.8482 14.764 18.2235 16.0943 18.8665 17.3C19.3268 18.0294 19.8729 18.7008 20.4932 19.3H3.41987C4.04014 18.7008 4.58627 18.0294 5.04654 17.3C5.68961 16.0943 6.06482 14.764 6.14654 13.4V10.1C6.14303 9.32847 6.29174 8.56382 6.58416 7.84983C6.87659 7.13584 7.30697 6.48655 7.85068 5.93912C8.39439 5.3917 9.04074 4.9569 9.75272 4.65962C10.4647 4.36235 11.2283 4.20843 11.9999 4.20668C13.129 4.20759 14.2329 4.54152 15.1732 5.16668C15.1732 4.41416 15.3268 4 15.5 3.5C14.8039 3.15757 13.556 3.01234 12.7865 2.91335V2.07335C12.7865 1.83731 12.6928 1.61093 12.5259 1.44402C12.359 1.27712 12.1326 1.18335 11.8965 1.18335C11.6605 1.18335 11.4341 1.27712 11.2672 1.44402C11.1003 1.61093 11.0065 1.83731 11.0065 2.07335V2.94668C9.28368 3.18972 7.70692 4.04785 6.56735 5.36264C5.42778 6.67743 4.80236 8.36011 4.80654 10.1V13.3933C4.72304 14.5115 4.41705 15.6017 3.90654 16.6C3.44712 17.3216 2.89333 17.9785 2.25987 18.5533C2.18876 18.6158 2.13176 18.6927 2.09268 18.7789C2.0536 18.8651 2.03332 18.9587 2.0332 19.0533V19.96C2.0332 20.1368 2.10344 20.3064 2.22847 20.4314C2.35349 20.5564 2.52306 20.6267 2.69987 20.6267H21.2332C21.41 20.6267 21.5796 20.5564 21.7046 20.4314C21.8296 20.3064 21.8999 20.1368 21.8999 19.96V19.0533C21.8997 18.9587 21.8795 18.8651 21.8404 18.7789C21.8013 18.6927 21.7443 18.6158 21.6732 18.5533Z" fill="#34008E"/>
<path d="M19.0003 8.33341C20.8413 8.33341 22.3337 6.84103 22.3337 5.00008C22.3337 3.15913 20.8413 1.66675 19.0003 1.66675C17.1594 1.66675 15.667 3.15913 15.667 5.00008C15.667 6.84103 17.1594 8.33341 19.0003 8.33341Z" fill="#E2382F"/>
</svg>
