<svg width="12" height="12" viewBox="0 0 12 12" fill="none" xmlns="http://www.w3.org/2000/svg">
<path d="M5.04001 1.51206C4.95964 1.42539 4.89713 1.32374 4.85605 1.21291C4.81497 1.10208 4.79612 0.984242 4.80058 0.866128C4.80503 0.748013 4.83271 0.631933 4.88203 0.524515C4.93135 0.417098 5.00134 0.320445 5.08801 0.240078C5.17468 0.15971 5.27634 0.0971997 5.38717 0.0561171C5.49799 0.0150345 5.61583 -0.0038163 5.73394 0.000640854C5.97249 0.00964248 6.19768 0.113036 6.36 0.288077L11.1599 5.38801C11.3143 5.55443 11.4 5.77302 11.4 6C11.4 6.22698 11.3143 6.44557 11.1599 6.61199L6.36 11.7119C6.19768 11.887 5.97249 11.9904 5.73394 11.9994C5.4954 12.0084 5.26305 11.9222 5.08801 11.7599C4.91297 11.5976 4.80958 11.3724 4.80058 11.1339C4.79157 10.8953 4.8777 10.663 5.04001 10.4879L9.27116 6L5.04001 1.51206ZM0.240077 1.51206C0.159709 1.42539 0.097199 1.32374 0.0561164 1.21291C0.0150338 1.10208 -0.00381696 0.984242 0.000640197 0.866128C0.00964182 0.627585 0.113036 0.402388 0.288076 0.240078C0.463117 0.0777672 0.695465 -0.00836077 0.934008 0.000640854C1.17255 0.00964248 1.39775 0.113036 1.56006 0.288077L6.36 5.38801C6.51434 5.55443 6.6001 5.77302 6.6001 6C6.6001 6.22698 6.51434 6.44557 6.36 6.61199L1.56006 11.7119C1.47969 11.7986 1.38304 11.8686 1.27562 11.9179C1.1682 11.9672 1.05212 11.9949 0.934008 11.9994C0.815894 12.0038 0.698058 11.985 0.587229 11.9439C0.4764 11.9028 0.374747 11.8403 0.288076 11.7599C0.201405 11.6796 0.131412 11.5829 0.0820936 11.4755C0.0327752 11.3681 0.00509735 11.252 0.000640197 11.1339C-0.00381695 11.0158 0.0150338 10.8979 0.0561164 10.7871C0.097199 10.6763 0.159709 10.5746 0.240077 10.4879L4.47242 6L0.240077 1.51206Z" fill="#34008E"/>
</svg>
