<svg width="15" height="15" viewBox="0 0 18 18" fill="none" xmlns="http://www.w3.org/2000/svg">
<path fill-rule="evenodd" clip-rule="evenodd" d="M1.96875 0C1.4466 0 0.945846 0.207421 0.576634 0.576634C0.207421 0.945846 0 1.4466 0 1.96875L0 16.0312C0 17.118 0.882 18 1.96875 18H16.0312C16.5534 18 17.0542 17.7926 17.4234 17.4234C17.7926 17.0542 18 16.5534 18 16.0312V1.96875C18 1.4466 17.7926 0.945846 17.4234 0.576634C17.0542 0.207421 16.5534 0 16.0312 0H1.96875ZM1.6875 1.96875C1.6875 1.89416 1.71713 1.82262 1.76988 1.76988C1.82262 1.71713 1.89416 1.6875 1.96875 1.6875H16.0312C16.1058 1.6875 16.1774 1.71713 16.2301 1.76988C16.2829 1.82262 16.3125 1.89416 16.3125 1.96875V16.0312C16.3125 16.1058 16.2829 16.1774 16.2301 16.2301C16.1774 16.2829 16.1058 16.3125 16.0312 16.3125H1.96875C1.89416 16.3125 1.82262 16.2829 1.76988 16.2301C1.71713 16.1774 1.6875 16.1058 1.6875 16.0312V1.96875ZM13.2188 3.375C12.995 3.375 12.7804 3.46389 12.6221 3.62213C12.4639 3.78036 12.375 3.99497 12.375 4.21875V12.6562C12.375 12.88 12.4639 13.0946 12.6221 13.2529C12.7804 13.4111 12.995 13.5 13.2188 13.5C13.4425 13.5 13.6571 13.4111 13.8154 13.2529C13.9736 13.0946 14.0625 12.88 14.0625 12.6562V4.21875C14.0625 3.99497 13.9736 3.78036 13.8154 3.62213C13.6571 3.46389 13.4425 3.375 13.2188 3.375ZM3.9375 4.21875C3.9375 3.99497 4.02639 3.78036 4.18463 3.62213C4.34286 3.46389 4.55747 3.375 4.78125 3.375C5.00503 3.375 5.21964 3.46389 5.37787 3.62213C5.53611 3.78036 5.625 3.99497 5.625 4.21875V10.4062C5.625 10.63 5.53611 10.8446 5.37787 11.0029C5.21964 11.1611 5.00503 11.25 4.78125 11.25C4.55747 11.25 4.34286 11.1611 4.18463 11.0029C4.02639 10.8446 3.9375 10.63 3.9375 10.4062V4.21875ZM9 3.375C8.77622 3.375 8.56161 3.46389 8.40338 3.62213C8.24514 3.78036 8.15625 3.99497 8.15625 4.21875V8.15625C8.15625 8.38003 8.24514 8.59464 8.40338 8.75287C8.56161 8.91111 8.77622 9 9 9C9.22378 9 9.43839 8.91111 9.59662 8.75287C9.75486 8.59464 9.84375 8.38003 9.84375 8.15625V4.21875C9.84375 3.99497 9.75486 3.78036 9.59662 3.62213C9.43839 3.46389 9.22378 3.375 9 3.375Z" fill="#34008E"/>
</svg>
