<svg width="15" height="15" viewBox="0 0 20 20" fill="none" xmlns="http://www.w3.org/2000/svg">
<path d="M9.9996 6.25C9.00504 6.25 8.05121 6.64509 7.34795 7.34835C6.64469 8.05161 6.2496 9.00544 6.2496 10C6.2496 10.9946 6.64469 11.9484 7.34795 12.6517C8.05121 13.3549 9.00504 13.75 9.9996 13.75C10.9942 13.75 11.948 13.3549 12.6512 12.6517C13.3545 11.9484 13.7496 10.9946 13.7496 10C13.7496 9.00544 13.3545 8.05161 12.6512 7.34835C11.948 6.64509 10.9942 6.25 9.9996 6.25ZM7.4996 10C7.4996 9.33696 7.76299 8.70107 8.23183 8.23223C8.70067 7.76339 9.33656 7.5 9.9996 7.5C10.6626 7.5 11.2985 7.76339 11.7674 8.23223C12.2362 8.70107 12.4996 9.33696 12.4996 10C12.4996 10.663 12.2362 11.2989 11.7674 11.7678C11.2985 12.2366 10.6626 12.5 9.9996 12.5C9.33656 12.5 8.70067 12.2366 8.23183 11.7678C7.76299 11.2989 7.4996 10.663 7.4996 10ZM7.7466 19.734C8.4861 19.9105 9.2431 19.9995 10.0031 19.9995C10.7614 19.9987 11.5171 19.9091 12.2546 19.7325C12.4485 19.6858 12.6233 19.5805 12.7551 19.4309C12.887 19.2813 12.9696 19.0947 12.9916 18.8965L13.1606 17.361C13.1892 17.0864 13.3148 16.831 13.5149 16.6408C13.715 16.4506 13.9764 16.3381 14.2521 16.3235C14.4354 16.3156 14.6181 16.3498 14.7861 16.4235L16.1896 17.039C16.3116 17.0939 16.4438 17.1227 16.5776 17.1235C16.7114 17.1244 16.8439 17.0973 16.9666 17.044C17.0901 16.9915 17.2006 16.9135 17.2916 16.815C18.3236 15.7027 19.094 14.3738 19.5466 12.9255C19.6059 12.7334 19.604 12.5276 19.5413 12.3366C19.4786 12.1455 19.3582 11.9787 19.1966 11.859L17.9496 10.939C17.8011 10.8311 17.6802 10.6896 17.5968 10.5261C17.5135 10.3625 17.47 10.1816 17.47 9.998C17.47 9.81443 17.5135 9.63347 17.5968 9.46992C17.6802 9.30637 17.8011 9.16487 17.9496 9.057L19.1926 8.139C19.3547 8.01918 19.4754 7.85189 19.5382 7.66034C19.6009 7.46879 19.6024 7.26247 19.5426 7.07C19.0899 5.62154 18.3185 4.29286 17.2851 3.1815C17.1482 3.03516 16.9692 2.93492 16.7729 2.89461C16.5766 2.85431 16.3726 2.87594 16.1891 2.9565L14.7861 3.5745C14.6411 3.64 14.4831 3.6745 14.3231 3.6745C14.0351 3.67393 13.7574 3.56707 13.5434 3.37441C13.3293 3.18175 13.1939 2.91685 13.1631 2.6305L12.9931 1.1005C12.9712 0.899778 12.8872 0.710905 12.7527 0.560294C12.6183 0.409683 12.4401 0.304866 12.2431 0.2605C11.5092 0.0963093 10.7601 0.00900505 10.0081 0C9.25113 0.00873652 8.49711 0.0958682 7.7581 0.26C7.56128 0.304142 7.38318 0.408695 7.2487 0.559038C7.11423 0.709381 7.03011 0.897995 7.0081 1.0985L6.8381 2.6295C6.80602 2.91631 6.6693 3.18121 6.4541 3.3735C6.2346 3.56 5.9576 3.666 5.6696 3.6735C5.5111 3.6735 5.3536 3.6405 5.2081 3.5765L3.8081 2.9585C3.62399 2.87721 3.41914 2.8553 3.222 2.8958C3.02486 2.9363 2.84524 3.03721 2.7081 3.1845C1.67613 4.2961 0.905678 5.62431 0.453099 7.072C0.393312 7.2644 0.394886 7.47063 0.457602 7.6621C0.520319 7.85356 0.641068 8.02076 0.803099 8.1405L2.0471 9.0585C2.26917 9.22287 2.42609 9.46035 2.49021 9.72909C2.55433 9.99783 2.52153 10.2806 2.3976 10.5275C2.31505 10.6912 2.19516 10.8332 2.0476 10.942L0.802599 11.862C0.640808 11.9816 0.520207 12.1485 0.457499 12.3397C0.394791 12.5309 0.393079 12.7368 0.452599 12.929C0.904361 14.3781 1.67488 15.7076 2.7076 16.82C2.84407 16.9672 3.02302 17.0681 3.21956 17.1088C3.41609 17.1495 3.62042 17.1279 3.8041 17.047L5.2131 16.4285C5.3586 16.3645 5.5156 16.3315 5.6746 16.3315H5.6786C5.96552 16.3319 6.24228 16.4378 6.45619 16.629C6.67009 16.8202 6.8062 17.0834 6.8386 17.3685L7.0076 18.897C7.02968 19.0955 7.11245 19.2823 7.24461 19.432C7.37677 19.5817 7.5519 19.687 7.7461 19.7335L7.7466 19.734ZM11.7786 18.5615C10.6086 18.8115 9.3986 18.8115 8.2286 18.5615L8.0766 17.2305C8.01051 16.6399 7.72933 16.0943 7.28668 15.6977C6.84403 15.3012 6.27089 15.0815 5.6766 15.0805H5.6716C5.34015 15.0792 5.0121 15.1473 4.7086 15.2805L3.4856 15.817C2.69223 14.9222 2.08689 13.877 1.7056 12.7435L2.7881 11.9435C3.09325 11.7186 3.34129 11.4252 3.51224 11.0869C3.68318 10.7486 3.77224 10.3748 3.77224 9.99575C3.77224 9.61669 3.68318 9.24294 3.51224 8.90462C3.34129 8.5663 3.09325 8.27287 2.7881 8.048L1.7061 7.248C2.08814 6.11581 2.6936 5.07185 3.4866 4.178L4.7026 4.714C5.0066 4.849 5.3356 4.918 5.6681 4.9175H5.6731C6.2688 4.91626 6.84321 4.6958 7.28678 4.29816C7.73034 3.90052 8.01202 3.35353 8.0781 2.7615L8.2281 1.4315C8.81469 1.31396 9.4109 1.25102 10.0091 1.2435C10.6026 1.251 11.1941 1.3135 11.7761 1.431L11.9261 2.761C11.9904 3.35291 12.2708 3.90028 12.7137 4.29822C13.1566 4.69616 13.7307 4.91667 14.3261 4.9175C14.6619 4.92544 14.995 4.85526 15.2991 4.7125L16.5141 4.177C17.3076 5.07077 17.9133 6.11496 18.2951 7.2475L17.2166 8.044C16.9094 8.26793 16.6594 8.56128 16.4871 8.90016C16.3147 9.23903 16.2249 9.61382 16.2249 9.994C16.2249 10.3742 16.3147 10.749 16.4871 11.0878C16.6594 11.4267 16.9094 11.7201 17.2166 11.944L18.2991 12.744C17.9169 13.876 17.3116 14.9199 16.5191 15.814L15.2991 15.279C14.9518 15.1249 14.5729 15.0551 14.1935 15.0754C13.8141 15.0956 13.4448 15.2052 13.1159 15.3954C12.7869 15.5855 12.5075 15.8507 12.3006 16.1694C12.0936 16.4881 11.965 16.8511 11.9251 17.229L11.7786 18.5615Z" fill="black" fill-opacity="0.87"/>
</svg>
