<svg width="13" height="16" viewBox="0 0 16 20" fill="none" xmlns="http://www.w3.org/2000/svg">
<path d="M13.03 9.03C13.1037 8.96134 13.1628 8.87854 13.2038 8.78654C13.2448 8.69454 13.2668 8.59523 13.2686 8.49452C13.2704 8.39382 13.2518 8.29379 13.2141 8.2004C13.1764 8.10701 13.1203 8.02218 13.049 7.95096C12.9778 7.87974 12.893 7.8236 12.7996 7.78588C12.7062 7.74816 12.6062 7.72963 12.5055 7.73141C12.4048 7.73318 12.3055 7.75523 12.2135 7.79622C12.1215 7.83721 12.0387 7.89631 11.97 7.97L7 12.94L5.03 10.97C4.88783 10.8375 4.69978 10.7654 4.50548 10.7688C4.31118 10.7723 4.12579 10.851 3.98838 10.9884C3.85097 11.1258 3.77225 11.3112 3.76883 11.5055C3.7654 11.6998 3.83752 11.8878 3.97 12.03L6.47 14.53C6.61063 14.6705 6.80125 14.7493 7 14.7493C7.19875 14.7493 7.38937 14.6705 7.53 14.53L13.03 9.03ZM11.994 2.084C11.9521 1.51752 11.6975 0.987861 11.2813 0.601319C10.865 0.214778 10.318 -3.32977e-05 9.75 3.87141e-09H6.25C5.69656 1.67245e-05 5.16255 0.204007 4.75004 0.572972C4.33754 0.941936 4.07549 1.44999 4.014 2H2.25C1.65326 2 1.08097 2.23705 0.65901 2.65901C0.237053 3.08097 0 3.65326 0 4.25V17.75C0 18.3467 0.237053 18.919 0.65901 19.341C1.08097 19.7629 1.65326 20 2.25 20H13.75C14.0455 20 14.3381 19.9418 14.611 19.8287C14.884 19.7157 15.1321 19.5499 15.341 19.341C15.5499 19.1321 15.7157 18.884 15.8287 18.611C15.9418 18.3381 16 18.0455 16 17.75V4.25C16 3.95453 15.9418 3.66194 15.8287 3.38896C15.7157 3.11598 15.5499 2.86794 15.341 2.65901C15.1321 2.45008 14.884 2.28434 14.611 2.17127C14.3381 2.0582 14.0455 2 13.75 2H11.986L11.994 2.084ZM11.994 2.096L12 2.25C12 2.198 11.998 2.147 11.995 2.096H11.994ZM6.25 4.5H9.75C10.53 4.5 11.217 4.103 11.621 3.5H13.75C13.9489 3.5 14.1397 3.57902 14.2803 3.71967C14.421 3.86032 14.5 4.05109 14.5 4.25V17.75C14.5 17.9489 14.421 18.1397 14.2803 18.2803C14.1397 18.421 13.9489 18.5 13.75 18.5H2.25C2.05109 18.5 1.86032 18.421 1.71967 18.2803C1.57902 18.1397 1.5 17.9489 1.5 17.75V4.25C1.5 4.05109 1.57902 3.86032 1.71967 3.71967C1.86032 3.57902 2.05109 3.5 2.25 3.5H4.379C4.783 4.103 5.47 4.5 6.25 4.5ZM6.25 1.5H9.75C9.94891 1.5 10.1397 1.57902 10.2803 1.71967C10.421 1.86032 10.5 2.05109 10.5 2.25C10.5 2.44891 10.421 2.63968 10.2803 2.78033C10.1397 2.92098 9.94891 3 9.75 3H6.25C6.05109 3 5.86032 2.92098 5.71967 2.78033C5.57902 2.63968 5.5 2.44891 5.5 2.25C5.5 2.05109 5.57902 1.86032 5.71967 1.71967C5.86032 1.57902 6.05109 1.5 6.25 1.5Z" fill="black" fill-opacity="0.87"/>
</svg>
