<svg width="64" height="65" viewBox="0 0 64 65" fill="none" xmlns="http://www.w3.org/2000/svg">
<g clip-path="url(#clip0_550:5061)">
<path d="M0 32.2649C0 14.5918 14.3269 0.264893 32 0.264893C49.6731 0.264893 64 14.5918 64 32.2649C64 49.938 49.6731 64.2649 32 64.2649C14.3269 64.2649 0 49.938 0 32.2649Z" fill="white"/>
<rect y="0.264893" width="64" height="64" fill="#E3F0DF"/>
<circle cx="32" cy="32.2649" r="30.1158" stroke="white" stroke-width="3.76842"/>
<path d="M36.6816 43.0817C35.3158 43.0403 31.2634 41.7471 30.4578 41.1504L36.6816 43.0817Z" fill="#EB8682"/>
<path d="M37.2436 49.4554C39.7634 52.9848 47.911 54.0325 49.3011 54.5369C51.5811 55.4009 51.9689 57.7369 52.0027 59.0094C52.1001 62.6348 52.5254 68.8541 51.2533 72.1407" fill="#EB8682"/>
<path d="M37.2436 49.4554C35.7148 46.6996 36.6816 43.0817 36.6816 43.0817C36.6816 43.0817 39.6435 43.2229 40.8313 42.6149C43.1151 41.6304 45.8279 38.0295 45.7998 32.8737C45.735 28.2308 44.759 23.6462 42.9277 19.3829C41.2753 15.0893 31.0218 11.0761 23.2974 18.5754C23.2974 18.5754 19.1327 22.4003 21.5513 28.757" fill="#EB8682"/>
<path d="M9.54964 72.1407C8.44991 68.6 8.88268 59.2899 9.04193 57.976C9.20117 56.6621 9.81567 53.9967 13.0699 53.1854C14.5087 52.8221 23.5185 51.3584 25.347 48.8192" fill="#EB8682"/>
<path d="M25.7891 39.2192C25.7891 39.2192 22.7635 37.493 21.5569 33.894C20.3504 30.2949 21.5513 28.757 21.5513 28.757C22.5199 27.3057 26.3737 26.95 26.3737 31.3283" fill="#EB8682"/>
<path d="M25.7891 39.2192C26.0196 43.7933 26.0776 45.8921 25.347 48.8192L25.7891 39.2192Z" fill="#EB8682"/>
<path d="M37.2436 49.4554C39.7634 52.9848 47.911 54.0325 49.3011 54.5369C51.5811 55.4009 51.9689 57.7369 52.0027 59.0094C52.1001 62.6348 52.5254 68.8541 51.2533 72.1407H9.54964C8.44991 68.6 8.88268 59.2899 9.04193 57.976C9.20117 56.6621 9.81567 53.9967 13.0699 53.1854C14.5087 52.8221 23.5185 51.3584 25.347 48.8192C26.0776 45.8921 26.0196 43.7933 25.7891 39.2192C25.7891 39.2192 22.7635 37.493 21.5569 33.894C20.3504 30.2949 21.5513 28.757 21.5513 28.757C19.1327 22.4003 23.2974 18.5754 23.2974 18.5754C31.0218 11.0761 41.2753 15.0893 42.9277 19.3829C44.759 23.6462 45.735 28.2308 45.7998 32.8737C45.8279 38.0295 43.1151 41.6304 40.8313 42.6149C39.6435 43.2229 36.6816 43.0817 36.6816 43.0817C36.6816 43.0817 35.7148 46.6996 37.2436 49.4554Z" fill="#EB8682"/>
<path opacity="0.4" d="M36.6384 42.9368C36.457 44.2179 36.176 46.1002 36.6384 47.6061C34.9242 47.1977 30.085 43.8366 30.085 41.1072C32.2023 41.9381 34.398 42.5511 36.6384 42.9368Z" fill="#050504"/>
<path d="M23.759 29.8179C23.0283 30.0174 22.5299 31.1261 23.1107 32.3214" stroke="#050504" stroke-width="0.565263" stroke-linecap="round"/>
<path d="M8.8789 56.2819C8.7189 57.5957 8.28408 66.9058 9.38902 70.4466H51.2901C52.5682 67.16 52.1409 60.9407 52.0431 57.3153C52.0092 56.0428 51.6195 53.7068 49.3287 52.8428C48.0498 52.3809 41.5062 51.559 38.118 48.8296L31.4356 52.0296L24.3768 48.0767C21.332 49.9691 14.1723 51.178 12.926 51.4913C9.65631 52.3026 9.0389 54.968 8.8789 56.2819Z" fill="#A2BFF8" stroke="#050504" stroke-width="0.565263" stroke-linecap="round" stroke-linejoin="round"/>
<path d="M28.6401 51.8112C25.4401 50.9321 24.4556 49.4846 23.6914 48.3702C23.9531 47.2107 24.0943 45.6295 25.5061 44.9707C23.0591 46.2884 25.5041 47.19 29.9672 48.1142L28.6401 51.8112Z" fill="#E5ECF9"/>
<path d="M34.7145 51.3444C37.9145 50.4653 37.7432 49.9514 38.1836 49.3717C38.1836 47.9881 38.082 46.1415 36.6891 45.5938C38.7465 46.6554 37.5606 47.5891 33.1898 48.1142L34.7145 51.3444Z" fill="#E5ECF9"/>
<path d="M28.6401 51.8112C25.4401 50.9321 24.4556 49.4846 23.6914 48.3702C23.9531 47.2107 24.0943 45.6295 25.5061 44.9707C23.0591 46.2884 25.5041 47.19 29.9672 48.1142L28.6401 51.8112Z" stroke="#050504" stroke-width="0.565263" stroke-linecap="round" stroke-linejoin="round"/>
<path d="M34.7145 51.3444C37.9145 50.4653 37.7432 49.9514 38.1836 49.3717C38.1836 47.9881 38.082 46.1415 36.6891 45.5938C38.7465 46.6554 37.5606 47.5891 33.1898 48.1142L34.7145 51.3444Z" stroke="#050504" stroke-width="0.565263" stroke-linecap="round" stroke-linejoin="round"/>
<path d="M26.0707 46.8532L25.7884 44.8767C25.3145 44.9126 24.4707 45.4898 24.4707 46.0061C24.4707 46.5224 25.6285 46.8173 26.0707 46.8532Z" fill="#050504"/>
<path d="M36.0472 47.4179L36.4236 45.6297C36.8975 45.6655 37.6472 45.9604 37.6472 46.4767C37.6472 46.993 36.4894 47.382 36.0472 47.4179Z" fill="#050504"/>
<g opacity="0.2">
<path d="M32.8474 48.0767L34.4474 50.6969L32.9679 51.3275L32.0794 51.687L32.8474 48.0767Z" fill="#050504"/>
<path d="M30.3063 48.0767L31.0592 51.6531L29.606 50.9755L28.9189 50.599L30.3063 48.0767Z" fill="#050504"/>
</g>
<path d="M29.2157 34.7754C28.2605 32.9654 28.2642 32.6041 27.729 30.6318C27.4763 29.6899 27.1511 28.7683 27.2886 27.7637C27.5896 25.5647 28.6916 23.9076 30.7618 22.8957C32.3934 22.0957 34.1476 21.7086 35.9521 21.504C37.6736 21.2827 39.4223 21.4042 41.0959 21.8616C41.9303 22.0994 42.7442 22.4146 43.5693 22.6726C43.9075 22.7832 44.2922 22.8901 44.5784 22.6266C45.1861 22.0644 45.4797 20.2653 45.6934 19.4248C46.1505 17.8636 46.3958 16.3834 45.8179 15.0231C45.4165 14.0757 44.7493 13.3642 43.6678 13.1301C42.7924 12.9136 41.8736 12.9429 41.0141 13.2149C40.7763 13.2923 40.6889 13.2149 40.6425 13.0066C40.5681 12.6711 40.4313 12.3523 40.2392 12.0665C38.8455 9.87676 35.7031 9.3588 33.6385 10.9938C33.3783 11.1984 33.2984 11.1633 33.1293 10.9016C32.8846 10.5034 32.5535 10.1644 32.16 9.90933C31.7665 9.65423 31.3206 9.48945 30.8547 9.427C29.9672 9.29456 29.0641 9.3014 28.1787 9.44728C26.4449 9.72192 25.1664 10.5256 24.6479 12.2324C24.6426 12.2774 24.6277 12.3208 24.6043 12.3597C24.5809 12.3986 24.5496 12.4322 24.5122 12.4583C24.4749 12.4844 24.4324 12.5024 24.3876 12.5111C24.3428 12.5198 24.2966 12.5191 24.2521 12.5089C23.658 12.4603 23.0607 12.5493 22.5071 12.7688C19.9241 13.8232 18.1698 15.5724 17.6198 18.2986C17.3968 19.4045 17.3763 20.5105 17.9264 21.5464C18.0583 21.7989 17.9989 21.8856 17.7629 22.0164C15.1984 23.4321 13.9961 26.4624 14.9494 29.1056C15.4214 30.4161 16.6014 31.6862 18.4003 31.653C18.6363 31.653 18.6846 31.7728 18.7533 31.9479C19.2347 33.2013 18.863 35.9459 19.4799 37.1496C20.2902 38.7255 20.5949 39.1864 21.7991 40.4914C22.2972 41.0351 22.8509 41.2932 23.7466 41.0609C24.4528 40.6923 25.1311 40.4232 25.5697 39.872C25.6904 39.6969 25.6884 39.4826 25.681 39.1933C25.3508 38.9826 25.1419 38.8026 24.8448 38.5481C23.8617 37.8108 22.4384 36.1132 21.7991 34.493C21.3643 33.5492 20.7176 31.0613 21.0893 29.8355C21.4814 28.5452 22.1113 28.042 22.6001 27.8835C23.0283 27.7166 23.4861 27.6374 23.946 27.6507C24.4059 27.664 24.8584 27.7695 25.276 27.9609C26.1736 28.5139 26.2665 28.8918 26.6475 29.9885C27.0897 32.429 27.1567 34.1616 27.69 36.497C27.926 37.533 28.1825 38.5707 28.2661 39.6306C28.3125 40.2278 28.6061 40.5264 29.0782 40.79C29.8103 41.198 30.5592 41.5758 31.3249 41.9236C33.0661 42.7217 34.8705 43.306 36.8162 43.2987C38.6113 43.2987 40.4065 43.3318 42.2053 43.3687C42.6996 43.3687 43.1921 43.3687 43.692 43.3687C43.9507 43.3822 44.2069 43.3121 44.4221 43.1689C44.6372 43.0256 44.7997 42.8169 44.885 42.5743C45.0125 42.2565 45.1096 41.9276 45.1749 41.5918C45.4722 40.1836 45.7658 38.7747 46.0557 37.3652C46.2323 36.5155 46.4125 34.7847 46.2527 33.9146C46.2332 33.7727 46.163 33.6424 46.0549 33.5474C45.9469 33.4524 45.808 33.3989 45.6636 33.3967C45.3013 33.3543 45.0764 33.581 44.8497 33.7875C44.1064 34.4897 43.3537 35.1957 42.419 35.6786C41.1293 36.3459 39.7337 36.6758 38.3103 36.8915C34.0157 37.3173 31.1242 36.9597 29.2157 34.7754Z" fill="#050504"/>
<path d="M39.6687 30.2805C39.6061 30.1375 39.4394 30.0723 39.2964 30.135C39.1535 30.1976 39.0883 30.3643 39.151 30.5073L39.6687 30.2805ZM39.7516 35.1373C39.6091 35.201 39.5453 35.3681 39.609 35.5106C39.6727 35.6531 39.8398 35.717 39.9823 35.6533L39.7516 35.1373ZM30.9186 26.1365C30.818 26.2558 30.8333 26.4341 30.9527 26.5347C31.0721 26.6353 31.2504 26.62 31.3509 26.5006L30.9186 26.1365ZM35.2358 24.5491L35.2835 24.2705L35.2815 24.2702L35.2358 24.5491ZM35.7538 24.9797C35.9001 25.0341 36.0628 24.9595 36.1171 24.8132C36.1715 24.6668 36.0969 24.5042 35.9506 24.4498L35.7538 24.9797ZM40.0547 24.9336C39.9395 25.039 39.9316 25.2178 40.037 25.3329C40.1424 25.4481 40.3212 25.456 40.4364 25.3506L40.0547 24.9336ZM44.0374 24.2517L44.1563 23.9953L44.156 23.9952L44.0374 24.2517ZM44.36 24.7729C44.4846 24.8669 44.6618 24.8421 44.7558 24.7175C44.8498 24.5929 44.825 24.4156 44.7004 24.3216L44.36 24.7729ZM39.4099 30.3939C39.151 30.5073 39.151 30.5073 39.151 30.5073C39.151 30.5073 39.151 30.5074 39.151 30.5074C39.1511 30.5075 39.1511 30.5077 39.1512 30.5079C39.1514 30.5083 39.1517 30.509 39.1521 30.5098C39.1528 30.5116 39.154 30.5141 39.1555 30.5176C39.1585 30.5244 39.1629 30.5346 39.1688 30.548C39.1804 30.5747 39.1975 30.6139 39.2193 30.6641C39.2629 30.7643 39.3251 30.9081 39.3999 31.082C39.5494 31.43 39.7486 31.8979 39.9478 32.3787C40.1471 32.8601 40.3454 33.352 40.4935 33.7486C40.5676 33.9472 40.628 34.1188 40.6694 34.2517C40.6902 34.3183 40.7053 34.3721 40.7148 34.4129C40.7257 34.4591 40.7253 34.4715 40.7253 34.4635H41.2906C41.2906 34.4028 41.2777 34.3373 41.2651 34.2838C41.2513 34.2248 41.232 34.1569 41.2091 34.0834C41.1631 33.9361 41.0987 33.7535 41.023 33.5509C40.8714 33.1449 40.6702 32.6458 40.47 32.1624C40.2696 31.6785 40.0693 31.2081 39.9192 30.8588C39.8441 30.6842 39.7816 30.5397 39.7377 30.4388C39.7158 30.3884 39.6986 30.3488 39.6868 30.3219C39.681 30.3084 39.6764 30.2981 39.6734 30.2911C39.6719 30.2876 39.6707 30.285 39.6699 30.2832C39.6695 30.2823 39.6692 30.2816 39.669 30.2812C39.6689 30.2809 39.6689 30.2808 39.6688 30.2806C39.6688 30.2806 39.6688 30.2805 39.6688 30.2805C39.6687 30.2805 39.6687 30.2805 39.4099 30.3939ZM40.7253 34.4635C40.7253 34.4497 40.7266 34.4902 40.6297 34.5873C40.5441 34.6729 40.4215 34.7633 40.2865 34.8486C40.1536 34.9325 40.0192 35.0051 39.9171 35.0571C39.8663 35.0829 39.8242 35.1033 39.7951 35.1171C39.7805 35.124 39.7692 35.1292 39.7618 35.1326C39.7581 35.1343 39.7553 35.1356 39.7536 35.1364C39.7528 35.1367 39.7522 35.137 39.7518 35.1372C39.7517 35.1372 39.7515 35.1373 39.7515 35.1373C39.7515 35.1373 39.7515 35.1373 39.7515 35.1373C39.7515 35.1373 39.7516 35.1373 39.7516 35.1373C39.7516 35.1373 39.7516 35.1373 39.867 35.3953C39.9823 35.6533 39.9824 35.6533 39.9824 35.6532C39.9825 35.6532 39.9825 35.6532 39.9825 35.6532C39.9826 35.6532 39.9827 35.6531 39.9829 35.6531C39.9831 35.6529 39.9834 35.6528 39.9838 35.6526C39.9846 35.6523 39.9856 35.6518 39.9869 35.6512C39.9895 35.6501 39.9931 35.6484 39.9978 35.6463C40.0071 35.642 40.0203 35.6359 40.037 35.628C40.0702 35.6122 40.1172 35.5895 40.1734 35.5609C40.2852 35.504 40.436 35.4227 40.5884 35.3264C40.7387 35.2315 40.9013 35.1152 41.0297 34.9867C41.1466 34.8695 41.2906 34.6881 41.2906 34.4635H40.7253ZM31.3509 26.5006C32.3784 25.2809 33.8539 24.6092 35.1901 24.8281L35.2815 24.2702C33.6989 24.011 32.0381 24.8075 30.9186 26.1365L31.3509 26.5006ZM35.1882 24.8277C35.381 24.8607 35.5703 24.9116 35.7538 24.9797L35.9506 24.4498C35.7342 24.3695 35.5109 24.3095 35.2835 24.2706L35.1882 24.8277ZM40.4364 25.3506C41.5222 24.3565 42.8621 24.0199 43.9189 24.5083L44.156 23.9952C42.826 23.3805 41.247 23.842 40.0547 24.9336L40.4364 25.3506ZM43.9185 24.5081C44.0745 24.5805 44.2225 24.6692 44.36 24.7729L44.7004 24.3216C44.531 24.1939 44.3486 24.0845 44.1563 23.9953L43.9185 24.5081Z" fill="#050504"/>
<path d="M36.1934 37.5566C36.752 38.8631 38.6849 39.177 39.5656 39.0288" stroke="white" stroke-width="0.565263" stroke-miterlimit="10" stroke-linecap="round"/>
<path d="M35.1592 31.1808C35.7428 31.1808 36.2158 30.5319 36.2158 29.7314C36.2158 28.9309 35.7428 28.282 35.1592 28.282C34.5756 28.282 34.1025 28.9309 34.1025 29.7314C34.1025 30.5319 34.5756 31.1808 35.1592 31.1808Z" fill="#050504"/>
<path d="M35.8541 29.208C35.5712 28.1313 34.1567 27.9637 33.1338 28.8597" stroke="#050504" stroke-width="0.565263" stroke-linecap="round"/>
<path d="M43.4248 30.6574C44.0084 30.6574 44.4815 30.0084 44.4815 29.208C44.4815 28.4075 44.0084 27.7585 43.4248 27.7585C42.8412 27.7585 42.3682 28.4075 42.3682 29.208C42.3682 30.0084 42.8412 30.6574 43.4248 30.6574Z" fill="#050504"/>
<path d="M44.1197 28.6848C43.8368 27.6081 42.4223 27.4405 41.3994 28.3365" stroke="#050504" stroke-width="0.565263" stroke-linecap="round"/>
<path d="M30.5213 9.03652C26.5994 9.31381 17.0648 10.649 17.3225 14.3427C17.5802 18.0366 29.0598 17.6395 31.1097 17.4939C33.1597 17.3484 44.6833 16.2461 44.4188 12.4257C44.1932 9.21962 36.2577 8.63089 30.5213 9.03652ZM30.9182 15.8833C25.1614 16.2907 18.9741 15.3081 18.891 14.1236C18.8079 12.9392 24.6816 11.1709 30.5688 10.7534C36.5138 10.3271 42.6638 11.1231 42.7553 12.4411C42.8469 13.7591 36.6731 15.4793 30.9182 15.8867V15.8833Z" fill="#69F0ED"/>
</g>
<path d="M32 63.6996C14.6391 63.6996 0.565263 49.6258 0.565263 32.2649H-0.565263C-0.565263 50.2502 14.0147 64.8302 32 64.8302V63.6996ZM63.4347 32.2649C63.4347 49.6258 49.3609 63.6996 32 63.6996V64.8302C49.9853 64.8302 64.5653 50.2502 64.5653 32.2649H63.4347ZM32 0.830155C49.3609 0.830155 63.4347 14.904 63.4347 32.2649H64.5653C64.5653 14.2796 49.9853 -0.30037 32 -0.30037V0.830155ZM32 -0.30037C14.0147 -0.30037 -0.565263 14.2796 -0.565263 32.2649H0.565263C0.565263 14.904 14.6391 0.830155 32 0.830155V-0.30037Z" fill="#050504"/>
<defs>
<clipPath id="clip0_550:5061">
<path d="M0 32.2649C0 14.5918 14.3269 0.264893 32 0.264893C49.6731 0.264893 64 14.5918 64 32.2649C64 49.938 49.6731 64.2649 32 64.2649C14.3269 64.2649 0 49.938 0 32.2649Z" fill="white"/>
</clipPath>
</defs>
</svg>

