<svg width="65" height="64" viewBox="0 0 65 64" fill="none" xmlns="http://www.w3.org/2000/svg">
<g clip-path="url(#clip0_550:5063)">
<path d="M0.979492 32C0.979492 14.3269 15.3064 0 32.9795 0V0C50.6526 0 64.9795 14.3269 64.9795 32V32C64.9795 49.6731 50.6526 64 32.9795 64V64C15.3064 64 0.979492 49.6731 0.979492 32V32Z" fill="white"/>
<rect x="0.979492" width="64" height="64" fill="#E5ECF9"/>
<circle cx="32.9795" cy="32" r="30.1158" stroke="white" stroke-width="3.76842"/>
<path d="M37.6601 42.8168C36.2943 42.7754 32.242 41.4823 31.4364 40.8855L37.6601 42.8168Z" fill="#F1CF73"/>
<path d="M38.2221 49.1905C40.7419 52.7199 48.8895 53.7676 50.2796 54.272C52.5597 55.136 52.9475 57.472 52.9812 58.7445C53.0786 62.3699 53.5039 68.5892 52.2318 71.8758" fill="#F1CF73"/>
<path d="M38.2221 49.1905C36.6934 46.4347 37.6601 42.8168 37.6601 42.8168C37.6601 42.8168 40.622 42.958 41.8098 42.35C44.0936 41.3656 46.8064 37.7646 46.7783 32.6088C46.7135 27.9659 45.7376 23.3814 43.9063 19.118C42.2538 14.8244 32.0003 10.8112 24.2759 18.3105C24.2759 18.3105 20.1112 22.1354 22.5298 28.4921" fill="#F1CF73"/>
<path d="M10.5282 71.8758C9.42842 68.3351 9.8612 59.025 10.0204 57.7111C10.1797 56.3972 10.7942 53.7318 14.0484 52.9205C15.4873 52.5572 24.497 51.0936 26.3255 48.5543" fill="#F1CF73"/>
<path d="M26.7676 38.9543C26.7676 38.9543 23.742 37.2281 22.5354 33.6291C21.3289 30.03 22.5298 28.4921 22.5298 28.4921C23.4984 27.0408 27.3522 26.6851 27.3522 31.0634" fill="#F1CF73"/>
<path d="M26.7676 38.9543C26.9981 43.5284 27.0562 45.6272 26.3255 48.5543L26.7676 38.9543Z" fill="#F1CF73"/>
<path d="M38.2221 49.1905C40.7419 52.7199 48.8895 53.7676 50.2796 54.272C52.5597 55.136 52.9475 57.472 52.9812 58.7445C53.0786 62.3699 53.5039 68.5892 52.2318 71.8758H10.5282C9.42842 68.3351 9.8612 59.025 10.0204 57.7111C10.1797 56.3972 10.7942 53.7318 14.0484 52.9205C15.4873 52.5572 24.497 51.0936 26.3255 48.5543C27.0562 45.6272 26.9981 43.5284 26.7676 38.9543C26.7676 38.9543 23.742 37.2281 22.5354 33.6291C21.3289 30.03 22.5298 28.4921 22.5298 28.4921C20.1112 22.1354 24.2759 18.3105 24.2759 18.3105C32.0003 10.8112 42.2538 14.8244 43.9063 19.118C45.7376 23.3814 46.7135 27.9659 46.7783 32.6088C46.8064 37.7646 44.0936 41.3656 41.8098 42.35C40.622 42.958 37.6601 42.8168 37.6601 42.8168C37.6601 42.8168 36.6934 46.4347 38.2221 49.1905Z" fill="#F1CF73"/>
<path opacity="0.4" d="M37.6169 42.6719C37.4355 43.953 37.1545 45.8354 37.6169 47.3412C35.9027 46.9328 31.0635 43.5717 31.0635 40.8423C33.1808 41.6732 35.3765 42.2862 37.6169 42.6719Z" fill="#050504"/>
<path d="M24.7375 29.553C24.0068 29.7525 23.5085 30.8612 24.0892 32.0565" stroke="#050504" stroke-width="0.565263" stroke-linecap="round"/>
<path d="M24.0937 27.3875C25.8892 27.1759 27.0936 27.9027 27.5772 29.0435C28.0238 30.107 27.8607 32.0592 29.6043 30.981C31.1867 30.0039 29.9119 26.8539 29.2727 25.3009C32.9563 24.587 33.2676 22.2428 33.2676 22.2428C34.95 22.8059 38.3261 21.7773 38.5058 20.7984C40.2596 21.4518 42.7257 21.455 44.4817 20.8076C45.082 21.6632 44.8375 22.2428 45.3339 23.1421C48.4505 22.2221 50.2126 16.537 45.2468 14.099C45.8156 11.442 41.7632 9.5266 39.8955 11.4862C39.5008 8.43732 34.3367 8.395 33.6233 10.6637C31.9983 8.98196 26.7675 9.50084 26.4321 12.4798C24.116 11.3997 20.9122 14.41 21.4774 17.0596C18.7943 17.4699 18.4275 18.6254 19.0964 21.0523C16.6505 23.3395 17.0378 26.0019 19.2817 27.6414C18.2885 29.5531 20.7917 32.2262 22.2796 32.9861C21.3532 29.2141 22.4131 27.7334 24.0937 27.3875Z" fill="#2E1701"/>
<path d="M40.6482 30.0156C40.5856 29.8726 40.4189 29.8075 40.2759 29.8701C40.133 29.9327 40.0678 30.0994 40.1305 30.2424L40.6482 30.0156ZM40.7311 34.8724C40.5886 34.9361 40.5247 35.1032 40.5885 35.2457C40.6522 35.3882 40.8193 35.4521 40.9618 35.3884L40.7311 34.8724ZM31.8981 25.8716C31.7975 25.991 31.8128 26.1693 31.9322 26.2698C32.0515 26.3704 32.2299 26.3551 32.3304 26.2358L31.8981 25.8716ZM36.2153 24.2842L36.263 24.0057L36.261 24.0053L36.2153 24.2842ZM36.7333 24.7148C36.8796 24.7692 37.0423 24.6946 37.0966 24.5483C37.151 24.402 37.0764 24.2393 36.9301 24.1849L36.7333 24.7148ZM41.0342 24.6687C40.919 24.7741 40.9111 24.9529 41.0165 25.068C41.1219 25.1832 41.3007 25.1911 41.4158 25.0857L41.0342 24.6687ZM45.0169 23.9868L45.1358 23.7304L45.1355 23.7303L45.0169 23.9868ZM45.3394 24.508C45.4641 24.602 45.6413 24.5772 45.7353 24.4526C45.8293 24.328 45.8045 24.1507 45.6799 24.0567L45.3394 24.508ZM40.3893 30.129C40.1305 30.2424 40.1305 30.2424 40.1305 30.2424C40.1305 30.2424 40.1305 30.2425 40.1305 30.2425C40.1306 30.2426 40.1306 30.2428 40.1307 30.243C40.1309 30.2434 40.1312 30.2441 40.1316 30.2449C40.1323 30.2467 40.1335 30.2492 40.135 30.2527C40.138 30.2595 40.1424 30.2697 40.1483 30.2831C40.1599 30.3098 40.177 30.349 40.1988 30.3992C40.2424 30.4995 40.3046 30.6433 40.3794 30.8172C40.5289 31.1651 40.7281 31.633 40.9273 32.1138C41.1266 32.5952 41.3249 33.0871 41.4729 33.4837C41.5471 33.6823 41.6075 33.8539 41.6489 33.9868C41.6697 34.0534 41.6847 34.1072 41.6943 34.148C41.7052 34.1942 41.7048 34.2067 41.7048 34.1986H42.2701C42.2701 34.1379 42.2572 34.0724 42.2446 34.0189C42.2308 33.9599 42.2115 33.892 42.1886 33.8185C42.1426 33.6712 42.0782 33.4886 42.0025 33.286C41.8509 32.88 41.6497 32.3809 41.4495 31.8975C41.2491 31.4136 41.0488 30.9432 40.8987 30.594C40.8236 30.4193 40.7611 30.2748 40.7172 30.1739C40.6953 30.1235 40.6781 30.0839 40.6663 30.057C40.6605 30.0435 40.6559 30.0332 40.6529 30.0262C40.6514 30.0227 40.6502 30.0201 40.6494 30.0183C40.649 30.0174 40.6487 30.0167 40.6485 30.0163C40.6484 30.016 40.6484 30.0159 40.6483 30.0157C40.6483 30.0157 40.6483 30.0156 40.6482 30.0156C40.6482 30.0156 40.6482 30.0156 40.3893 30.129ZM41.7048 34.1986C41.7048 34.1848 41.7061 34.2253 41.6092 34.3224C41.5236 34.4081 41.401 34.4984 41.266 34.5837C41.1331 34.6676 40.9987 34.7402 40.8966 34.7922C40.8458 34.818 40.8037 34.8384 40.7745 34.8522C40.76 34.8591 40.7487 34.8643 40.7413 34.8677C40.7376 34.8694 40.7348 34.8707 40.7331 34.8715C40.7323 34.8719 40.7316 34.8721 40.7313 34.8723C40.7311 34.8724 40.731 34.8724 40.731 34.8724C40.731 34.8724 40.731 34.8724 40.731 34.8724C40.731 34.8724 40.731 34.8724 40.7311 34.8724C40.7311 34.8724 40.7311 34.8724 40.8465 35.1304C40.9618 35.3884 40.9619 35.3884 40.9619 35.3884C40.9619 35.3883 40.962 35.3883 40.962 35.3883C40.9621 35.3883 40.9622 35.3882 40.9624 35.3882C40.9626 35.3881 40.9629 35.3879 40.9633 35.3877C40.9641 35.3874 40.9651 35.3869 40.9664 35.3863C40.969 35.3852 40.9726 35.3835 40.9773 35.3814C40.9866 35.3771 40.9998 35.371 41.0165 35.3631C41.0497 35.3473 41.0967 35.3246 41.1529 35.296C41.2647 35.2391 41.4155 35.1578 41.5679 35.0615C41.7182 34.9666 41.8808 34.8504 42.0091 34.7218C42.1261 34.6047 42.2701 34.4232 42.2701 34.1986H41.7048ZM32.3304 26.2358C33.3579 25.016 34.8334 24.3443 36.1696 24.5632L36.261 24.0053C34.6784 23.7461 33.0176 24.5426 31.8981 25.8716L32.3304 26.2358ZM36.1676 24.5628C36.3605 24.5958 36.5498 24.6467 36.7333 24.7148L36.9301 24.1849C36.7137 24.1046 36.4904 24.0446 36.263 24.0057L36.1676 24.5628ZM41.4158 25.0857C42.5017 24.0916 43.8416 23.755 44.8984 24.2434L45.1355 23.7303C43.8055 23.1156 42.2265 23.5771 41.0342 24.6687L41.4158 25.0857ZM44.898 24.2432C45.054 24.3156 45.202 24.4043 45.3394 24.508L45.6799 24.0567C45.5105 23.929 45.3281 23.8196 45.1358 23.7304L44.898 24.2432Z" fill="#050504"/>
<path d="M37.1729 37.2917C37.7315 38.5982 39.6643 38.9121 40.5451 38.7639" stroke="#050504" stroke-width="0.565263" stroke-miterlimit="10" stroke-linecap="round"/>
<path d="M36.1387 30.9159C36.7222 30.9159 37.1953 30.267 37.1953 29.4665C37.1953 28.666 36.7222 28.0171 36.1387 28.0171C35.5551 28.0171 35.082 28.666 35.082 29.4665C35.082 30.267 35.5551 30.9159 36.1387 30.9159Z" fill="#2E1701"/>
<path d="M36.8336 28.9431C36.5507 27.8664 35.1362 27.6988 34.1133 28.5948" stroke="#050504" stroke-width="0.565263" stroke-linecap="round"/>
<path d="M44.4043 30.3925C44.9879 30.3925 45.4609 29.7436 45.4609 28.9431C45.4609 28.1426 44.9879 27.4937 44.4043 27.4937C43.8207 27.4937 43.3477 28.1426 43.3477 28.9431C43.3477 29.7436 43.8207 30.3925 44.4043 30.3925Z" fill="#2E1701"/>
<path d="M45.0992 28.4199C44.8163 27.3432 43.4018 27.1757 42.3789 28.0717" stroke="#050504" stroke-width="0.565263" stroke-linecap="round"/>
<path d="M9.85741 57.8053C9.69741 59.1192 9.26259 68.4293 10.3675 71.97H52.2686C53.5468 68.6834 53.1195 62.4641 53.0216 58.8387C52.9877 57.5662 52.5981 55.2302 50.3072 54.3662C49.0283 53.9043 42.4848 53.0825 39.0965 50.353L32.2259 50.9177L25.3553 49.6001C22.3105 51.4926 15.1508 52.7015 13.9045 53.0147C10.6348 53.826 10.0174 56.4914 9.85741 57.8053Z" fill="#8CB2A5" stroke="#050504" stroke-width="0.565263" stroke-linecap="round" stroke-linejoin="round"/>
<path d="M30.4589 53.4645L25.209 50.1535C25.8034 48.9258 26.2113 47.6164 26.4193 46.2683L32.7271 49.8693L37.8245 46.8198C38.1088 48.2655 38.536 49.4815 39.129 50.4321L34.7619 52.9958L32.7271 49.8693L30.4589 53.4645Z" fill="#E3F0DF" stroke="#050504" stroke-width="0.565263" stroke-linecap="round" stroke-linejoin="round"/>
<path d="M32.7272 49.8691L34.762 52.9957C36.1211 58.592 37.962 66.0273 38.3555 72.384L34.9672 75.6273L31.7371 72.8338C31.5959 66.9289 31.6016 59.4409 30.459 53.4701L32.7272 49.8691Z" fill="white" stroke="#050504" stroke-width="0.565263" stroke-linecap="round" stroke-linejoin="round"/>
<path opacity="0.2" d="M32.7272 49.8655L34.5173 52.6137L30.7451 54.3172L30.459 53.4645L32.7272 49.8655Z" fill="#050504"/>
<path d="M38.6674 29.2011C38.6674 29.3572 38.7939 29.4837 38.95 29.4837C39.1061 29.4837 39.2326 29.3572 39.2326 29.2011H38.6674ZM41.5656 28.8905C41.5656 29.0466 41.6922 29.1731 41.8483 29.1731C42.0044 29.1731 42.1309 29.0466 42.1309 28.8905H41.5656ZM33.1715 29.3181C33.3203 29.3651 33.4791 29.2825 33.526 29.1336C33.573 28.9848 33.4904 28.826 33.3415 28.7791L33.1715 29.3181ZM23.1697 27.5747L23.2911 27.8301L23.3001 27.8254L23.1697 27.5747ZM21.393 30.576C21.4215 30.7295 21.5691 30.8308 21.7225 30.8022C21.876 30.7737 21.9773 30.6262 21.9488 30.4727L21.393 30.576ZM38.6674 29.0486C38.6674 30.7508 37.4825 32.0582 36.1042 32.0582V32.6235C37.8692 32.6235 39.2326 30.9829 39.2326 29.0486H38.6674ZM36.1042 32.0582C34.7258 32.0582 33.541 30.7508 33.541 29.0486H32.9757C32.9757 30.9829 34.3391 32.6235 36.1042 32.6235V32.0582ZM33.541 29.0486C33.541 27.3464 34.7258 26.039 36.1042 26.039V25.4737C34.3391 25.4737 32.9757 27.1143 32.9757 29.0486H33.541ZM36.1042 26.039C37.4825 26.039 38.6674 27.3464 38.6674 29.0486H39.2326C39.2326 27.1143 37.8692 25.4737 36.1042 25.4737V26.039ZM47.2311 28.4124C47.2311 30.1146 46.0462 31.422 44.6679 31.422V31.9872C46.4329 31.9872 47.7963 30.3466 47.7963 28.4124H47.2311ZM44.6679 31.422C43.2895 31.422 42.1047 30.1146 42.1047 28.4124H41.5394C41.5394 30.3466 42.9028 31.9872 44.6679 31.9872V31.422ZM42.1047 28.4124C42.1047 26.7101 43.2895 25.4027 44.6679 25.4027V24.8375C42.9028 24.8375 41.5394 26.4781 41.5394 28.4124H42.1047ZM44.6679 25.4027C46.0462 25.4027 47.2311 26.7101 47.2311 28.4124H47.7963C47.7963 26.4781 46.4329 24.8375 44.6679 24.8375V25.4027ZM39.2326 29.2011C39.2326 28.9935 39.3406 28.8238 39.5545 28.6877C39.7747 28.5477 40.0867 28.4606 40.4163 28.4406C40.7461 28.4206 41.0598 28.4697 41.2789 28.5689C41.5 28.669 41.5656 28.7858 41.5656 28.8905H42.1309C42.1309 28.4709 41.8342 28.1997 41.512 28.0539C41.1876 27.9071 40.7768 27.8524 40.382 27.8764C39.987 27.9004 39.5744 28.0052 39.2512 28.2107C38.9217 28.4202 38.6674 28.7498 38.6674 29.2011H39.2326ZM33.2565 29.0486C33.3415 28.7791 33.3415 28.779 33.3414 28.779C33.3413 28.779 33.3412 28.7789 33.3411 28.7789C33.3408 28.7788 33.3404 28.7787 33.3399 28.7785C33.3388 28.7782 33.3373 28.7777 33.3353 28.7771C33.3313 28.7758 33.3253 28.774 33.3176 28.7715C33.302 28.7667 33.279 28.7595 33.249 28.7503C33.189 28.7318 33.1009 28.7048 32.9883 28.671C32.763 28.6033 32.4392 28.5078 32.0445 28.3967C31.2552 28.1745 30.1806 27.8891 29.0406 27.6369C27.9022 27.385 26.6914 27.1646 25.6319 27.0747C25.1022 27.0298 24.604 27.0169 24.168 27.0509C23.7361 27.0846 23.3434 27.1657 23.0392 27.324L23.3001 27.8254C23.5069 27.7178 23.8127 27.6456 24.2119 27.6145C24.607 27.5837 25.0724 27.5945 25.5842 27.6379C26.6076 27.7247 27.7908 27.9393 28.9185 28.1888C30.0448 28.438 31.1086 28.7204 31.8913 28.9408C32.2825 29.0509 32.603 29.1454 32.8256 29.2123C32.9368 29.2458 33.0236 29.2723 33.0824 29.2904C33.1118 29.2995 33.1342 29.3065 33.1492 29.3111C33.1567 29.3135 33.1623 29.3152 33.166 29.3164C33.1679 29.317 33.1693 29.3174 33.1702 29.3177C33.1707 29.3179 33.171 29.318 33.1712 29.318C33.1713 29.3181 33.1714 29.3181 33.1714 29.3181C33.1715 29.3181 33.1715 29.3181 33.2565 29.0486ZM23.0483 27.3195C22.4528 27.6027 21.9676 28.0759 21.6683 28.665L22.1722 28.9211C22.4151 28.4429 22.8087 28.0594 23.2911 27.8299L23.0483 27.3195ZM21.6683 28.665C21.3689 29.2541 21.2722 29.926 21.393 30.576L21.9488 30.4727C21.8506 29.9448 21.9292 29.3992 22.1722 28.9211L21.6683 28.665Z" fill="white"/>
<path d="M32.6297 8.77188C28.7078 9.04916 19.1732 10.3843 19.4309 14.0781C19.6886 17.7719 31.1681 17.3748 33.2181 17.2293C35.2681 17.0838 46.7917 15.9815 46.5272 12.161C46.3016 8.95497 38.3661 8.36624 32.6297 8.77188ZM33.0266 15.6187C27.2698 16.026 21.0825 15.0435 20.9994 13.859C20.9163 12.6745 26.79 10.9063 32.6772 10.4887C38.6222 10.0625 44.7722 10.8585 44.8637 12.1764C44.9553 13.4944 38.7815 15.2147 33.0266 15.622V15.6187Z" fill="#69F0ED"/>
<g clip-path="url(#clip1_550:5063)">
<path d="M32.8669 32.1752C33.4721 35.3319 33.1648 38.6618 32.1719 42.1216C37.7736 44.258 41.7997 44.5103 44.3926 41.5569C47.4988 37.8938 47.6019 35.5333 47.2571 31.8552C45.3331 33.4458 39.9749 33.2632 32.8669 32.1752Z" fill="#8EB2F8"/>
<path d="M33.0936 32.5855C32.0088 31.9586 26.3378 28.3935 25.7289 28.177C23.8142 27.4956 21.4536 29.1859 22.1955 32.2579C23.0536 35.8024 24.3556 37.3403 25.5228 38.3285C26.69 39.3168 32.4791 41.8335 32.4791 41.8335" stroke="#8EB2F8" stroke-width="0.753684" stroke-linecap="round" stroke-linejoin="round"/>
<path opacity="0.4" d="M32.8669 32.1752C33.4721 35.3319 33.1648 38.6618 32.1719 42.1216C37.7736 44.258 41.7997 44.5103 44.3926 41.5569C47.4988 37.8938 47.6019 35.5333 47.2571 31.8552C45.3331 33.4458 39.9749 33.2632 32.8669 32.1752Z" fill="#8EB2F8"/>
<path opacity="0.4" d="M32.7658 31.9626C33.4063 35.2418 33.2502 38.628 32.3105 41.8336C37.9104 43.972 41.6986 44.2958 44.2915 41.3442C47.3977 37.6793 47.5157 35.2567 47.171 31.5842C45.2451 33.1805 39.8738 33.0525 32.7658 31.9626Z" fill="#8EB2F8"/>
</g>
</g>
<path d="M32.9795 63.4347C15.6186 63.4347 1.54476 49.3609 1.54476 32H0.414229C0.414229 49.9853 14.9942 64.5653 32.9795 64.5653V63.4347ZM64.4142 32C64.4142 49.3609 50.3404 63.4347 32.9795 63.4347V64.5653C50.9648 64.5653 65.5448 49.9853 65.5448 32H64.4142ZM32.9795 0.565263C50.3404 0.565263 64.4142 14.6391 64.4142 32H65.5448C65.5448 14.0147 50.9648 -0.565263 32.9795 -0.565263V0.565263ZM32.9795 -0.565263C14.9942 -0.565263 0.414229 14.0147 0.414229 32H1.54476C1.54476 14.6391 15.6186 0.565263 32.9795 0.565263V-0.565263Z" fill="#050504"/>
<defs>
<clipPath id="clip0_550:5063">
<path d="M0.979492 32C0.979492 14.3269 15.3064 0 32.9795 0V0C50.6526 0 64.9795 14.3269 64.9795 32V32C64.9795 49.6731 50.6526 64 32.9795 64V64C15.3064 64 0.979492 49.6731 0.979492 32V32Z" fill="white"/>
</clipPath>
<clipPath id="clip1_550:5063">
<rect width="27.5402" height="18.8235" fill="white" transform="translate(20.3672 25.0354)"/>
</clipPath>
</defs>
</svg>
