<svg width="65" height="64" viewBox="0 0 65 64" fill="none" xmlns="http://www.w3.org/2000/svg">
<g clip-path="url(#clip0_550:5067)">
<path d="M0.0712891 32C0.0712891 14.3269 14.3982 0 32.0713 0V0C49.7444 0 64.0713 14.3269 64.0713 32V32C64.0713 49.6731 49.7444 64 32.0713 64V64C14.3982 64 0.0712891 49.6731 0.0712891 32V32Z" fill="white"/>
<rect x="0.0712891" width="64" height="64" fill="#FAE5E3"/>
<circle cx="32.0713" cy="32" r="30.1158" stroke="white" stroke-width="3.76842"/>
<path d="M36.7528 42.8168C35.3871 42.7754 31.3347 41.4823 30.5291 40.8855Z" fill="#A2BFF8"/>
<path d="M37.3149 49.1905C39.8347 52.7199 47.9823 53.7676 49.3724 54.272C51.6524 55.136 52.0402 57.472 52.074 58.7445C52.1714 62.3699 52.5967 68.5892 51.3246 71.8758" fill="#A2BFF8"/>
<path d="M37.3149 49.1905C35.7861 46.4347 36.7528 42.8168 36.7528 42.8168C36.7528 42.8168 39.7148 42.958 40.9026 42.35C43.1864 41.3656 45.8992 37.7646 45.8711 32.6088C45.8063 27.9659 44.8303 23.3814 42.999 19.118C41.3466 14.8244 31.0931 10.8112 23.3687 18.3105C23.3687 18.3105 19.2039 22.1354 21.6226 28.4921" fill="#A2BFF8"/>
<path d="M9.62093 71.8758C8.5212 68.3351 8.95397 59.025 9.11322 57.7111C9.27246 56.3972 9.88696 53.7318 13.1412 52.9205C14.58 52.5572 23.5898 51.0936 25.4183 48.5543" fill="#A2BFF8"/>
<path d="M25.8604 38.9543C25.8604 38.9543 22.8347 37.2281 21.6282 33.6291C20.4217 30.03 21.6226 28.4921 21.6226 28.4921C22.5912 27.0408 26.4449 26.6851 26.4449 31.0634" fill="#A2BFF8"/>
<path d="M25.8604 38.9543C26.0909 43.5284 26.1489 45.6272 25.4183 48.5543Z" fill="#A2BFF8"/>
<path d="M37.3149 49.1905C39.8347 52.7199 47.9823 53.7676 49.3724 54.272C51.6524 55.136 52.0402 57.472 52.074 58.7445C52.1714 62.3699 52.5967 68.5892 51.3246 71.8758H9.62093C8.5212 68.3351 8.95397 59.025 9.11322 57.7111C9.27246 56.3972 9.88696 53.7318 13.1412 52.9205C14.58 52.5572 23.5898 51.0936 25.4183 48.5543C26.1489 45.6272 26.0909 43.5284 25.8604 38.9543C25.8604 38.9543 22.8347 37.2281 21.6282 33.6291C20.4217 30.03 21.6226 28.4921 21.6226 28.4921C19.2039 22.1354 23.3687 18.3105 23.3687 18.3105C31.0931 10.8112 41.3466 14.8244 42.999 19.118C44.8303 23.3814 45.8063 27.9659 45.8711 32.6088C45.8992 37.7646 43.1864 41.3656 40.9026 42.35C39.7148 42.958 36.7528 42.8168 36.7528 42.8168C36.7528 42.8168 35.7861 46.4347 37.3149 49.1905Z" fill="#A2BFF8"/>
<path opacity="0.4" d="M36.7097 42.6719C36.5283 43.953 36.2473 45.8354 36.7097 47.3412C34.9955 46.9328 30.1562 43.5717 30.1562 40.8423C32.2736 41.6732 34.4693 42.2862 36.7097 42.6719Z" fill="#050504"/>
<path d="M23.8302 29.553C23.0996 29.7525 22.6012 30.8612 23.182 32.0565" stroke="#050504" stroke-width="0.565263" stroke-linecap="round"/>
<path d="M9.64879 71.7816C8.54384 68.2409 8.97866 58.9308 9.13866 57.6169C9.29866 56.303 9.91608 53.6376 13.1857 52.8263C14.6314 52.463 20.5719 51.5765 23.3954 50.1647" fill="white"/>
<path d="M9.64879 71.7816C8.54384 68.2409 8.97866 58.9308 9.13866 57.6169C9.29866 56.303 9.91608 53.6376 13.1857 52.8263C14.6314 52.463 20.5719 51.5765 23.3954 50.1647L24.6189 49.5059C24.6189 50.9613 27.4323 51.9529 31.0189 51.9529C34.6055 51.9529 37.5131 50.7731 37.5131 49.3176L38.3601 50.1647C41.5601 52.8941 48.1918 53.6734 49.5885 54.1779C51.8793 55.0419 52.269 57.3778 52.3028 58.6503C52.4007 62.2757 52.828 68.495 51.5499 71.7816H9.64879Z" fill="white"/>
<path d="M9.64879 71.7816C8.54384 68.2409 8.97866 58.9308 9.13866 57.6169C9.29866 56.303 9.91608 53.6376 13.1857 52.8263C14.6314 52.463 20.5719 51.5765 23.3954 50.1647" stroke="#050504" stroke-width="0.565263" stroke-linecap="round" stroke-linejoin="round"/>
<path d="M9.64879 71.7816C8.54384 68.2409 8.97866 58.9308 9.13866 57.6169C9.29866 56.303 9.91608 53.6376 13.1857 52.8263C14.6314 52.463 20.5719 51.5765 23.3954 50.1647L24.6189 49.5059C24.6189 50.9613 27.4323 51.9529 31.0189 51.9529C34.6055 51.9529 37.5131 50.7731 37.5131 49.3176L38.3601 50.1647C41.5601 52.8941 48.1918 53.6734 49.5885 54.1779C51.8793 55.0419 52.269 57.3778 52.3028 58.6503C52.4007 62.2757 52.828 68.495 51.5499 71.7816H9.64879Z" stroke="#050504" stroke-width="0.565263" stroke-linecap="round" stroke-linejoin="round"/>
<path d="M9.64879 71.7816C8.54384 68.2409 8.97866 58.9308 9.13866 57.6169C9.29866 56.303 9.91608 53.6376 13.1857 52.8263C14.6314 52.463 20.5719 51.5765 23.3954 50.1647" fill="#8CB2A5"/>
<path d="M9.64879 71.7816C8.54384 68.2409 8.97866 58.9308 9.13866 57.6169C9.29866 56.303 9.91608 53.6376 13.1857 52.8263C14.6314 52.463 20.5719 51.5765 23.3954 50.1647L24.6189 49.5059C24.6189 50.9613 27.4323 51.9529 31.0189 51.9529C34.6056 51.9529 37.5131 50.7731 37.5131 49.3176L38.3601 50.1647C41.5601 52.8941 48.1918 53.6734 49.5885 54.1779C51.8793 55.0419 52.269 57.3778 52.3028 58.6503C52.4007 62.2757 52.828 68.495 51.5499 71.7816H9.64879Z" fill="#8CB2A5"/>
<path d="M9.64879 71.7816C8.54384 68.2409 8.97866 58.9308 9.13866 57.6169C9.29866 56.303 9.91608 53.6376 13.1857 52.8263C14.6314 52.463 20.5719 51.5765 23.3954 50.1647" stroke="#050504" stroke-width="0.565263" stroke-linecap="round" stroke-linejoin="round"/>
<path d="M9.64879 71.7816C8.54384 68.2409 8.97866 58.9308 9.13866 57.6169C9.29866 56.303 9.91608 53.6376 13.1857 52.8263C14.6314 52.463 20.5719 51.5765 23.3954 50.1647L24.6189 49.5059C24.6189 50.9613 27.4323 51.9529 31.0189 51.9529C34.6056 51.9529 37.5131 50.7731 37.5131 49.3176L38.3601 50.1647C41.5601 52.8941 48.1918 53.6734 49.5885 54.1779C51.8793 55.0419 52.269 57.3778 52.3028 58.6503C52.4007 62.2757 52.828 68.495 51.5499 71.7816H9.64879Z" stroke="#050504" stroke-width="0.565263" stroke-linecap="round" stroke-linejoin="round"/>
<mask id="mask0_550:5067" style="mask-type:alpha" maskUnits="userSpaceOnUse" x="9" y="50" width="44" height="22">
<path d="M23.002 50.6573C23.1083 50.992 23.3192 51.3002 23.6016 51.5757C24.0169 51.9807 24.6032 52.3324 25.3047 52.6218C26.7091 53.2011 28.6296 53.5528 30.7365 53.5528C32.841 53.5528 34.7604 53.2253 36.1643 52.6704C36.8656 52.3933 37.4526 52.0538 37.8689 51.6575C38.183 51.3584 38.4089 51.0174 38.5016 50.6416C40.1464 51.9 42.4825 52.7161 44.5772 53.2782C45.7011 53.5798 46.7672 53.8111 47.6353 53.9977L47.7069 54.0131C48.55 54.1944 49.1729 54.3282 49.4906 54.4427C51.6034 55.2407 51.987 57.4022 52.0205 58.6577C52.0332 59.13 52.0514 59.6443 52.0707 60.1889C52.126 61.7462 52.19 63.5521 52.1599 65.3382C52.1208 67.6656 51.9214 69.914 51.3538 71.4992H9.85969C9.36799 69.7384 9.21068 66.6941 9.2016 63.8632C9.1922 60.933 9.34093 58.2906 9.41882 57.651C9.49666 57.0118 9.68394 56.0642 10.2353 55.1828C10.7815 54.3097 11.6934 53.4874 13.2536 53.1003L13.2544 53.1001C13.5881 53.0162 14.1735 52.9025 14.9235 52.7569L15.0475 52.7328C15.8519 52.5765 16.8212 52.3869 17.8343 52.1644C19.6233 51.7713 21.5742 51.2702 23.002 50.6573Z" fill="#C4C4C4"/>
</mask>
<g mask="url(#mask0_550:5067)">
<path d="M15.507 67.1058C15.507 69.6528 13.4844 71.7176 10.9893 71.7176C8.4943 71.7176 6.47168 69.6528 6.47168 67.1058C6.47168 64.5588 8.4943 62.4941 10.9893 62.4941C13.4844 62.4941 15.507 64.5588 15.507 67.1058Z" fill="white"/>
<path d="M55.7893 56C55.7893 58.547 53.3875 60.6117 50.4246 60.6117C47.4618 60.6117 45.0599 58.547 45.0599 56C45.0599 53.453 47.4618 51.3882 50.4246 51.3882C53.3875 51.3882 55.7893 53.453 55.7893 56Z" fill="white"/>
<path d="M36.5893 70.3058C36.5893 72.8528 33.6397 74.9176 30.0011 74.9176C26.3625 74.9176 23.4129 72.8528 23.4129 70.3058C23.4129 67.7588 26.3625 65.6941 30.0011 65.6941C33.6397 65.6941 36.5893 67.7588 36.5893 70.3058Z" fill="white"/>
<path d="M23.4129 54.4941C23.4129 56.6252 21.3902 58.3529 18.8952 58.3529C16.4002 58.3529 14.3776 56.6252 14.3776 54.4941C14.3776 52.3629 16.4002 50.6353 18.8952 50.6353C21.3902 50.6353 23.4129 52.3629 23.4129 54.4941Z" fill="white"/>
<path d="M39.507 54.8705C39.507 57.3136 37.7521 58.9176 34.7893 58.9176C31.8265 58.9176 29.5305 57.3136 29.5305 54.8705C29.5305 52.4275 31.8265 51.5764 34.7893 51.5764C37.7521 51.5764 39.507 52.4275 39.507 54.8705Z" fill="white"/>
<path d="M52.4011 68.6117C52.4011 71.3666 50.1678 73.6 47.4129 73.6C44.6579 73.6 42.4246 71.3666 42.4246 68.6117C42.4246 65.8568 44.6579 63.6235 47.4129 63.6235C50.1678 63.6235 52.4011 65.8568 52.4011 68.6117Z" fill="white"/>
</g>
<path d="M30.9249 53.2706C35.0833 53.2706 38.4543 51.9741 38.4543 50.2588L37.5132 49.3176C37.5132 50.7731 34.6056 51.9529 31.019 51.9529C27.4324 51.9529 24.619 50.9613 24.619 49.5059L23.3955 50.1647C23.3955 51.88 26.7665 53.2706 30.9249 53.2706Z" fill="white" stroke="#050504" stroke-width="0.565263" stroke-linecap="round" stroke-linejoin="round"/>
<path d="M43.557 23.1547C42.2101 22.2648 40.7526 21.5589 39.2223 21.0554C39.1616 21.0357 39.0958 21.0404 39.0385 21.0685C38.9811 21.0966 38.9367 21.146 38.9145 21.2063C37.5194 24.9284 26.8102 29.3772 26.1181 28.3818C24.9798 26.7259 21.4209 27.0939 20.9893 29.3018C20.9893 29.3018 19.6488 34.5417 25.3713 38.8876C25.3997 38.9094 25.4232 38.9371 25.4401 38.9688C25.4571 39.0006 25.4672 39.0356 25.4697 39.0715V39.1231C25.4713 39.1582 25.4655 39.1933 25.4529 39.226C25.4402 39.2588 25.4209 39.2885 25.3962 39.3133C25.3715 39.3381 25.342 39.3574 25.3095 39.3699C25.2769 39.3825 25.2422 39.388 25.2074 39.3862C24.7248 39.3586 23.6083 39.1764 21.9291 38.2086C19.8127 36.9833 18.8056 33.9971 19.0442 28.5511C19.2682 23.4233 19.3993 21.876 20.8982 19.3517C22.1294 17.2781 24.3478 13.4291 34.1937 13.2396C44.6989 13.0372 45.2654 21.6699 45.2909 22.9726C45.2924 23.021 45.2797 23.0689 45.2544 23.1101C45.2292 23.1514 45.1924 23.1841 45.1488 23.2044C44.8986 23.3242 44.6237 23.3821 44.347 23.3735C44.0702 23.3649 43.7994 23.2899 43.557 23.1547V23.1547Z" fill="#CDA02C"/>
<path d="M19.9825 18.8715C16.105 18.9083 23.5195 25.8998 12.9924 31.6034C16.227 25.9513 14.2472 25.5116 11.6792 20.9542C9.94716 17.0224 13.883 11.3868 17.5074 11.1807C21.8402 10.936 23.6397 14.6581 23.6397 14.6581C21.2137 16.4778 20.9259 17.6277 19.8004 19.1327" fill="#CDA02C"/>
<path d="M19.7949 19.1309L20.7056 19.8006C21.8811 18.1327 23.2988 16.6534 24.9109 15.4125L23.8054 14.4668C22.1313 15.6892 20.7589 17.2853 19.7949 19.1309Z" fill="white" stroke="#CDA02C" stroke-width="0.565263" stroke-linecap="round" stroke-linejoin="round"/>
<g clip-path="url(#clip1_550:5067)">
<path d="M31.8679 31.7988C32.473 34.9555 32.1658 38.2854 31.1729 41.7451C36.7746 43.8816 40.8007 44.1338 43.3936 41.1804C46.4998 37.5174 46.6028 35.1569 46.2581 31.4788C44.3341 33.0693 38.9759 32.8868 31.8679 31.7988Z" fill="#050504"/>
<path d="M32.0945 32.209C31.0098 31.5822 25.3388 28.017 24.7299 27.8005C22.8152 27.1191 20.4546 28.8095 21.1965 31.8815C22.0545 35.4259 23.3566 36.9638 24.5238 37.9521C25.691 38.9403 31.48 41.457 31.48 41.457" stroke="#050504" stroke-width="0.753684" stroke-linecap="round" stroke-linejoin="round"/>
<path opacity="0.4" d="M31.8679 31.7988C32.473 34.9555 32.1658 38.2854 31.1729 41.7451C36.7746 43.8816 40.8007 44.1338 43.3936 41.1804C46.4998 37.5174 46.6028 35.1569 46.2581 31.4788C44.3341 33.0693 38.9759 32.8868 31.8679 31.7988Z" fill="#050504"/>
<path opacity="0.4" d="M31.7668 31.5861C32.4073 34.8654 32.2512 38.2515 31.3115 41.4572C36.9114 43.5955 40.6995 43.9193 43.2924 40.9678C46.3987 37.3028 46.5167 34.8802 46.172 31.2078C44.246 32.804 38.8748 32.676 31.7668 31.5861Z" fill="#050504"/>
</g>
<path d="M39.741 30.0156C39.6784 29.8726 39.5117 29.8075 39.3687 29.8701C39.2257 29.9327 39.1606 30.0994 39.2232 30.2424L39.741 30.0156ZM39.8239 34.8724C39.6814 34.9361 39.6175 35.1032 39.6812 35.2457C39.7449 35.3882 39.9121 35.4521 40.0546 35.3884L39.8239 34.8724ZM30.9909 25.8716C30.8903 25.991 30.9056 26.1693 31.0249 26.2698C31.1443 26.3704 31.3226 26.3551 31.4232 26.2358L30.9909 25.8716ZM35.3081 24.2842L35.3558 24.0057L35.3538 24.0053L35.3081 24.2842ZM35.8261 24.7148C35.9724 24.7692 36.1351 24.6946 36.1894 24.5483C36.2437 24.402 36.1692 24.2393 36.0228 24.1849L35.8261 24.7148ZM40.1269 24.6687C40.0118 24.7741 40.0039 24.9529 40.1093 25.068C40.2147 25.1832 40.3935 25.1911 40.5086 25.0857L40.1269 24.6687ZM44.1097 23.9868L44.2286 23.7304L44.2283 23.7303L44.1097 23.9868ZM44.4322 24.508C44.5568 24.602 44.7341 24.5772 44.8281 24.4526C44.9221 24.328 44.8972 24.1507 44.7726 24.0567L44.4322 24.508ZM39.4821 30.129C39.2232 30.2424 39.2232 30.2424 39.2233 30.2424C39.2233 30.2424 39.2233 30.2425 39.2233 30.2425C39.2233 30.2426 39.2234 30.2428 39.2235 30.243C39.2237 30.2434 39.224 30.2441 39.2244 30.2449C39.2251 30.2467 39.2262 30.2492 39.2277 30.2527C39.2307 30.2595 39.2352 30.2697 39.241 30.2831C39.2527 30.3098 39.2698 30.349 39.2916 30.3992C39.3351 30.4995 39.3974 30.6433 39.4722 30.8172C39.6217 31.1651 39.8209 31.633 40.02 32.1138C40.2194 32.5952 40.4176 33.0871 40.5657 33.4837C40.6399 33.6823 40.7003 33.8539 40.7417 33.9868C40.7625 34.0534 40.7775 34.1072 40.7871 34.148C40.7979 34.1942 40.7976 34.2067 40.7976 34.1986H41.3628C41.3628 34.1379 41.35 34.0724 41.3374 34.0189C41.3236 33.9599 41.3043 33.892 41.2813 33.8185C41.2354 33.6712 41.1709 33.4886 41.0953 33.286C40.9437 32.88 40.7425 32.3809 40.5423 31.8975C40.3419 31.4136 40.1416 30.9432 39.9915 30.594C39.9164 30.4193 39.8538 30.2748 39.81 30.1739C39.7881 30.1235 39.7709 30.0839 39.7591 30.057C39.7532 30.0435 39.7487 30.0332 39.7457 30.0262C39.7441 30.0227 39.743 30.0201 39.7422 30.0183C39.7418 30.0174 39.7415 30.0167 39.7413 30.0163C39.7412 30.016 39.7411 30.0159 39.7411 30.0157C39.7411 30.0157 39.741 30.0156 39.741 30.0156C39.741 30.0156 39.741 30.0156 39.4821 30.129ZM40.7976 34.1986C40.7976 34.1848 40.7989 34.2253 40.7019 34.3224C40.6164 34.4081 40.4938 34.4984 40.3587 34.5837C40.2259 34.6676 40.0915 34.7402 39.9894 34.7922C39.9386 34.818 39.8965 34.8384 39.8673 34.8522C39.8528 34.8591 39.8415 34.8643 39.8341 34.8677C39.8304 34.8694 39.8276 34.8707 39.8259 34.8715C39.825 34.8719 39.8244 34.8721 39.8241 34.8723C39.8239 34.8724 39.8238 34.8724 39.8238 34.8724C39.8238 34.8724 39.8238 34.8724 39.8238 34.8724C39.8238 34.8724 39.8238 34.8724 39.8238 34.8724C39.8239 34.8724 39.8239 34.8724 39.9392 35.1304C40.0546 35.3884 40.0547 35.3884 40.0547 35.3884C40.0547 35.3883 40.0548 35.3883 40.0548 35.3883C40.0549 35.3883 40.055 35.3882 40.0551 35.3882C40.0554 35.3881 40.0557 35.3879 40.0561 35.3877C40.0568 35.3874 40.0579 35.3869 40.0592 35.3863C40.0618 35.3852 40.0654 35.3835 40.0701 35.3814C40.0793 35.3771 40.0926 35.371 40.1092 35.3631C40.1425 35.3473 40.1895 35.3246 40.2457 35.296C40.3575 35.2391 40.5083 35.1578 40.6607 35.0615C40.8109 34.9666 40.9735 34.8504 41.1019 34.7218C41.2189 34.6047 41.3628 34.4232 41.3628 34.1986H40.7976ZM31.4232 26.2358C32.4507 25.016 33.9261 24.3443 35.2624 24.5632L35.3538 24.0053C33.7712 23.7461 32.1104 24.5426 30.9909 25.8716L31.4232 26.2358ZM35.2604 24.5628C35.4532 24.5958 35.6426 24.6467 35.8261 24.7148L36.0228 24.1849C35.8065 24.1046 35.5832 24.0446 35.3558 24.0057L35.2604 24.5628ZM40.5086 25.0857C41.5944 24.0916 42.9343 23.755 43.9911 24.2434L44.2283 23.7303C42.8982 23.1156 41.3193 23.5771 40.1269 24.6687L40.5086 25.0857ZM43.9908 24.2432C44.1468 24.3156 44.2948 24.4043 44.4322 24.508L44.7726 24.0567C44.6033 23.929 44.4209 23.8196 44.2286 23.7304L43.9908 24.2432Z" fill="#050504"/>
<path d="M35.2314 30.9159C35.815 30.9159 36.2881 30.267 36.2881 29.4665C36.2881 28.666 35.815 28.0171 35.2314 28.0171C34.6479 28.0171 34.1748 28.666 34.1748 29.4665C34.1748 30.267 34.6479 30.9159 35.2314 30.9159Z" fill="#050504"/>
<path d="M35.9263 28.9431C35.6435 27.8664 34.229 27.6988 33.2061 28.5948" stroke="#050504" stroke-width="0.565263" stroke-linecap="round"/>
<path d="M43.4971 30.3925C44.0806 30.3925 44.5537 29.7436 44.5537 28.9431C44.5537 28.1426 44.0806 27.4937 43.4971 27.4937C42.9135 27.4937 42.4404 28.1426 42.4404 28.9431C42.4404 29.7436 42.9135 30.3925 43.4971 30.3925Z" fill="#050504"/>
<path d="M44.192 28.4199C43.9091 27.3432 42.4946 27.1757 41.4717 28.0717" stroke="#050504" stroke-width="0.565263" stroke-linecap="round"/>
<path d="M32.0985 8.77188C28.1765 9.04916 18.6419 10.3843 18.8997 14.0781C19.1574 17.7719 30.6369 17.3748 32.6869 17.2293C34.7369 17.0838 46.2604 15.9815 45.9959 12.161C45.7703 8.95497 37.8348 8.36624 32.0985 8.77188ZM32.4953 15.6187C26.7386 16.026 20.5513 15.0435 20.4681 13.859C20.3851 12.6745 26.2587 10.9063 32.146 10.4887C38.0909 10.0625 44.241 10.8585 44.3325 12.1764C44.424 13.4944 38.2502 15.2147 32.4953 15.622V15.6187Z" fill="#69F0ED"/>
</g>
<path d="M32.0713 63.4347C14.7104 63.4347 0.636552 49.3609 0.636552 32H-0.493974C-0.493974 49.9853 14.086 64.5653 32.0713 64.5653V63.4347ZM63.506 32C63.506 49.3609 49.4322 63.4347 32.0713 63.4347V64.5653C50.0566 64.5653 64.6366 49.9853 64.6366 32H63.506ZM32.0713 0.565263C49.4322 0.565263 63.506 14.6391 63.506 32H64.6366C64.6366 14.0147 50.0566 -0.565263 32.0713 -0.565263V0.565263ZM32.0713 -0.565263C14.086 -0.565263 -0.493974 14.0147 -0.493974 32H0.636552C0.636552 14.6391 14.7104 0.565263 32.0713 0.565263V-0.565263Z" fill="#050504"/>
<defs>
<clipPath id="clip0_550:5067">
<path d="M0.0712891 32C0.0712891 14.3269 14.3982 0 32.0713 0V0C49.7444 0 64.0713 14.3269 64.0713 32V32C64.0713 49.6731 49.7444 64 32.0713 64V64C14.3982 64 0.0712891 49.6731 0.0712891 32V32Z" fill="white"/>
</clipPath>
<clipPath id="clip1_550:5067">
<rect width="27.5402" height="18.8235" fill="white" transform="translate(19.3682 24.6589)"/>
</clipPath>
</defs>
</svg>
