<svg width="65" height="65" viewBox="0 0 65 65" fill="none" xmlns="http://www.w3.org/2000/svg">
<g clip-path="url(#clip0_550:5065)">
<path d="M0.936523 32.2649C0.936523 14.5918 15.2634 0.264893 32.9365 0.264893C50.6096 0.264893 64.9365 14.5918 64.9365 32.2649C64.9365 49.938 50.6096 64.2649 32.9365 64.2649C15.2634 64.2649 0.936523 49.938 0.936523 32.2649Z" fill="white"/>
<rect x="0.936523" y="0.264893" width="64" height="64" fill="#8CB2A5"/>
<circle cx="32.9365" cy="32.2649" r="30.1158" stroke="white" stroke-width="3.76842"/>
<path d="M37.6171 43.0817C36.2513 43.0403 32.199 41.7471 31.3934 41.1504L37.6171 43.0817Z" fill="#EB8682"/>
<path d="M38.1791 49.4554C40.699 52.9848 48.8465 54.0325 50.2367 54.5369C52.5167 55.4009 52.9045 57.7369 52.9382 59.0094C53.0356 62.6348 53.4609 68.8541 52.1888 72.1407" fill="#EB8682"/>
<path d="M38.1791 49.4554C36.6504 46.6996 37.6171 43.0817 37.6171 43.0817C37.6171 43.0817 40.5791 43.2229 41.7669 42.6149C44.0506 41.6304 46.7634 38.0295 46.7353 32.8737C46.6706 28.2308 45.6946 23.6462 43.8633 19.3829C42.2109 15.0893 31.9573 11.0761 24.2329 18.5754C24.2329 18.5754 20.0682 22.4003 22.4869 28.757" fill="#EB8682"/>
<path d="M10.4852 72.1407C9.38545 68.6 9.81823 59.2899 9.97747 57.976C10.1367 56.6621 10.7512 53.9967 14.0055 53.1854C15.4443 52.8221 24.454 51.3584 26.2825 48.8192" fill="#EB8682"/>
<path d="M26.7247 39.2192C26.7247 39.2192 23.699 37.493 22.4925 33.894C21.286 30.2949 22.4869 28.757 22.4869 28.757C23.4555 27.3057 27.3092 26.95 27.3092 31.3283" fill="#EB8682"/>
<path d="M26.7247 39.2192C26.9551 43.7933 27.0132 45.8921 26.2825 48.8192L26.7247 39.2192Z" fill="#EB8682"/>
<path d="M38.1791 49.4554C40.699 52.9848 48.8465 54.0325 50.2367 54.5369C52.5167 55.4009 52.9045 57.7369 52.9382 59.0094C53.0356 62.6348 53.4609 68.8541 52.1888 72.1407H10.4852C9.38545 68.6 9.81823 59.2899 9.97747 57.976C10.1367 56.6621 10.7512 53.9967 14.0055 53.1854C15.4443 52.8221 24.454 51.3584 26.2825 48.8192C27.0132 45.8921 26.9551 43.7933 26.7247 39.2192C26.7247 39.2192 23.699 37.493 22.4925 33.894C21.286 30.2949 22.4869 28.757 22.4869 28.757C20.0682 22.4003 24.2329 18.5754 24.2329 18.5754C31.9573 11.0761 42.2109 15.0893 43.8633 19.3829C45.6946 23.6462 46.6706 28.2308 46.7353 32.8737C46.7634 38.0295 44.0506 41.6304 41.7669 42.6149C40.5791 43.2229 37.6171 43.0817 37.6171 43.0817C37.6171 43.0817 36.6504 46.6996 38.1791 49.4554Z" fill="#EB8682"/>
<path opacity="0.4" d="M37.5739 42.9368C37.3925 44.2179 37.1115 46.1002 37.5739 47.6061C35.8597 47.1977 31.0205 43.8366 31.0205 41.1072C33.1378 41.9381 35.3335 42.5511 37.5739 42.9368Z" fill="#050504"/>
<path d="M24.6945 29.8179C23.9638 30.0174 23.4655 31.1261 24.0463 32.3214" stroke="#050504" stroke-width="0.565263" stroke-linecap="round"/>
<path d="M10.513 72.0465C9.4081 68.5058 9.84292 59.1957 10.0029 57.8818C10.1629 56.5679 10.7803 53.9025 14.05 53.0912C15.4956 52.7279 21.4361 51.8413 24.2597 50.4296" fill="#F1CF73"/>
<path d="M10.513 72.0465C9.4081 68.5058 9.84292 59.1957 10.0029 57.8818C10.1629 56.5679 10.7803 53.9025 14.05 53.0912C15.4956 52.7279 21.4361 51.8413 24.2597 50.4296L25.4832 49.7708C25.4832 51.2262 28.2966 52.2178 31.8832 52.2178C35.4698 52.2178 38.3773 51.038 38.3773 49.5825L39.2244 50.4296C42.4244 53.159 49.056 53.9383 50.4527 54.4427C52.7436 55.3067 53.1332 57.6427 53.1671 58.9152C53.265 62.5406 53.6923 68.7599 52.4142 72.0465H10.513Z" fill="#F1CF73"/>
<path d="M10.513 72.0465C9.4081 68.5058 9.84292 59.1957 10.0029 57.8818C10.1629 56.5679 10.7803 53.9025 14.05 53.0912C15.4956 52.7279 21.4361 51.8413 24.2597 50.4296L25.4832 49.7708C25.4832 51.2262 28.2966 52.2178 31.8832 52.2178C35.4698 52.2178 38.3773 51.038 38.3773 49.5825L39.2244 50.4296C42.4244 53.159 49.056 53.9383 50.4527 54.4427C52.7436 55.3067 53.1332 57.6427 53.1671 58.9152C53.265 62.5406 53.6923 68.7599 52.4141 72.0465H10.513Z" stroke="#050504" stroke-width="0.565263" stroke-linecap="round" stroke-linejoin="round"/>
<path d="M32.5122 56.8804C32.9062 56.8804 33.2257 56.561 33.2257 56.167C33.2257 55.773 32.9062 55.4536 32.5122 55.4536C32.1182 55.4536 31.7988 55.773 31.7988 56.167C31.7988 56.561 32.1182 56.8804 32.5122 56.8804Z" fill="#050504"/>
<path d="M32.5122 60.0748C32.9062 60.0748 33.2257 59.7554 33.2257 59.3614C33.2257 58.9674 32.9062 58.648 32.5122 58.648C32.1182 58.648 31.7988 58.9674 31.7988 59.3614C31.7988 59.7554 32.1182 60.0748 32.5122 60.0748Z" fill="#050504"/>
<path d="M32.5122 63.2748C32.9062 63.2748 33.2257 62.9554 33.2257 62.5614C33.2257 62.1674 32.9062 61.848 32.5122 61.848C32.1182 61.848 31.7988 62.1674 31.7988 62.5614C31.7988 62.9554 32.1182 63.2748 32.5122 63.2748Z" fill="#050504"/>
<path d="M31.7892 53.5355C35.9476 53.5355 39.3186 52.239 39.3186 50.5237L38.3774 49.5825C38.3774 51.038 35.4699 52.2178 31.8833 52.2178C28.2967 52.2178 25.4833 51.2262 25.4833 49.7708L24.2598 50.4296C24.2598 52.1449 27.6308 53.5355 31.7892 53.5355Z" fill="white" stroke="#050504" stroke-width="0.565263" stroke-linecap="round" stroke-linejoin="round"/>
<path d="M23.5254 36.2009C16.1893 24.9169 19.7699 17.7009 25.8767 14.9448C30.6576 13.3073 36.6224 13.7562 38.5876 14.3505C42.2301 15.4544 44.4995 17.2943 45.0459 18.711C45.7744 20.6042 46.5029 24.3392 45.9656 27.031C45.7835 25.4947 43.5979 19.8959 43.5979 19.8959C43.3393 21.0826 37.7789 23.6327 33.9706 23.8461C32.0036 23.9565 28.9711 23.1212 28.2153 22.8673C27.9421 22.7753 27.9057 22.8121 27.9184 22.9759C28.0022 24.0393 29.1605 27.329 29.3536 28.3722C29.6122 29.7724 29.1514 33.1798 29.1514 33.1798C28.7252 33.2111 27.4995 32.9848 27.0569 32.9131C26.9458 32.5451 27.4995 31.5718 26.6453 29.5019C26.0989 28.168 24.0481 28.4753 23.6857 28.6997C23.2476 28.9745 22.8795 29.3495 22.6111 29.7945C22.276 30.3354 22.1048 33.2571 23.8861 36.212L23.5254 36.2009Z" fill="#050504"/>
<path d="M37.8955 37.9763C38.7916 39.4629 41.0372 39.1814 41.5254 37.9763" stroke="#050504" stroke-width="0.565263" stroke-miterlimit="10" stroke-linecap="round"/>
<path d="M36.1289 37.4282C36.1854 38.1807 38.3418 38.039 39.8717 38.0795C41.5108 38.1255 43.6964 38.2635 43.6836 37.7115C43.6709 37.1596 41.9825 35.3197 39.8152 35.3289C37.3528 35.4338 36.1544 36.672 36.1289 37.4282Z" fill="#050504"/>
<path d="M38.5336 29.4657C38.5336 29.6218 38.6601 29.7483 38.8162 29.7483C38.9723 29.7483 39.0988 29.6218 39.0988 29.4657H38.5336ZM41.4319 29.1551C41.4319 29.3112 41.5584 29.4377 41.7145 29.4377C41.8706 29.4377 41.9971 29.3112 41.9971 29.1551H41.4319ZM33.0377 29.5828C33.1865 29.6297 33.3453 29.5471 33.3922 29.3983C33.4392 29.2494 33.3566 29.0907 33.2077 29.0437L33.0377 29.5828ZM23.0359 27.8394L23.1573 28.0948L23.1663 28.0901L23.0359 27.8394ZM21.2592 30.8407C21.2878 30.9941 21.4353 31.0954 21.5887 31.0669C21.7422 31.0383 21.8435 30.8908 21.815 30.7374L21.2592 30.8407ZM38.5336 29.3132C38.5336 31.0155 37.3488 32.3228 35.9704 32.3228V32.8881C37.7354 32.8881 39.0989 31.2475 39.0989 29.3132H38.5336ZM35.9704 32.3228C34.592 32.3228 33.4072 31.0155 33.4072 29.3132H32.8419C32.8419 31.2475 34.2054 32.8881 35.9704 32.8881V32.3228ZM33.4072 29.3132C33.4072 27.611 34.592 26.3036 35.9704 26.3036V25.7384C34.2053 25.7384 32.8419 27.379 32.8419 29.3132H33.4072ZM35.9704 26.3036C37.3488 26.3036 38.5336 27.611 38.5336 29.3132H39.0989C39.0989 27.379 37.7354 25.7384 35.9704 25.7384V26.3036ZM47.0973 28.677C47.0973 30.3792 45.9124 31.6866 44.5341 31.6866V32.2519C46.2991 32.2519 47.6625 30.6113 47.6625 28.677H47.0973ZM44.5341 31.6866C43.1557 31.6866 41.9709 30.3792 41.9709 28.677H41.4056C41.4056 30.6113 42.769 32.2519 44.5341 32.2519V31.6866ZM41.9709 28.677C41.9709 26.9748 43.1557 25.6674 44.5341 25.6674V25.1021C42.769 25.1021 41.4056 26.7427 41.4056 28.677H41.9709ZM44.5341 25.6674C45.9124 25.6674 47.0973 26.9748 47.0973 28.677H47.6625C47.6625 26.7427 46.2991 25.1021 44.5341 25.1021V25.6674ZM39.0988 29.4657C39.0988 29.2582 39.2068 29.0884 39.4207 28.9523C39.641 28.8123 39.9529 28.7252 40.2825 28.7052C40.6123 28.6852 40.926 28.7344 41.1451 28.8335C41.3663 28.9336 41.4319 29.0505 41.4319 29.1551H41.9971C41.9971 28.7355 41.7004 28.4644 41.3782 28.3185C41.0538 28.1718 40.643 28.117 40.2482 28.141C39.8532 28.165 39.4406 28.2698 39.1174 28.4754C38.7879 28.6849 38.5336 29.0144 38.5336 29.4657H39.0988ZM33.1227 29.3132C33.2077 29.0437 33.2077 29.0437 33.2076 29.0437C33.2075 29.0436 33.2074 29.0436 33.2073 29.0436C33.207 29.0435 33.2066 29.0433 33.2061 29.0432C33.205 29.0428 33.2035 29.0424 33.2015 29.0417C33.1975 29.0405 33.1916 29.0386 33.1838 29.0362C33.1682 29.0313 33.1452 29.0242 33.1152 29.0149C33.0552 28.9964 32.9671 28.9695 32.8545 28.9356C32.6292 28.8679 32.3054 28.7725 31.9107 28.6613C31.1215 28.4391 30.0468 28.1537 28.9068 27.9015C27.7684 27.6496 26.5576 27.4292 25.4981 27.3393C24.9685 27.2944 24.4702 27.2816 24.0342 27.3156C23.6023 27.3492 23.2096 27.4303 22.9054 27.5886L23.1663 28.0901C23.3731 27.9825 23.6789 27.9102 24.0781 27.8791C24.4732 27.8483 24.9386 27.8592 25.4504 27.9026C26.4738 27.9894 27.657 28.2039 28.7847 28.4534C29.911 28.7026 30.9748 28.9851 31.7575 29.2054C32.1487 29.3156 32.4692 29.4101 32.6918 29.477C32.803 29.5104 32.8898 29.5369 32.9486 29.5551C32.978 29.5641 33.0004 29.5711 33.0154 29.5758C33.0229 29.5781 33.0285 29.5799 33.0323 29.5811C33.0341 29.5817 33.0355 29.5821 33.0364 29.5824C33.0369 29.5825 33.0372 29.5826 33.0374 29.5827C33.0375 29.5827 33.0376 29.5827 33.0376 29.5828C33.0377 29.5828 33.0377 29.5828 33.1227 29.3132ZM22.9145 27.5841C22.319 27.8673 21.8338 28.3406 21.5345 28.9296L22.0384 29.1857C22.2814 28.7076 22.6749 28.324 23.1573 28.0946L22.9145 27.5841ZM21.5345 28.9296C21.2352 29.5187 21.1384 30.1907 21.2592 30.8407L21.815 30.7374C21.7168 30.2095 21.7955 29.6638 22.0384 29.1857L21.5345 28.9296Z" fill="white"/>
<path d="M40.6062 30.2805C40.5436 30.1375 40.3769 30.0723 40.2339 30.135C40.091 30.1976 40.0258 30.3643 40.0885 30.5073L40.6062 30.2805ZM40.6891 35.1373C40.5466 35.201 40.4828 35.3681 40.5465 35.5106C40.6102 35.6531 40.7773 35.717 40.9198 35.6533L40.6891 35.1373ZM31.8561 26.1365C31.7555 26.2558 31.7708 26.4341 31.8902 26.5347C32.0096 26.6353 32.1879 26.62 32.2884 26.5006L31.8561 26.1365ZM36.1733 24.5491L36.221 24.2705L36.219 24.2702L36.1733 24.5491ZM36.6913 24.9797C36.8376 25.0341 37.0003 24.9595 37.0546 24.8132C37.109 24.6668 37.0344 24.5042 36.8881 24.4498L36.6913 24.9797ZM40.9922 24.9336C40.877 25.039 40.8691 25.2178 40.9745 25.3329C41.0799 25.4481 41.2587 25.456 41.3739 25.3506L40.9922 24.9336ZM44.9749 24.2517L45.0938 23.9953L45.0935 23.9952L44.9749 24.2517ZM45.2975 24.7729C45.4221 24.8669 45.5993 24.8421 45.6933 24.7175C45.7873 24.5929 45.7625 24.4156 45.6379 24.3216L45.2975 24.7729ZM40.3474 30.3939C40.0885 30.5073 40.0885 30.5073 40.0885 30.5073C40.0885 30.5073 40.0885 30.5074 40.0885 30.5074C40.0886 30.5075 40.0886 30.5077 40.0887 30.5079C40.0889 30.5083 40.0892 30.509 40.0896 30.5098C40.0903 30.5116 40.0915 30.5141 40.093 30.5176C40.096 30.5244 40.1004 30.5346 40.1063 30.548C40.1179 30.5747 40.135 30.6139 40.1568 30.6641C40.2004 30.7643 40.2626 30.9081 40.3374 31.082C40.4869 31.43 40.6861 31.8979 40.8853 32.3787C41.0846 32.8601 41.2829 33.352 41.431 33.7486C41.5051 33.9472 41.5655 34.1188 41.6069 34.2517C41.6277 34.3183 41.6428 34.3721 41.6523 34.4129C41.6632 34.4591 41.6628 34.4715 41.6628 34.4635H42.2281C42.2281 34.4028 42.2152 34.3373 42.2026 34.2838C42.1888 34.2248 42.1695 34.1569 42.1466 34.0834C42.1006 33.9361 42.0362 33.7535 41.9605 33.5509C41.8089 33.1449 41.6077 32.6458 41.4075 32.1624C41.2071 31.6785 41.0068 31.2081 40.8567 30.8588C40.7816 30.6842 40.7191 30.5397 40.6752 30.4388C40.6533 30.3884 40.6361 30.3488 40.6243 30.3219C40.6185 30.3084 40.6139 30.2981 40.6109 30.2911C40.6094 30.2876 40.6082 30.285 40.6074 30.2832C40.607 30.2823 40.6067 30.2816 40.6065 30.2812C40.6064 30.2809 40.6064 30.2808 40.6063 30.2806C40.6063 30.2806 40.6063 30.2805 40.6063 30.2805C40.6062 30.2805 40.6062 30.2805 40.3474 30.3939ZM41.6628 34.4635C41.6628 34.4497 41.6641 34.4902 41.5672 34.5873C41.4816 34.6729 41.359 34.7633 41.224 34.8486C41.0911 34.9325 40.9567 35.0051 40.8546 35.0571C40.8038 35.0829 40.7617 35.1033 40.7326 35.1171C40.718 35.124 40.7067 35.1292 40.6993 35.1326C40.6956 35.1343 40.6928 35.1356 40.6911 35.1364C40.6903 35.1367 40.6897 35.137 40.6893 35.1372C40.6892 35.1372 40.689 35.1373 40.689 35.1373C40.689 35.1373 40.689 35.1373 40.689 35.1373C40.689 35.1373 40.6891 35.1373 40.6891 35.1373C40.6891 35.1373 40.6891 35.1373 40.8045 35.3953C40.9198 35.6533 40.9199 35.6533 40.9199 35.6532C40.92 35.6532 40.92 35.6532 40.92 35.6532C40.9201 35.6532 40.9202 35.6531 40.9204 35.6531C40.9206 35.6529 40.9209 35.6528 40.9213 35.6526C40.9221 35.6523 40.9231 35.6518 40.9244 35.6512C40.927 35.6501 40.9306 35.6484 40.9353 35.6463C40.9446 35.642 40.9578 35.6359 40.9745 35.628C41.0077 35.6122 41.0547 35.5895 41.1109 35.5609C41.2227 35.504 41.3735 35.4227 41.5259 35.3264C41.6762 35.2315 41.8388 35.1152 41.9672 34.9867C42.0841 34.8695 42.2281 34.6881 42.2281 34.4635H41.6628ZM32.2884 26.5006C33.3159 25.2809 34.7914 24.6092 36.1276 24.8281L36.219 24.2702C34.6364 24.011 32.9756 24.8075 31.8561 26.1365L32.2884 26.5006ZM36.1257 24.8277C36.3185 24.8607 36.5078 24.9116 36.6913 24.9797L36.8881 24.4498C36.6717 24.3695 36.4484 24.3095 36.221 24.2706L36.1257 24.8277ZM41.3739 25.3506C42.4597 24.3565 43.7996 24.0199 44.8564 24.5083L45.0935 23.9952C43.7635 23.3805 42.1845 23.842 40.9922 24.9336L41.3739 25.3506ZM44.856 24.5081C45.012 24.5805 45.16 24.6692 45.2975 24.7729L45.6379 24.3216C45.4685 24.1939 45.2861 24.0845 45.0938 23.9953L44.856 24.5081Z" fill="#050504"/>
<path d="M36.0967 31.1808C36.6803 31.1808 37.1533 30.5319 37.1533 29.7314C37.1533 28.9309 36.6803 28.282 36.0967 28.282C35.5131 28.282 35.04 28.9309 35.04 29.7314C35.04 30.5319 35.5131 31.1808 36.0967 31.1808Z" fill="#050504"/>
<path d="M36.7916 29.208C36.5087 28.1313 35.0942 27.9637 34.0713 28.8597" stroke="#050504" stroke-width="0.565263" stroke-linecap="round"/>
<path d="M44.3623 30.6574C44.9459 30.6574 45.419 30.0084 45.419 29.208C45.419 28.4075 44.9459 27.7585 44.3623 27.7585C43.7787 27.7585 43.3057 28.4075 43.3057 29.208C43.3057 30.0084 43.7787 30.6574 44.3623 30.6574Z" fill="#050504"/>
<path d="M45.0572 28.6848C44.7743 27.6081 43.3598 27.4405 42.3369 28.3365" stroke="#050504" stroke-width="0.565263" stroke-linecap="round"/>
<path d="M33.5282 9.03652C29.6062 9.31381 20.0716 10.649 20.3293 14.3427C20.5871 18.0366 32.0666 17.6395 34.1166 17.4939C36.1665 17.3484 47.6901 16.2461 47.4256 12.4257C47.2 9.21962 39.2645 8.63089 33.5282 9.03652ZM33.925 15.8833C28.1683 16.2907 21.981 15.3081 21.8978 14.1236C21.8148 12.9392 27.6884 11.1709 33.5757 10.7534C39.5206 10.3271 45.6706 11.1231 45.7622 12.4411C45.8537 13.7591 39.6799 15.4793 33.925 15.8867V15.8833Z" fill="#69F0ED"/>
</g>
<path d="M32.9365 63.6996C15.5756 63.6996 1.50179 49.6258 1.50179 32.2649H0.371261C0.371261 50.2502 14.9512 64.8302 32.9365 64.8302V63.6996ZM64.3713 32.2649C64.3713 49.6258 50.2974 63.6996 32.9365 63.6996V64.8302C50.9218 64.8302 65.5018 50.2502 65.5018 32.2649H64.3713ZM32.9365 0.830155C50.2974 0.830155 64.3713 14.904 64.3713 32.2649H65.5018C65.5018 14.2796 50.9218 -0.30037 32.9365 -0.30037V0.830155ZM32.9365 -0.30037C14.9512 -0.30037 0.371261 14.2796 0.371261 32.2649H1.50179C1.50179 14.904 15.5756 0.830155 32.9365 0.830155V-0.30037Z" fill="#050504"/>
<defs>
<clipPath id="clip0_550:5065">
<path d="M0.936523 32.2649C0.936523 14.5918 15.2634 0.264893 32.9365 0.264893C50.6096 0.264893 64.9365 14.5918 64.9365 32.2649C64.9365 49.938 50.6096 64.2649 32.9365 64.2649C15.2634 64.2649 0.936523 49.938 0.936523 32.2649Z" fill="white"/>
</clipPath>
</defs>
</svg>
