<svg width="64" height="65" viewBox="0 0 64 65" fill="none" xmlns="http://www.w3.org/2000/svg">
<g clip-path="url(#clip0_550:5069)">
<path d="M0 32.4868C0 14.8137 14.3269 0.486816 32 0.486816C49.6731 0.486816 64 14.8137 64 32.4868C64 50.1599 49.6731 64.4868 32 64.4868C14.3269 64.4868 0 50.1599 0 32.4868Z" fill="white"/>
<rect y="0.486816" width="64.0631" height="64.0631" fill="#EB8682"/>
<circle cx="32.0316" cy="32.5184" r="30.1474" stroke="white" stroke-width="3.76842"/>
<path d="M36.6816 43.3037C35.3158 43.2623 31.2634 41.9691 30.4578 41.3724L36.6816 43.3037Z" fill="#A2BFF8"/>
<path d="M37.2436 49.6773C39.7634 53.2067 47.911 54.2544 49.3011 54.7589C51.5811 55.6229 51.9689 57.9588 52.0027 59.2313C52.1001 62.8567 52.5254 69.076 51.2533 72.3626" fill="#A2BFF8"/>
<path d="M37.2436 49.6773C35.7148 46.9216 36.6816 43.3037 36.6816 43.3037C36.6816 43.3037 39.6435 43.4448 40.8313 42.8368C43.1151 41.8524 45.8279 38.2514 45.7998 33.0957C45.735 28.4527 44.759 23.8682 42.9277 19.6048C41.2753 15.3112 31.0218 11.298 23.2974 18.7973C23.2974 18.7973 19.1327 22.6222 21.5513 28.979" fill="#A2BFF8"/>
<path d="M9.54964 72.3626C8.44991 68.8219 8.88268 59.5118 9.04193 58.1979C9.20117 56.884 9.81567 54.2186 13.0699 53.4073C14.5087 53.044 23.5185 51.5804 25.347 49.0411" fill="#A2BFF8"/>
<path d="M25.7891 39.4411C25.7891 39.4411 22.7635 37.715 21.5569 34.1159C20.3504 30.5168 21.5513 28.979 21.5513 28.979C22.5199 27.5277 26.3737 27.1719 26.3737 31.5502" fill="#A2BFF8"/>
<path d="M25.7891 39.4411C26.0196 44.0152 26.0776 46.114 25.347 49.0411L25.7891 39.4411Z" fill="#A2BFF8"/>
<path d="M37.2436 49.6773C39.7634 53.2067 47.911 54.2544 49.3011 54.7589C51.5811 55.6229 51.9689 57.9588 52.0027 59.2313C52.1001 62.8567 52.5254 69.076 51.2533 72.3626H9.54964C8.44991 68.8219 8.88268 59.5118 9.04193 58.1979C9.20117 56.884 9.81567 54.2186 13.0699 53.4073C14.5087 53.044 23.5185 51.5804 25.347 49.0411C26.0776 46.114 26.0196 44.0152 25.7891 39.4411C25.7891 39.4411 22.7635 37.715 21.5569 34.1159C20.3504 30.5168 21.5513 28.979 21.5513 28.979C19.1327 22.6222 23.2974 18.7973 23.2974 18.7973C31.0218 11.298 41.2753 15.3112 42.9277 19.6048C44.759 23.8682 45.735 28.4527 45.7998 33.0957C45.8279 38.2514 43.1151 41.8524 40.8313 42.8368C39.6435 43.4448 36.6816 43.3037 36.6816 43.3037C36.6816 43.3037 35.7148 46.9216 37.2436 49.6773Z" fill="#A2BFF8"/>
<path opacity="0.4" d="M36.6384 43.1587C36.457 44.4398 36.176 46.3222 36.6384 47.8281C34.9242 47.4196 30.085 44.0585 30.085 41.3291C32.2023 42.16 34.398 42.773 36.6384 43.1587Z" fill="#050504"/>
<path d="M23.759 30.0398C23.0283 30.2393 22.5299 31.348 23.1107 32.5433" stroke="#050504" stroke-width="0.565263" stroke-linecap="round"/>
<path d="M8.6914 56.7863C8.5314 58.1002 8.09658 67.4103 9.20152 70.951H51.1026C52.3807 67.6644 51.9534 61.4451 51.8556 57.8197C51.8217 56.5472 51.432 54.2112 49.1412 53.3472C47.8623 52.8853 41.1296 52.1772 38.0246 49.3341C38.0246 49.3341 38.1187 51.3105 30.9658 51.3105C23.8129 51.3105 23.8893 48.8066 23.8893 48.8066C20.8445 50.6991 13.9848 51.6825 12.7385 51.9957C9.46881 52.807 8.8514 55.4724 8.6914 56.7863Z" fill="#F1CF73" stroke="#050504" stroke-width="0.565263" stroke-linecap="round" stroke-linejoin="round"/>
<path d="M37.9623 49.4413C37.9623 50.3081 35.9906 51.265 33.247 51.6226C32.5347 51.7155 31.7703 51.7679 30.975 51.7679C30.7791 51.7679 30.5847 51.7642 30.3921 51.7571C26.7893 51.623 23.8125 50.2763 23.8125 49.2399" fill="#F9EFE4"/>
<path d="M23.9877 45.7199C23.9896 45.74 23.9913 45.76 23.9931 45.78C24.0939 46.9575 23.9227 48.0597 23.8125 49.2399" fill="#F9EFE4"/>
<path d="M37.9623 45.7199C37.9604 45.7402 37.9585 45.7606 37.9567 45.781C37.8531 46.9419 37.855 48.2871 37.9623 49.4413" fill="#F9EFE4"/>
<path d="M25.1301 46.5515C25.2422 47.7517 25.1052 49.253 24.9931 50.4532L25.1301 46.5515Z" fill="#F9EFE4"/>
<path d="M30.3914 47.2371C30.5033 48.7417 30.5035 50.2525 30.3921 51.7571C30.3919 51.7601 30.3917 51.763 30.3914 51.766" fill="#F9EFE4"/>
<path d="M26.3877 46.8644C26.4931 48.0427 26.38 49.9431 26.2596 50.9991L26.3877 46.8644Z" fill="#F9EFE4"/>
<path d="M27.6713 47.0571C27.7767 48.2354 27.5998 50.3003 27.4831 51.3563L27.6713 47.0571Z" fill="#F9EFE4"/>
<path d="M29.018 47.1768C29.1234 48.3551 29.014 50.567 28.8973 51.623L29.018 47.1768Z" fill="#F9EFE4"/>
<path d="M31.8258 47.2333C31.9378 48.6944 31.9378 50.2868 31.8258 51.7479V47.2333Z" fill="#F9EFE4"/>
<path d="M33.247 47.1551C33.3581 48.6022 33.3581 50.1754 33.247 51.6226L33.247 51.623" fill="#F9EFE4"/>
<path d="M34.5458 47.0242C34.6569 48.4332 34.6569 49.9806 34.5458 51.3896V47.0242Z" fill="#F9EFE4"/>
<path d="M35.7787 46.8216C35.8899 48.1645 35.8899 49.7021 35.7787 51.0451V46.8216Z" fill="#F9EFE4"/>
<path d="M36.8442 46.567C36.9562 47.9105 36.9562 49.2611 36.8442 50.6046V46.567Z" fill="#F9EFE4"/>
<path fill-rule="evenodd" clip-rule="evenodd" d="M37.9623 45.7199C37.9623 45.7404 37.9604 45.7607 37.9567 45.781C37.9585 45.7606 37.9604 45.7402 37.9623 45.7199ZM34.5458 47.0242C34.5483 47.0239 34.5509 47.0236 34.5534 47.0232C34.5683 47.0213 34.5832 47.0194 34.5981 47.0174M23.9931 45.78C23.9895 45.76 23.9877 45.74 23.9877 45.7199C23.9896 45.74 23.9913 45.76 23.9931 45.78Z" fill="#F9EFE4"/>
<path d="M33.247 51.6226C35.9906 51.265 37.9623 50.3081 37.9623 49.4413C37.855 48.2871 37.8531 46.9419 37.9567 45.781C37.8611 46.3052 36.5399 46.7611 34.5981 47.0174C34.5832 47.0194 34.5683 47.0213 34.5534 47.0232C34.5509 47.0236 34.5483 47.0239 34.5458 47.0242C34.1379 47.077 33.7031 47.121 33.247 47.1551C33.3581 48.6022 33.3581 50.1754 33.247 51.6226Z" fill="#F9EFE4"/>
<path d="M30.3921 51.7571C30.5847 51.7642 30.7791 51.7679 30.975 51.7679C31.263 51.7679 31.5469 51.761 31.8258 51.7479C32.3171 51.7246 32.7926 51.6818 33.247 51.6226C33.3581 50.1754 33.3581 48.6022 33.247 47.1551C32.5347 47.2082 31.7703 47.2371 30.975 47.2371C30.2957 47.2371 29.639 47.216 29.018 47.1768C28.5918 47.1498 28.1824 47.1143 27.7941 47.0711C27.7529 47.0665 27.712 47.0618 27.6713 47.0571C26.6426 46.937 25.7684 46.7625 25.1301 46.5515C24.4552 46.3283 24.044 46.0641 23.9931 45.78C24.0939 46.9575 23.9227 48.0597 23.8125 49.2399C23.8125 50.2763 26.7893 51.623 30.3921 51.7571Z" fill="#F9EFE4"/>
<path d="M36.5016 44.7919C37.4164 45.0479 37.9623 45.3698 37.9623 45.7199M37.9623 45.7199C37.9623 45.7404 37.9604 45.7607 37.9567 45.781M37.9623 45.7199C37.9604 45.7402 37.9585 45.7606 37.9567 45.781M30.975 47.2371C29.8294 47.2371 28.7482 47.1772 27.7941 47.0711M30.975 47.2371C32.2828 47.2371 33.5067 47.159 34.5534 47.0232M30.975 47.2371C31.7703 47.2371 32.5347 47.2082 33.247 47.1551M30.975 47.2371C30.2957 47.2371 29.639 47.216 29.018 47.1768M23.9877 45.7199C23.9877 45.3698 24.5336 45.0479 25.4522 44.79M23.9877 45.7199C23.9877 45.74 23.9895 45.76 23.9931 45.78M23.9877 45.7199C23.9896 45.74 23.9913 45.76 23.9931 45.78M30.975 51.7679C31.7703 51.7679 32.5347 51.7155 33.247 51.6226M30.975 51.7679C30.7791 51.7679 30.5847 51.7642 30.3921 51.7571M30.975 51.7679C31.263 51.7679 31.5469 51.761 31.8258 51.7479M25.1301 46.5515C25.2422 47.7517 25.1052 49.253 24.9931 50.4532M25.1301 46.5515C25.7684 46.7625 26.6426 46.937 27.6713 47.0571M25.1301 46.5515C24.4552 46.3283 24.044 46.0641 23.9931 45.78M30.3914 47.2371C30.5033 48.7417 30.5035 50.2525 30.3921 51.7571M30.3914 51.766C30.3917 51.763 30.3919 51.7601 30.3921 51.7571M26.3877 46.8644C26.4931 48.0427 26.38 49.9431 26.2596 50.9991M27.6713 47.0571C27.7767 48.2354 27.5998 50.3003 27.4831 51.3563M27.6713 47.0571C27.712 47.0618 27.7529 47.0665 27.7941 47.0711M29.018 47.1768C29.1234 48.3551 29.014 50.567 28.8973 51.623M29.018 47.1768C28.5918 47.1498 28.1824 47.1143 27.7941 47.0711M31.8258 47.2333C31.9378 48.6944 31.9378 50.2868 31.8258 51.7479M31.8258 51.7479C32.3171 51.7246 32.7926 51.6818 33.247 51.6226M33.247 47.1551C33.7031 47.121 34.1379 47.077 34.5458 47.0242M33.247 47.1551C33.3581 48.6022 33.3581 50.1754 33.247 51.6226M33.247 51.623L33.247 51.6226M34.5458 47.0242C34.6569 48.4332 34.6569 49.9806 34.5458 51.3896M34.5458 47.0242C34.5483 47.0239 34.5509 47.0236 34.5534 47.0232M35.7787 46.8216C35.8899 48.1645 35.8899 49.7021 35.7787 51.0451M36.8442 46.567C36.9562 47.9105 36.9562 49.2611 36.8442 50.6046M37.9567 45.781C37.8531 46.9419 37.855 48.2871 37.9623 49.4413C37.9623 50.3081 35.9906 51.265 33.247 51.6226M37.9567 45.781C37.8611 46.3052 36.5399 46.7611 34.5981 47.0174C34.5832 47.0194 34.5683 47.0213 34.5534 47.0232M27.7941 47.0711C25.6115 46.8283 24.0941 46.3435 23.9931 45.78M23.9931 45.78C24.0939 46.9575 23.9227 48.0597 23.8125 49.2399C23.8125 50.2763 26.7893 51.623 30.3921 51.7571" stroke="#050504" stroke-width="0.565263" stroke-linecap="round" stroke-linejoin="round"/>
<path d="M25.6947 46.5106L25.7324 44.7224C25.2585 44.7583 24.0947 45.1473 24.0947 45.6636C24.0947 46.1799 25.2525 46.4748 25.6947 46.5106Z" fill="#050504"/>
<path d="M36.2359 46.5106L36.2262 44.8165C36.7 44.8524 37.7418 45.1473 37.7418 45.6636C37.7418 46.1799 36.6781 46.4748 36.2359 46.5106Z" fill="#050504"/>
<path d="M45.8963 25.3452C46.3917 25.3728 46.9435 24.7142 46.9089 24.096C46.9089 23.6728 46.9089 23.544 46.9089 23.1227L46.8871 22.4769C46.867 22.2929 46.8688 22.1972 46.8433 22.0353C46.8289 21.8497 46.8021 21.6653 46.7632 21.4833C46.2168 18.9075 44.8417 16.8505 42.8128 15.248C40.7839 13.6454 38.4945 12.8322 35.9593 12.5875C33.5025 12.3402 31.0248 12.7567 28.7797 13.7945C27.2081 14.5438 25.7444 15.505 24.4287 16.6518C24.4471 16.7214 24.4702 16.7896 24.4979 16.856C24.5787 16.9921 24.6036 17.1548 24.5672 17.3092C24.5308 17.4636 24.4359 17.5975 24.303 17.6821C23.0452 18.726 21.9461 19.9509 21.041 21.3177C20.0064 22.8052 19.3326 24.5176 19.074 26.3167C19.0267 26.6736 18.8081 26.7675 18.7353 27.1244C18.6754 27.4318 18.6431 27.744 18.6388 28.0572C18.6023 29.0986 18.7954 30.1161 18.9374 31.139C19.2015 33.0544 19.7352 34.8703 20.7952 36.5041C21.6676 37.8491 22.2121 38.7378 23.0918 40.0772C23.4996 40.728 23.953 41.3484 24.4487 41.9336C24.6745 42.1783 25.3028 42.7027 25.6434 42.5298C25.6343 41.6245 25.6835 40.6494 25.6434 39.6191C24.7129 38.973 23.7252 38.201 23.0025 37.3247C21.0774 34.2595 20.7278 33.0323 20.7915 30.7306C20.9227 28.7067 22.4908 27.6028 24.2283 27.888C24.7563 27.9918 25.2484 28.3203 25.6434 28.6892C26.0384 29.058 26.2279 29.4535 26.3719 29.9771C26.5293 30.5206 26.6393 31.1588 26.6451 31.725C27.0221 32.3506 27.7926 31.8676 28.4355 31.5383C28.7622 31.3797 29.0681 31.1807 29.3462 30.9458C31.3733 29.152 32.038 25.8163 31.5882 22.9111C33.9304 24.6737 44.4556 25.2624 45.8963 25.3452Z" fill="#050504"/>
<path d="M25.3229 13.3915C25.276 13.9614 25.111 14.5149 24.8384 15.0161C24.6162 14.9131 24.4232 15.0051 24.221 15.0989C22.8162 15.7666 21.607 16.7911 20.7114 18.0722C18.9739 20.464 17.6316 23.016 17.719 26.107C17.7336 26.589 17.8337 27.0269 18.2454 27.3176C18.1197 27.91 18.1434 28.5301 17.9558 29.1115C17.4458 30.6956 16.4441 31.8106 14.8159 32.1933C13.1421 32.587 11.5885 31.4573 11.206 29.6451C11.1192 29.327 11.1018 28.9936 11.155 28.6681C11.2006 28.4602 11.1441 28.3792 10.9274 28.3847C10.5405 28.3895 10.1549 28.3393 9.78179 28.2357C8.44678 27.8843 7.82936 26.8852 7.53613 25.6304C7.39528 25.0986 7.36594 24.5428 7.44999 23.9988C7.53404 23.4548 7.72964 22.9346 8.02424 22.4713C8.1572 22.2616 8.0807 22.1512 7.95503 21.9985C7.20101 21.0786 6.76026 20.0225 6.79487 18.821C6.84768 17.0639 8.63255 15.4228 10.3792 15.478C10.8855 15.4945 10.8873 15.4945 10.9019 15.0069C10.9583 13.11 11.9236 11.8074 13.5337 10.9445C14.5161 10.3805 15.6476 10.1388 16.7719 10.2527C16.8211 10.2527 16.8776 10.2527 16.9158 10.2674C17.3566 10.5323 17.6625 10.3152 18.0195 10.0374C18.7733 9.4801 19.6602 9.1353 20.5894 9.03836C20.644 9.09908 20.6895 9.08252 20.7332 9.02548C21.6876 8.94453 22.6001 9.06596 23.4452 9.56457C24.7911 10.3557 25.2974 11.5995 25.3357 13.1008C25.2967 13.1382 25.2736 13.1894 25.2713 13.2436C25.2689 13.2978 25.2874 13.3508 25.3229 13.3915Z" fill="#050504"/>
<path d="M45.8963 25.3452C46.3917 25.3728 46.9435 24.7142 46.9089 24.096C46.9089 23.6728 46.9089 23.544 46.9089 23.1227L46.8871 22.4769C46.867 22.2929 46.8688 22.1972 46.8433 22.0353C46.8289 21.8497 46.8021 21.6653 46.7632 21.4833C46.2168 18.9075 44.8417 16.8505 42.8128 15.248C40.7839 13.6454 38.4945 12.8322 35.9593 12.5875C33.5025 12.3402 31.0248 12.7567 28.7797 13.7945C27.2081 14.5438 25.7444 15.505 24.4287 16.6518C24.4471 16.7214 24.4702 16.7896 24.4979 16.856C24.5787 16.9921 24.6036 17.1548 24.5672 17.3092C24.5308 17.4636 24.4359 17.5975 24.303 17.6821C23.0452 18.726 21.9461 19.9509 21.041 21.3177C20.0064 22.8052 19.3326 24.5176 19.074 26.3167C19.0267 26.6736 18.8081 26.7675 18.7353 27.1244C18.6754 27.4318 18.6431 27.744 18.6388 28.0572C18.6023 29.0986 18.7954 30.1161 18.9374 31.139C19.2015 33.0544 19.7352 34.8703 20.7952 36.5041C21.6676 37.8491 22.2121 38.7378 23.0918 40.0772C23.4996 40.728 23.953 41.3484 24.4487 41.9336C24.6745 42.1783 25.3028 42.7027 25.6434 42.5298C25.6343 41.6245 25.6835 40.6494 25.6434 39.6191C24.7129 38.973 23.7252 38.201 23.0025 37.3247C21.0774 34.2595 20.7278 33.0323 20.7915 30.7306C20.9227 28.7067 22.4908 27.6028 24.2283 27.888C24.7563 27.9918 25.2484 28.3203 25.6434 28.6892C26.0384 29.058 26.2279 29.4535 26.3719 29.9771C26.5293 30.5206 26.6393 31.1588 26.6451 31.725C27.0221 32.3506 27.7926 31.8676 28.4355 31.5383C28.7622 31.3797 29.0681 31.1807 29.3462 30.9458C31.3733 29.152 32.038 25.8163 31.5882 22.9111C33.9304 24.6737 44.4556 25.2624 45.8963 25.3452Z" stroke="black" stroke-width="0.565263" stroke-linecap="round" stroke-linejoin="round"/>
<path d="M25.3229 13.3915C25.276 13.9614 25.111 14.5149 24.8384 15.0161C24.6162 14.9131 24.4232 15.0051 24.221 15.0989C22.8162 15.7666 21.607 16.7911 20.7114 18.0722C18.9739 20.464 17.6316 23.016 17.719 26.107C17.7336 26.589 17.8337 27.0269 18.2454 27.3176C18.1197 27.91 18.1434 28.5301 17.9558 29.1115C17.4458 30.6956 16.4441 31.8106 14.8159 32.1933C13.1421 32.587 11.5885 31.4573 11.206 29.6451C11.1192 29.327 11.1018 28.9936 11.155 28.6681C11.2006 28.4602 11.1441 28.3792 10.9274 28.3847C10.5405 28.3895 10.1549 28.3393 9.78179 28.2357C8.44678 27.8843 7.82936 26.8852 7.53613 25.6304C7.39528 25.0986 7.36594 24.5428 7.44999 23.9988C7.53404 23.4548 7.72964 22.9346 8.02424 22.4713C8.1572 22.2616 8.0807 22.1512 7.95503 21.9985C7.20101 21.0786 6.76026 20.0225 6.79487 18.821C6.84768 17.0639 8.63255 15.4228 10.3792 15.478C10.8855 15.4945 10.8873 15.4945 10.9019 15.0069C10.9583 13.11 11.9236 11.8074 13.5337 10.9445C14.5161 10.3805 15.6476 10.1388 16.7719 10.2527C16.8211 10.2527 16.8776 10.2527 16.9158 10.2674C17.3566 10.5323 17.6625 10.3152 18.0195 10.0374C18.7733 9.4801 19.6602 9.1353 20.5894 9.03836C20.644 9.09908 20.6895 9.08252 20.7332 9.02548C21.6876 8.94453 22.6001 9.06596 23.4452 9.56457C24.7911 10.3557 25.2974 11.5995 25.3357 13.1008C25.2967 13.1382 25.2736 13.1894 25.2713 13.2436C25.2689 13.2978 25.2874 13.3508 25.3229 13.3915Z" stroke="black" stroke-width="0.565263" stroke-linecap="round" stroke-linejoin="round"/>
<path d="M18.2443 27.3177C17.8326 27.0196 17.7325 26.5817 17.7179 26.107C17.6305 23.016 18.9728 20.4696 20.7103 18.0723C21.6059 16.7912 22.8151 15.7667 24.2199 15.099C24.4221 15.0052 24.6152 14.915 24.8374 15.0162C25.2818 15.3842 25.5131 15.8865 25.7844 16.3685C25.7998 16.4385 25.8198 16.5074 25.8445 16.5746C25.9198 16.7141 25.9381 16.8778 25.8956 17.0308C25.8531 17.1837 25.753 17.3138 25.6169 17.3933C24.3159 18.383 23.1665 19.5609 22.2056 20.8891C21.1106 22.3318 20.3675 24.0147 20.0364 25.8016C19.9745 26.1549 19.9672 26.5155 19.8798 26.8669C19.8329 27.1165 19.7108 27.3453 19.5301 27.5219C19.091 27.6031 18.6376 27.531 18.2443 27.3177ZM18.6449 25.2938V26.3149C18.6398 26.3768 18.6589 26.4381 18.6981 26.4859C18.7372 26.5337 18.7933 26.5642 18.8544 26.5707C18.9892 26.5799 19.011 26.4529 19.0056 26.337C19.0204 26.1463 19.0521 25.9572 19.1003 25.7722C19.2304 24.7014 19.5293 23.6585 19.9854 22.683C21.0445 20.4636 22.5949 18.5202 24.5168 17.0033C24.9302 16.6703 24.9485 16.5838 24.6224 16.1643C24.5368 16.0521 24.4731 16.0466 24.3565 16.1165C23.7996 16.4286 23.2765 16.7985 22.7957 17.2204C21.7029 18.2323 20.8706 19.4577 20.1584 20.7603C19.3862 22.1789 18.7287 23.6434 18.6449 25.3012V25.2938Z" fill="#050504"/>
<path d="M18.6455 25.3011C18.7293 23.6452 19.3868 22.1733 20.159 20.7639C20.8711 19.4613 21.6962 18.2359 22.7962 17.224C23.2771 16.8022 23.8002 16.4322 24.3571 16.1201C24.4737 16.0502 24.5392 16.0557 24.623 16.1679C24.949 16.5874 24.9308 16.6739 24.5174 17.0069C22.5979 18.5234 21.0494 20.4654 19.9914 22.6829C19.5353 23.6584 19.2365 24.7013 19.1063 25.7721C19.0581 25.9572 19.0264 26.1462 19.0116 26.337C19.0116 26.4529 18.9952 26.5798 18.8604 26.5706C18.8 26.5641 18.7445 26.5342 18.7054 26.4872C18.6664 26.4402 18.6469 26.3798 18.651 26.3186L18.6455 25.3011Z" fill="white"/>
<path d="M39.6687 30.5026C39.6061 30.3596 39.4394 30.2945 39.2964 30.3571C39.1535 30.4198 39.0883 30.5865 39.151 30.7294L39.6687 30.5026ZM39.7516 35.3594C39.6091 35.4231 39.5453 35.5903 39.609 35.7328C39.6727 35.8753 39.8398 35.9392 39.9823 35.8755L39.7516 35.3594ZM30.9186 26.3586C30.818 26.478 30.8333 26.6563 30.9527 26.7569C31.0721 26.8574 31.2504 26.8422 31.3509 26.7228L30.9186 26.3586ZM35.2358 24.7713L35.2835 24.4927L35.2815 24.4924L35.2358 24.7713ZM35.7538 25.2019C35.9001 25.2562 36.0628 25.1817 36.1171 25.0353C36.1715 24.889 36.0969 24.7263 35.9506 24.672L35.7538 25.2019ZM40.0547 25.1558C39.9395 25.2612 39.9316 25.44 40.037 25.5551C40.1424 25.6702 40.3212 25.6781 40.4364 25.5727L40.0547 25.1558ZM44.0374 24.4739L44.1563 24.2175L44.156 24.2173L44.0374 24.4739ZM44.36 24.9951C44.4846 25.0891 44.6618 25.0642 44.7558 24.9396C44.8498 24.815 44.825 24.6378 44.7004 24.5438L44.36 24.9951ZM39.4099 30.616C39.151 30.7294 39.151 30.7294 39.151 30.7295C39.151 30.7295 39.151 30.7295 39.151 30.7296C39.1511 30.7297 39.1511 30.7298 39.1512 30.7301C39.1514 30.7305 39.1517 30.7311 39.1521 30.732C39.1528 30.7337 39.154 30.7363 39.1555 30.7397C39.1585 30.7466 39.1629 30.7568 39.1688 30.7701C39.1804 30.7968 39.1975 30.8361 39.2193 30.8862C39.2629 30.9865 39.3251 31.1303 39.3999 31.3042C39.5494 31.6521 39.7486 32.1201 39.9478 32.6009C40.1471 33.0822 40.3454 33.5741 40.4935 33.9708C40.5676 34.1694 40.628 34.341 40.6694 34.4739C40.6902 34.5405 40.7053 34.5943 40.7148 34.6351C40.7257 34.6813 40.7253 34.6937 40.7253 34.6857H41.2906C41.2906 34.6249 41.2777 34.5594 41.2651 34.5059C41.2513 34.447 41.232 34.3791 41.2091 34.3056C41.1631 34.1583 41.0987 33.9757 41.023 33.7731C40.8714 33.3671 40.6702 32.868 40.47 32.3846C40.2696 31.9007 40.0693 31.4303 39.9192 31.081C39.8441 30.9063 39.7816 30.7618 39.7377 30.661C39.7158 30.6105 39.6986 30.571 39.6868 30.5441C39.681 30.5306 39.6764 30.5203 39.6734 30.5133C39.6719 30.5098 39.6707 30.5071 39.6699 30.5054C39.6695 30.5045 39.6692 30.5038 39.669 30.5033C39.6689 30.5031 39.6689 30.5029 39.6688 30.5028C39.6688 30.5027 39.6688 30.5027 39.6688 30.5027C39.6687 30.5026 39.6687 30.5026 39.4099 30.616ZM40.7253 34.6857C40.7253 34.6719 40.7266 34.7123 40.6297 34.8094C40.5441 34.8951 40.4215 34.9854 40.2865 35.0707C40.1536 35.1547 40.0192 35.2273 39.9171 35.2792C39.8663 35.3051 39.8242 35.3255 39.7951 35.3393C39.7805 35.3461 39.7692 35.3514 39.7618 35.3548C39.7581 35.3565 39.7553 35.3577 39.7536 35.3585C39.7528 35.3589 39.7522 35.3592 39.7518 35.3593C39.7517 35.3594 39.7515 35.3595 39.7515 35.3595C39.7515 35.3595 39.7515 35.3595 39.7515 35.3595C39.7515 35.3595 39.7516 35.3595 39.7516 35.3595C39.7516 35.3594 39.7516 35.3594 39.867 35.6174C39.9823 35.8755 39.9824 35.8754 39.9824 35.8754C39.9825 35.8754 39.9825 35.8754 39.9825 35.8754C39.9826 35.8753 39.9827 35.8753 39.9829 35.8752C39.9831 35.8751 39.9834 35.875 39.9838 35.8748C39.9846 35.8745 39.9856 35.874 39.9869 35.8734C39.9895 35.8722 39.9931 35.8706 39.9978 35.8684C40.0071 35.8642 40.0203 35.858 40.037 35.8501C40.0702 35.8344 40.1172 35.8116 40.1734 35.7831C40.2852 35.7262 40.436 35.6449 40.5884 35.5486C40.7387 35.4537 40.9013 35.3374 41.0297 35.2089C41.1466 35.0917 41.2906 34.9103 41.2906 34.6857H40.7253ZM31.3509 26.7228C32.3784 25.5031 33.8539 24.8313 35.1901 25.0502L35.2815 24.4924C33.6989 24.2332 32.0381 25.0297 30.9186 26.3586L31.3509 26.7228ZM35.1882 25.0499C35.381 25.0829 35.5703 25.1338 35.7538 25.2019L35.9506 24.672C35.7342 24.5917 35.5109 24.5316 35.2835 24.4927L35.1882 25.0499ZM40.4364 25.5727C41.5222 24.5787 42.8621 24.2421 43.9189 24.7305L44.156 24.2173C42.826 23.6027 41.247 24.0642 40.0547 25.1558L40.4364 25.5727ZM43.9185 24.7303C44.0745 24.8026 44.2225 24.8914 44.36 24.9951L44.7004 24.5438C44.531 24.416 44.3486 24.3067 44.1563 24.2175L43.9185 24.7303Z" fill="#050504"/>
<path d="M36.1934 37.7788C36.752 39.0852 38.6849 39.3992 39.5656 39.251" stroke="#050504" stroke-width="0.565263" stroke-miterlimit="10" stroke-linecap="round"/>
<path d="M35.1592 31.403C35.7428 31.403 36.2158 30.7541 36.2158 29.9536C36.2158 29.1531 35.7428 28.5042 35.1592 28.5042C34.5756 28.5042 34.1025 29.1531 34.1025 29.9536C34.1025 30.7541 34.5756 31.403 35.1592 31.403Z" fill="#050504"/>
<path d="M35.8541 29.4301C35.5712 28.3534 34.1567 28.1859 33.1338 29.0819" stroke="#050504" stroke-width="0.565263" stroke-linecap="round"/>
<path d="M43.4248 30.8795C44.0084 30.8795 44.4815 30.2306 44.4815 29.4301C44.4815 28.6296 44.0084 27.9807 43.4248 27.9807C42.8412 27.9807 42.3682 28.6296 42.3682 29.4301C42.3682 30.2306 42.8412 30.8795 43.4248 30.8795Z" fill="#050504"/>
<path d="M44.1197 28.9069C43.8368 27.8302 42.4223 27.6627 41.3994 28.5587" stroke="#050504" stroke-width="0.565263" stroke-linecap="round"/>
<path d="M32.0272 9.25869C28.1053 9.53598 18.5706 10.8711 18.8284 14.5649C19.0861 18.2587 30.5656 17.8617 32.6156 17.7161C34.6656 17.5706 46.1891 16.4683 45.9246 12.6478C45.699 9.44178 37.7635 8.85306 32.0272 9.25869ZM32.424 16.1055C26.6673 16.5128 20.48 15.5303 20.3968 14.3458C20.3138 13.1613 26.1874 11.3931 32.0747 10.9755C38.0196 10.5493 44.1697 11.3453 44.2612 12.6632C44.3527 13.9813 38.179 15.7015 32.424 16.1088V16.1055Z" fill="#69F0ED"/>
</g>
<path d="M32 63.9216C14.6391 63.9216 0.565263 49.8477 0.565263 32.4868H-0.565263C-0.565263 50.4721 14.0147 65.0521 32 65.0521V63.9216ZM63.4347 32.4868C63.4347 49.8477 49.3609 63.9216 32 63.9216V65.0521C49.9853 65.0521 64.5653 50.4721 64.5653 32.4868H63.4347ZM32 1.05208C49.3609 1.05208 63.4347 15.1259 63.4347 32.4868H64.5653C64.5653 14.5015 49.9853 -0.0784464 32 -0.0784464V1.05208ZM32 -0.0784464C14.0147 -0.0784464 -0.565263 14.5015 -0.565263 32.4868H0.565263C0.565263 15.1259 14.6391 1.05208 32 1.05208V-0.0784464Z" fill="#050504"/>
<defs>
<clipPath id="clip0_550:5069">
<path d="M0 32.4868C0 14.8137 14.3269 0.486816 32 0.486816C49.6731 0.486816 64 14.8137 64 32.4868C64 50.1599 49.6731 64.4868 32 64.4868C14.3269 64.4868 0 50.1599 0 32.4868Z" fill="white"/>
</clipPath>
</defs>
</svg>

