<svg width="65" height="65" viewBox="0 0 65 65" fill="none" xmlns="http://www.w3.org/2000/svg">
<g clip-path="url(#clip0_550:5070)">
<path d="M0.979492 32.4868C0.979492 14.8137 15.3064 0.486816 32.9795 0.486816C50.6526 0.486816 64.9795 14.8137 64.9795 32.4868C64.9795 50.1599 50.6526 64.4868 32.9795 64.4868C15.3064 64.4868 0.979492 50.1599 0.979492 32.4868Z" fill="white"/>
<rect x="0.979492" y="0.486816" width="64.0631" height="64.0631" fill="#A677E0" fill-opacity="0.5"/>
<circle cx="33.0111" cy="32.5184" r="30.1474" stroke="white" stroke-width="3.76842"/>
<path d="M37.6601 43.3037C36.2943 43.2623 32.242 41.9691 31.4364 41.3724L37.6601 43.3037Z" fill="#F1CF73"/>
<path d="M38.2221 49.6773C40.7419 53.2067 48.8895 54.2544 50.2796 54.7589C52.5597 55.6229 52.9475 57.9588 52.9812 59.2313C53.0786 62.8567 53.5039 69.076 52.2318 72.3626" fill="#F1CF73"/>
<path d="M38.2221 49.6773C36.6934 46.9216 37.6601 43.3037 37.6601 43.3037C37.6601 43.3037 40.622 43.4448 41.8098 42.8368C44.0936 41.8524 46.8064 38.2514 46.7783 33.0957C46.7135 28.4527 45.7376 23.8682 43.9063 19.6048C42.2538 15.3112 32.0003 11.298 24.2759 18.7973C24.2759 18.7973 20.1112 22.6222 22.5298 28.979" fill="#F1CF73"/>
<path d="M10.5282 72.3626C9.42842 68.8219 9.8612 59.5118 10.0204 58.1979C10.1797 56.884 10.7942 54.2186 14.0484 53.4073C15.4873 53.044 24.497 51.5804 26.3255 49.0411" fill="#F1CF73"/>
<path d="M26.7676 39.4411C26.7676 39.4411 23.742 37.715 22.5354 34.1159C21.3289 30.5168 22.5298 28.979 22.5298 28.979C23.4984 27.5277 27.3522 27.1719 27.3522 31.5502" fill="#F1CF73"/>
<path d="M26.7676 39.4411C26.9981 44.0152 27.0562 46.114 26.3255 49.0411L26.7676 39.4411Z" fill="#F1CF73"/>
<path d="M38.2221 49.6773C40.7419 53.2067 48.8895 54.2544 50.2796 54.7589C52.5597 55.6229 52.9475 57.9588 52.9812 59.2313C53.0786 62.8567 53.5039 69.076 52.2318 72.3626H10.5282C9.42842 68.8219 9.8612 59.5118 10.0204 58.1979C10.1797 56.884 10.7942 54.2186 14.0484 53.4073C15.4873 53.044 24.497 51.5804 26.3255 49.0411C27.0562 46.114 26.9981 44.0152 26.7676 39.4411C26.7676 39.4411 23.742 37.715 22.5354 34.1159C21.3289 30.5168 22.5298 28.979 22.5298 28.979C20.1112 22.6222 24.2759 18.7973 24.2759 18.7973C32.0003 11.298 42.2538 15.3112 43.9063 19.6048C45.7376 23.8682 46.7135 28.4527 46.7783 33.0957C46.8064 38.2514 44.0936 41.8524 41.8098 42.8368C40.622 43.4448 37.6601 43.3037 37.6601 43.3037C37.6601 43.3037 36.6934 46.9216 38.2221 49.6773Z" fill="#F1CF73"/>
<path opacity="0.4" d="M37.6169 43.1587C37.4355 44.4398 37.1545 46.3222 37.6169 47.8281C35.9027 47.4196 31.0635 44.0585 31.0635 41.3291C33.1808 42.16 35.3765 42.773 37.6169 43.1587Z" fill="#050504"/>
<path d="M24.7375 30.0398C24.0068 30.2393 23.5085 31.348 24.0892 32.5433" stroke="#050504" stroke-width="0.565263" stroke-linecap="round"/>
<path d="M10.18 70.9511C9.07509 67.4104 9.50991 58.1003 9.66991 56.7864C9.82991 55.4725 10.4473 52.8071 13.717 51.9958C14.9633 51.6826 21.823 50.6992 24.8678 48.8067C25.0889 47.8615 25.0852 46.7056 24.9076 45.4366C25.2814 46.1978 28.2495 46.7911 31.8551 46.7911C35.4732 46.7911 38.4492 46.1938 38.8065 45.4288C38.572 46.7038 38.558 47.9561 38.7973 49.2316C41.9022 52.0747 48.8408 52.8854 50.1197 53.3473C52.4106 54.2113 52.8002 56.5473 52.8341 57.8198C52.932 61.4452 53.3593 67.6645 52.0811 70.9511H10.18Z" fill="#EB8682"/>
<path d="M37.6851 44.3459C38.5999 44.6038 38.8424 44.9257 38.8424 45.2739C38.8424 45.3262 38.8302 45.3779 38.8065 45.4288M26.3323 44.3459C25.4137 44.6019 24.8678 44.9238 24.8678 45.2739C24.8678 45.3289 24.8813 45.3832 24.9076 45.4366M24.8811 45.2551C24.8903 45.3159 24.8991 45.3764 24.9076 45.4366M38.8142 45.3869C38.8116 45.4008 38.809 45.4148 38.8065 45.4288M24.9076 45.4366C25.0852 46.7056 25.0889 47.8615 24.8678 48.8067C21.823 50.6992 14.9633 51.6826 13.717 51.9958C10.4473 52.8071 9.82991 55.4725 9.66991 56.7864C9.50991 58.1003 9.07509 67.4104 10.18 70.9511H52.0811C53.3593 67.6645 52.932 61.4452 52.8341 57.8198C52.8002 56.5473 52.4106 54.2113 50.1197 53.3473C48.8408 52.8854 41.9022 52.0747 38.7973 49.2316C38.558 47.9561 38.572 46.7038 38.8065 45.4288M24.9076 45.4366C25.2814 46.1978 28.2495 46.7911 31.8551 46.7911C35.4732 46.7911 38.4492 46.1938 38.8065 45.4288" stroke="#050504" stroke-width="0.565263" stroke-linecap="round" stroke-linejoin="round"/>
<mask id="mask0_550:5070" style="mask-type:alpha" maskUnits="userSpaceOnUse" x="9" y="46" width="44" height="25">
<path d="M25.2339 48.8924C25.4152 48.1173 25.452 47.2239 25.3767 46.2634C25.4161 46.2815 25.4564 46.2992 25.4975 46.3165C25.9172 46.4928 26.4633 46.6443 27.0964 46.7687C28.3652 47.018 30.0338 47.1676 31.8546 47.1676C33.6817 47.1676 35.3555 47.0169 36.626 46.7661C37.2598 46.641 37.8061 46.4885 38.2248 46.3109C38.2516 46.2996 38.2781 46.2881 38.3041 46.2763C38.2007 47.2828 38.2361 48.2845 38.4267 49.301C38.4418 49.3811 38.4824 49.4542 38.5425 49.5092C40.1676 50.9973 42.7577 51.9289 45.0447 52.5459C46.1968 52.8567 47.2898 53.092 48.1695 53.2775L48.3647 53.3187C49.1586 53.4859 49.7216 53.6045 49.989 53.7005C52.0424 54.4766 52.424 56.5801 52.4573 57.83C52.47 58.3036 52.4883 58.8186 52.5076 59.3637L52.5076 59.3639C52.5628 60.9207 52.6267 62.7228 52.5967 64.5062C52.5581 66.8025 52.3632 69.0091 51.8181 70.5746H10.4623C9.98953 68.8189 9.83557 65.829 9.8266 63.0325C9.8172 60.1036 9.96594 57.4658 10.0431 56.8319C10.1202 56.1987 10.3052 55.2668 10.846 54.4023C11.3799 53.5489 12.2718 52.7422 13.8071 52.3612L13.8082 52.3609C14.0391 52.3029 14.4775 52.2197 15.072 52.1069C15.2444 52.0742 15.4299 52.039 15.6272 52.0012C16.4947 51.8351 17.5697 51.6226 18.7024 51.3602C20.9517 50.8392 23.4846 50.1094 25.0661 49.1265C25.1508 49.0738 25.2112 48.9896 25.2339 48.8924Z" fill="#EB8682"/>
</mask>
<g mask="url(#mask0_550:5070)">
<path d="M9.63775 42.6519C9.63775 42.6519 23.0593 48.7747 31.6613 48.7695C39.9693 48.7645 52.9319 42.6519 52.9319 42.6519V45.2871C52.9319 45.2871 39.9687 50.9304 31.6613 50.9342C23.0598 50.9381 9.63775 45.4754 9.63775 45.4754V42.6519Z" fill="white"/>
<path d="M9.6377 48.2989C9.6377 48.2989 23.0592 52.5394 31.6612 52.5342C39.9692 52.5292 52.9318 48.2989 52.9318 48.2989V50.9342C52.9318 50.9342 39.9686 54.6951 31.6612 54.6989C23.0598 54.7028 9.6377 51.1224 9.6377 51.1224V48.2989Z" fill="white"/>
<path d="M9.6377 52.0636C9.6377 52.0636 23.0592 56.3041 31.6612 56.2989C39.9692 56.2939 52.9318 52.0636 52.9318 52.0636V54.6989C52.9318 54.6989 39.9686 58.4599 31.6612 58.4636C23.0598 58.4675 9.6377 54.8871 9.6377 54.8871V52.0636Z" fill="white"/>
<path d="M9.6377 56.0166C9.6377 56.0166 23.0592 60.2571 31.6612 60.2519C39.9692 60.2468 52.9318 56.0166 52.9318 56.0166V58.6519C52.9318 58.6519 39.9686 62.4128 31.6612 62.4166C23.0598 62.4205 9.6377 58.8401 9.6377 58.8401V56.0166Z" fill="white"/>
<path d="M9.6377 60.5342C9.6377 60.5342 23.0592 64.0218 31.6612 64.0166C39.9692 64.0115 52.9318 60.7224 52.9318 60.7224V63.3577C52.9318 63.3577 39.9686 66.1775 31.6612 66.1813C23.0598 66.1852 9.6377 63.3577 9.6377 63.3577V60.5342Z" fill="white"/>
<path d="M9.6377 65.0519C9.6377 65.0519 23.0592 67.41 31.6612 67.4048C39.9692 67.3998 52.9318 65.0519 52.9318 65.0519V67.6872C52.9318 67.6872 39.9686 69.5657 31.6612 69.5695C23.0598 69.5734 9.6377 67.8754 9.6377 67.8754V65.0519Z" fill="white"/>
</g>
<path d="M26.3909 45.9459L26.6168 44.3459C26.1462 44.3773 25.0732 44.8354 25.0732 45.2871C25.0732 45.7389 25.9517 45.9146 26.3909 45.9459Z" fill="#050504"/>
<path d="M37.1203 46.0401L37.4027 44.3459C37.8732 44.3773 38.7203 44.8354 38.7203 45.2871C38.7203 45.7389 37.5595 46.0087 37.1203 46.0401Z" fill="#050504"/>
<path d="M44.7 22.2078C42.8295 23.2786 35.6627 24.0017 33.499 23.7551C32.4864 23.6392 30.5285 23.4497 29.3446 23.3172C29.3083 23.3187 29.2732 23.3312 29.2439 23.353C29.2146 23.3748 29.1925 23.405 29.1803 23.4396C29.1682 23.4743 29.1666 23.5118 29.1757 23.5474C29.1849 23.5829 29.2044 23.6149 29.2317 23.6392C34.2895 27.0117 27.7856 34.8036 27.4469 30.4817C26.7875 26.9271 23.7114 28.215 23.3471 28.4376C22.9083 28.7149 22.5407 29.0932 22.2744 29.5416C21.9447 30.0733 21.7717 32.9159 23.4619 35.8266C23.4814 35.8635 23.4879 35.906 23.4803 35.9472C23.4727 35.9883 23.4514 36.0256 23.42 36.0529L22.8117 36.535C22.7922 36.5492 22.7701 36.5593 22.7468 36.5649C22.7234 36.5705 22.6991 36.5713 22.6754 36.5674C22.6517 36.5635 22.6291 36.5548 22.6087 36.542C22.5883 36.5292 22.5706 36.5124 22.5567 36.4926C14.41 23.9354 20.2582 21.3817 21.1324 21.0836C21.1631 21.0716 21.19 21.0513 21.2102 21.0251C21.2304 20.9989 21.2431 20.9676 21.2472 20.9346C21.5914 17.4186 23.7715 13.3653 28.6817 12.5907C31.3189 12.1473 33.9744 12.622 35.5571 13.2531H35.5698C37.4986 13.8823 38.9665 12.7729 40.6895 11.1004C40.7132 11.0775 40.7413 11.0597 40.772 11.0482C40.8028 11.0366 40.8355 11.0316 40.8683 11.0333C40.901 11.035 40.9331 11.0435 40.9625 11.0582C40.9919 11.0729 41.018 11.0935 41.0392 11.1188C41.7841 12.0148 41.7458 12.6514 41.4854 13.2016C41.4742 13.2329 41.4717 13.2667 41.478 13.2994C41.4844 13.332 41.4994 13.3623 41.5214 13.3871C41.5435 13.4118 41.5718 13.43 41.6033 13.4398C41.6348 13.4496 41.6683 13.4506 41.7003 13.4426C43.2648 12.8649 46.6925 13.5511 48.0002 12.622C48.0251 12.6066 48.0533 12.5976 48.0824 12.5955C48.1115 12.5935 48.1407 12.5985 48.1675 12.6102C48.1943 12.622 48.2178 12.64 48.2363 12.6629C48.2547 12.6857 48.2674 12.7127 48.2734 12.7416C48.8216 17.0267 47.2808 20.7727 44.7 22.2078Z" fill="#050504" stroke="#050504" stroke-width="0.565263" stroke-linecap="round" stroke-linejoin="bevel"/>
<path d="M38.5756 29.6879C38.5756 29.844 38.7021 29.9705 38.8582 29.9705C39.0143 29.9705 39.1408 29.844 39.1408 29.6879H38.5756ZM41.4739 29.3773C41.4739 29.5334 41.6004 29.6599 41.7565 29.6599C41.9126 29.6599 42.0391 29.5334 42.0391 29.3773H41.4739ZM33.0797 29.8049C33.2285 29.8519 33.3873 29.7693 33.4342 29.6204C33.4812 29.4716 33.3986 29.3128 33.2497 29.2659L33.0797 29.8049ZM23.0779 28.0615L23.1993 28.3169L23.2083 28.3122L23.0779 28.0615ZM21.3012 31.0628C21.3297 31.2163 21.4773 31.3176 21.6307 31.289C21.7842 31.2605 21.8855 31.113 21.857 30.9595L21.3012 31.0628ZM38.5756 29.5354C38.5756 31.2376 37.3907 32.545 36.0124 32.545V33.1103C37.7774 33.1103 39.1408 31.4697 39.1408 29.5354H38.5756ZM36.0124 32.545C34.634 32.545 33.4492 31.2376 33.4492 29.5354H32.8839C32.8839 31.4697 34.2473 33.1103 36.0124 33.1103V32.545ZM33.4492 29.5354C33.4492 27.8332 34.634 26.5258 36.0124 26.5258V25.9605C34.2473 25.9605 32.8839 27.6011 32.8839 29.5354H33.4492ZM36.0124 26.5258C37.3907 26.5258 38.5756 27.8332 38.5756 29.5354H39.1408C39.1408 27.6011 37.7774 25.9605 36.0124 25.9605V26.5258ZM47.1393 28.8992C47.1393 30.6014 45.9544 31.9088 44.5761 31.9088V32.474C46.3411 32.474 47.7045 30.8335 47.7045 28.8992H47.1393ZM44.5761 31.9088C43.1977 31.9088 42.0129 30.6014 42.0129 28.8992H41.4476C41.4476 30.8335 42.811 32.474 44.5761 32.474V31.9088ZM42.0129 28.8992C42.0129 27.1969 43.1977 25.8896 44.5761 25.8896V25.3243C42.811 25.3243 41.4476 26.9649 41.4476 28.8992H42.0129ZM44.5761 25.8896C45.9544 25.8896 47.1393 27.1969 47.1393 28.8992H47.7045C47.7045 26.9649 46.3411 25.3243 44.5761 25.3243V25.8896ZM39.1408 29.6879C39.1408 29.4803 39.2488 29.3106 39.4627 29.1745C39.683 29.0345 39.9949 28.9474 40.3245 28.9274C40.6543 28.9074 40.968 28.9565 41.1871 29.0557C41.4083 29.1558 41.4739 29.2727 41.4739 29.3773H42.0391C42.0391 28.9577 41.7424 28.6866 41.4202 28.5407C41.0958 28.3939 40.685 28.3392 40.2902 28.3632C39.8952 28.3872 39.4826 28.492 39.1594 28.6975C38.8299 28.9071 38.5756 29.2366 38.5756 29.6879H39.1408ZM33.1647 29.5354C33.2497 29.2659 33.2497 29.2659 33.2496 29.2658C33.2495 29.2658 33.2494 29.2658 33.2493 29.2657C33.249 29.2656 33.2486 29.2655 33.2481 29.2653C33.247 29.265 33.2455 29.2645 33.2435 29.2639C33.2395 29.2626 33.2335 29.2608 33.2258 29.2584C33.2102 29.2535 33.1872 29.2464 33.1572 29.2371C33.0972 29.2186 33.0091 29.1916 32.8965 29.1578C32.6712 29.0901 32.3474 28.9946 31.9527 28.8835C31.1635 28.6613 30.0888 28.3759 28.9488 28.1237C27.8104 27.8718 26.5996 27.6514 25.5401 27.5615C25.0104 27.5166 24.5122 27.5037 24.0762 27.5377C23.6443 27.5714 23.2516 27.6525 22.9474 27.8108L23.2083 28.3122C23.4151 28.2046 23.7209 28.1324 24.1201 28.1013C24.5152 28.0705 24.9806 28.0814 25.4924 28.1248C26.5158 28.2116 27.699 28.4261 28.8267 28.6756C29.953 28.9248 31.0168 29.2073 31.7995 29.4276C32.1907 29.5377 32.5112 29.6322 32.7338 29.6991C32.845 29.7326 32.9318 29.7591 32.9906 29.7772C33.02 29.7863 33.0424 29.7933 33.0574 29.798C33.0649 29.8003 33.0705 29.8021 33.0742 29.8032C33.0761 29.8038 33.0775 29.8043 33.0784 29.8045C33.0789 29.8047 33.0792 29.8048 33.0794 29.8049C33.0795 29.8049 33.0796 29.8049 33.0796 29.8049C33.0797 29.8049 33.0797 29.8049 33.1647 29.5354ZM22.9565 27.8063C22.361 28.0895 21.8758 28.5627 21.5765 29.1518L22.0804 29.4079C22.3233 28.9298 22.7169 28.5462 23.1993 28.3168L22.9565 27.8063ZM21.5765 29.1518C21.2771 29.7409 21.1804 30.4128 21.3012 31.0628L21.857 30.9595C21.7588 30.4316 21.8374 29.886 22.0804 29.4079L21.5765 29.1518Z" fill="#050504"/>
<path d="M40.6482 30.5026C40.5856 30.3596 40.4189 30.2945 40.2759 30.3571C40.133 30.4198 40.0678 30.5865 40.1305 30.7294L40.6482 30.5026ZM40.7311 35.3594C40.5886 35.4231 40.5247 35.5903 40.5885 35.7328C40.6522 35.8753 40.8193 35.9392 40.9618 35.8755L40.7311 35.3594ZM31.8981 26.3586C31.7975 26.478 31.8128 26.6563 31.9322 26.7569C32.0515 26.8574 32.2299 26.8422 32.3304 26.7228L31.8981 26.3586ZM36.2153 24.7713L36.263 24.4927L36.261 24.4924L36.2153 24.7713ZM36.7333 25.2019C36.8796 25.2562 37.0423 25.1817 37.0966 25.0353C37.151 24.889 37.0764 24.7263 36.9301 24.672L36.7333 25.2019ZM41.0342 25.1558C40.919 25.2612 40.9111 25.44 41.0165 25.5551C41.1219 25.6702 41.3007 25.6781 41.4158 25.5727L41.0342 25.1558ZM45.0169 24.4739L45.1358 24.2175L45.1355 24.2173L45.0169 24.4739ZM45.3394 24.9951C45.4641 25.0891 45.6413 25.0642 45.7353 24.9396C45.8293 24.815 45.8045 24.6378 45.6799 24.5438L45.3394 24.9951ZM40.3893 30.616C40.1305 30.7294 40.1305 30.7294 40.1305 30.7295C40.1305 30.7295 40.1305 30.7295 40.1305 30.7296C40.1306 30.7297 40.1306 30.7298 40.1307 30.7301C40.1309 30.7305 40.1312 30.7311 40.1316 30.732C40.1323 30.7337 40.1335 30.7363 40.135 30.7397C40.138 30.7466 40.1424 30.7568 40.1483 30.7701C40.1599 30.7968 40.177 30.8361 40.1988 30.8862C40.2424 30.9865 40.3046 31.1303 40.3794 31.3042C40.5289 31.6521 40.7281 32.1201 40.9273 32.6009C41.1266 33.0822 41.3249 33.5741 41.4729 33.9708C41.5471 34.1694 41.6075 34.341 41.6489 34.4739C41.6697 34.5405 41.6847 34.5943 41.6943 34.6351C41.7052 34.6813 41.7048 34.6937 41.7048 34.6857H42.2701C42.2701 34.6249 42.2572 34.5594 42.2446 34.5059C42.2308 34.447 42.2115 34.3791 42.1886 34.3056C42.1426 34.1583 42.0782 33.9757 42.0025 33.7731C41.8509 33.3671 41.6497 32.868 41.4495 32.3846C41.2491 31.9007 41.0488 31.4303 40.8987 31.081C40.8236 30.9063 40.7611 30.7618 40.7172 30.661C40.6953 30.6105 40.6781 30.571 40.6663 30.5441C40.6605 30.5306 40.6559 30.5203 40.6529 30.5133C40.6514 30.5098 40.6502 30.5071 40.6494 30.5054C40.649 30.5045 40.6487 30.5038 40.6485 30.5033C40.6484 30.5031 40.6484 30.5029 40.6483 30.5028C40.6483 30.5027 40.6483 30.5027 40.6482 30.5027C40.6482 30.5026 40.6482 30.5026 40.3893 30.616ZM41.7048 34.6857C41.7048 34.6719 41.7061 34.7123 41.6092 34.8094C41.5236 34.8951 41.401 34.9854 41.266 35.0707C41.1331 35.1547 40.9987 35.2273 40.8966 35.2792C40.8458 35.3051 40.8037 35.3255 40.7745 35.3393C40.76 35.3461 40.7487 35.3514 40.7413 35.3548C40.7376 35.3565 40.7348 35.3577 40.7331 35.3585C40.7323 35.3589 40.7316 35.3592 40.7313 35.3593C40.7311 35.3594 40.731 35.3595 40.731 35.3595C40.731 35.3595 40.731 35.3595 40.731 35.3595C40.731 35.3595 40.731 35.3595 40.7311 35.3595C40.7311 35.3594 40.7311 35.3594 40.8465 35.6174C40.9618 35.8755 40.9619 35.8754 40.9619 35.8754C40.9619 35.8754 40.962 35.8754 40.962 35.8754C40.9621 35.8753 40.9622 35.8753 40.9624 35.8752C40.9626 35.8751 40.9629 35.875 40.9633 35.8748C40.9641 35.8745 40.9651 35.874 40.9664 35.8734C40.969 35.8722 40.9726 35.8706 40.9773 35.8684C40.9866 35.8642 40.9998 35.858 41.0165 35.8501C41.0497 35.8344 41.0967 35.8116 41.1529 35.7831C41.2647 35.7262 41.4155 35.6449 41.5679 35.5486C41.7182 35.4537 41.8808 35.3374 42.0091 35.2089C42.1261 35.0917 42.2701 34.9103 42.2701 34.6857H41.7048ZM32.3304 26.7228C33.3579 25.5031 34.8334 24.8313 36.1696 25.0502L36.261 24.4924C34.6784 24.2332 33.0176 25.0297 31.8981 26.3586L32.3304 26.7228ZM36.1676 25.0499C36.3605 25.0829 36.5498 25.1338 36.7333 25.2019L36.9301 24.672C36.7137 24.5917 36.4904 24.5316 36.263 24.4927L36.1676 25.0499ZM41.4158 25.5727C42.5017 24.5787 43.8416 24.2421 44.8984 24.7305L45.1355 24.2173C43.8055 23.6027 42.2265 24.0642 41.0342 25.1558L41.4158 25.5727ZM44.898 24.7303C45.054 24.8026 45.202 24.8914 45.3394 24.9951L45.6799 24.5438C45.5105 24.416 45.3281 24.3067 45.1358 24.2175L44.898 24.7303Z" fill="#050504"/>
<path d="M37.1729 37.7788C37.7315 39.0852 39.6643 39.3992 40.5451 39.251" stroke="#050504" stroke-width="0.565263" stroke-miterlimit="10" stroke-linecap="round"/>
<path d="M36.1387 31.403C36.7222 31.403 37.1953 30.7541 37.1953 29.9536C37.1953 29.1531 36.7222 28.5042 36.1387 28.5042C35.5551 28.5042 35.082 29.1531 35.082 29.9536C35.082 30.7541 35.5551 31.403 36.1387 31.403Z" fill="#050504"/>
<path d="M36.8336 29.4301C36.5507 28.3534 35.1362 28.1859 34.1133 29.0819" stroke="#050504" stroke-width="0.565263" stroke-linecap="round"/>
<path d="M44.4043 30.8795C44.9879 30.8795 45.4609 30.2306 45.4609 29.4301C45.4609 28.6296 44.9879 27.9807 44.4043 27.9807C43.8207 27.9807 43.3477 28.6296 43.3477 29.4301C43.3477 30.2306 43.8207 30.8795 44.4043 30.8795Z" fill="#050504"/>
<path d="M45.0992 28.9069C44.8163 27.8302 43.4018 27.6627 42.3789 28.5587" stroke="#050504" stroke-width="0.565263" stroke-linecap="round"/>
<path d="M32.0653 9.25869C28.1433 9.53598 18.6087 10.8711 18.8665 14.5649C19.1242 18.2587 30.6037 17.8617 32.6537 17.7161C34.7037 17.5706 46.2272 16.4683 45.9627 12.6478C45.7371 9.44178 37.8016 8.85306 32.0653 9.25869ZM32.4621 16.1055C26.7054 16.5128 20.5181 15.5303 20.4349 14.3458C20.3519 13.1613 26.2255 11.3931 32.1128 10.9755C38.0577 10.5493 44.2078 11.3453 44.2993 12.6632C44.3908 13.9813 38.217 15.7015 32.4621 16.1088V16.1055Z" fill="#69F0ED"/>
</g>
<path d="M32.9795 63.9216C15.6186 63.9216 1.54476 49.8477 1.54476 32.4868H0.414229C0.414229 50.4721 14.9942 65.0521 32.9795 65.0521V63.9216ZM64.4142 32.4868C64.4142 49.8477 50.3404 63.9216 32.9795 63.9216V65.0521C50.9648 65.0521 65.5448 50.4721 65.5448 32.4868H64.4142ZM32.9795 1.05208C50.3404 1.05208 64.4142 15.1259 64.4142 32.4868H65.5448C65.5448 14.5015 50.9648 -0.0784464 32.9795 -0.0784464V1.05208ZM32.9795 -0.0784464C14.9942 -0.0784464 0.414229 14.5015 0.414229 32.4868H1.54476C1.54476 15.1259 15.6186 1.05208 32.9795 1.05208V-0.0784464Z" fill="#050504"/>
<defs>
<clipPath id="clip0_550:5070">
<path d="M0.979492 32.4868C0.979492 14.8137 15.3064 0.486816 32.9795 0.486816C50.6526 0.486816 64.9795 14.8137 64.9795 32.4868C64.9795 50.1599 50.6526 64.4868 32.9795 64.4868C15.3064 64.4868 0.979492 50.1599 0.979492 32.4868Z" fill="white"/>
</clipPath>
</defs>
</svg>

