<svg width="66" height="66" viewBox="0 0 66 66" fill="none" xmlns="http://www.w3.org/2000/svg">
<g filter="url(#filter0_d_550:5068)">
<g clip-path="url(#clip0_550:5068)">
<path d="M1.07129 32.4868C1.07129 14.8137 15.3982 0.486816 33.0713 0.486816C50.7444 0.486816 65.0713 14.8137 65.0713 32.4868C65.0713 50.1599 50.7444 64.4868 33.0713 64.4868C15.3982 64.4868 1.07129 50.1599 1.07129 32.4868Z" fill="white"/>
<rect x="1.07129" y="0.486816" width="64.0631" height="64.0631" fill="#EB8682"/>
<circle cx="33.1029" cy="32.5184" r="30.1474" stroke="white" stroke-width="3.76842"/>
<path d="M37.7528 43.3037C36.3871 43.2623 32.3347 41.9691 31.5291 41.3724L37.7528 43.3037Z" fill="#F1BF73"/>
<path d="M38.3149 49.6773C40.8347 53.2067 48.9823 54.2544 50.3724 54.7589C52.6524 55.6229 53.0402 57.9588 53.074 59.2313C53.1714 62.8567 53.5967 69.076 52.3246 72.3626" fill="#F1BF73"/>
<path d="M38.3149 49.6773C36.7861 46.9216 37.7528 43.3037 37.7528 43.3037C37.7528 43.3037 40.7148 43.4448 41.9026 42.8368C44.1864 41.8524 46.8992 38.2514 46.8711 33.0957C46.8063 28.4527 45.8303 23.8682 43.999 19.6048C42.3466 15.3112 32.0931 11.298 24.3687 18.7973C24.3687 18.7973 20.2039 22.6222 22.6226 28.979" fill="#F1BF73"/>
<path d="M10.6209 72.3626C9.5212 68.8219 9.95397 59.5118 10.1132 58.1979C10.2725 56.884 10.887 54.2186 14.1412 53.4073C15.58 53.044 24.5898 51.5804 26.4183 49.0411" fill="#F1BF73"/>
<path d="M26.8604 39.4411C26.8604 39.4411 23.8347 37.715 22.6282 34.1159C21.4217 30.5168 22.6226 28.979 22.6226 28.979C23.5912 27.5277 27.4449 27.1719 27.4449 31.5502" fill="#F1BF73"/>
<path d="M26.8604 39.4411C27.0909 44.0152 27.1489 46.114 26.4183 49.0411L26.8604 39.4411Z" fill="#F1BF73"/>
<path d="M38.3149 49.6773C40.8347 53.2067 48.9823 54.2544 50.3724 54.7589C52.6524 55.6229 53.0402 57.9588 53.074 59.2313C53.1714 62.8567 53.5967 69.076 52.3246 72.3626H10.6209C9.5212 68.8219 9.95397 59.5118 10.1132 58.1979C10.2725 56.884 10.887 54.2186 14.1412 53.4073C15.58 53.044 24.5898 51.5804 26.4183 49.0411C27.1489 46.114 27.0909 44.0152 26.8604 39.4411C26.8604 39.4411 23.8347 37.715 22.6282 34.1159C21.4217 30.5168 22.6226 28.979 22.6226 28.979C20.2039 22.6222 24.3687 18.7973 24.3687 18.7973C32.0931 11.298 42.3466 15.3112 43.999 19.6048C45.8303 23.8682 46.8063 28.4527 46.8711 33.0957C46.8992 38.2514 44.1864 41.8524 41.9026 42.8368C40.7148 43.4448 37.7528 43.3037 37.7528 43.3037C37.7528 43.3037 36.7861 46.9216 38.3149 49.6773Z" fill="#F1BF73"/>
<path opacity="0.4" d="M37.7097 43.1587C37.5283 44.4398 37.2473 46.3222 37.7097 47.8281C35.9955 47.4196 31.1562 44.0585 31.1562 41.3291C33.2736 42.16 35.4693 42.773 37.7097 43.1587Z" fill="#050504"/>
<path d="M24.8302 30.0398C24.0996 30.2393 23.6012 31.348 24.182 32.5433" stroke="#050504" stroke-width="0.565263" stroke-linecap="round"/>
<path d="M10.4603 70.8571C9.35537 67.3164 9.79019 58.0062 9.95019 56.6924C10.1102 55.3785 10.7276 52.7131 13.9972 51.9018C15.4429 51.5385 24.4405 50.1794 26.2777 47.6401" fill="#E3F0DF"/>
<path d="M10.4603 70.8571C9.35537 67.3164 9.79019 58.0062 9.95019 56.6924C10.1102 55.3785 10.7276 52.7131 13.9972 51.9018C15.4429 51.5385 24.4405 50.1794 26.2777 47.6401C26.2777 47.6401 29.3834 49.146 32.2069 48.9578L38.3248 48.2048C40.8565 51.7343 49.0033 52.7488 50.4 53.2533C52.6908 54.1173 53.0805 56.4533 53.1144 57.7258C53.2122 61.3512 53.6395 67.5705 52.3614 70.8571H12.7246H10.4603Z" fill="#E3F0DF"/>
<path d="M10.4603 70.8571C9.35537 67.3164 9.79019 58.0062 9.95019 56.6924C10.1102 55.3785 10.7276 52.7131 13.9972 51.9018C15.4429 51.5385 24.4405 50.1794 26.2777 47.6401C26.2777 47.6401 29.3834 49.146 32.2069 48.9578L38.3248 48.2048C40.8565 51.7343 49.0033 52.7488 50.4 53.2533C52.6908 54.1173 53.0805 56.4533 53.1144 57.7258C53.2122 61.3512 53.6395 67.5705 52.3614 70.8571H12.7246H10.4603Z" stroke="#050504" stroke-width="0.565263" stroke-linecap="round" stroke-linejoin="round"/>
<path d="M32.4131 50.1812C33.3225 58.1939 33.3591 62.6862 32.4131 70.6988" stroke="#050504" stroke-width="0.565263" stroke-linecap="round"/>
<path d="M37.5723 46.2283C37.5723 47.8565 34.9842 48.6998 32.0289 48.6998C29.0736 48.6998 26.5494 47.8565 26.5494 46.2283C21.5574 49.9365 24.1343 52.4287 26.8487 52.5473C29.6383 52.6697 32.4713 49.9817 32.4713 49.9817C32.4713 49.9817 34.4967 52.8334 38.0581 52.5511C41.8228 52.2518 42.4815 48.9746 37.7587 46.3224" fill="#8CB2A5"/>
<path d="M37.5723 46.2283C37.5723 47.8565 34.9842 48.6998 32.0289 48.6998C29.0736 48.6998 26.5494 47.8565 26.5494 46.2283C21.5574 49.9365 24.1343 52.4287 26.8487 52.5473C29.6383 52.6697 32.4713 49.9817 32.4713 49.9817C32.4713 49.9817 34.4967 52.8334 38.0581 52.5511C41.8228 52.2518 42.4815 48.9746 37.7587 46.3224" stroke="#050504" stroke-width="0.565263" stroke-linecap="round" stroke-linejoin="round"/>
<path d="M27.1571 28.5008C27.7709 29.073 28.6561 28.935 29.2261 28.3904C30.2916 27.3674 30.6832 25.4024 29.6086 24.247C29.534 24.1612 29.479 24.0598 29.4475 23.9501C29.416 23.8404 29.4089 23.7251 29.4265 23.6122C29.5212 22.8192 30.4373 21.9251 31.2259 21.8441C32.448 21.7153 33.5135 22.1495 34.5261 22.7769C35.5897 23.443 36.5914 24.1991 37.7753 24.6315C40.775 25.7355 43.7145 25.4484 46.5175 24.0188C49.3678 22.5672 50.4187 20.2103 49.6957 17.0678C49.1821 14.836 47.7542 13.307 45.7999 12.2528C44.6161 11.6125 43.323 11.3512 41.9916 11.2593C39.9335 11.1194 37.9392 11.3218 36.1033 12.3742C36.0411 12.4214 35.9684 12.4525 35.8916 12.4647C35.8147 12.4769 35.7361 12.4698 35.6626 12.4441C34.2565 11.9161 32.7868 11.9051 31.3206 11.9547C29.5796 12.0129 27.8498 12.2597 26.1609 12.6907C23.5652 13.3193 21.1743 14.6148 19.2199 16.4514C17.2966 18.2766 15.9416 20.4679 14.9963 22.9535C13.614 26.6112 13.7396 30.2211 15.2003 33.8089C15.9543 35.6616 17.0216 37.347 17.9778 39.0893C18.2747 39.6303 18.7063 40.1141 18.8411 40.7231C19.0016 41.544 19.0213 42.3867 18.8994 43.2143C18.6407 45.1002 17.9323 46.8242 17.0526 48.4911C15.9689 50.5426 14.7486 52.5186 13.736 54.6087C12.5285 57.1128 11.6834 59.6886 11.7817 62.4926C11.7486 63.4061 11.8146 64.3204 11.9784 65.2193C12.4046 67.8099 13.9345 69.7454 15.7267 71.4841C16.9105 72.6304 18.3785 73.2983 20.0013 73.5945C21.5858 73.8852 23.1703 74.1759 24.7931 73.9625C26.4796 73.7454 27.78 72.9377 28.545 71.3774C28.8922 70.667 29.1993 69.9372 29.4647 69.1917C30.3225 66.7998 30.0384 64.5607 28.3883 62.5773C27.6252 61.6573 26.8257 60.765 26.1918 59.742C25.6691 58.9012 25.2484 58.0033 25.334 56.9932C25.388 56.0072 25.738 55.0612 26.3375 54.2812C28.137 52.055 29.1278 49.8858 29.3117 47.0597C29.4228 45.3357 29.7179 43.2162 28.9311 41.6964C28.4885 40.8409 27.8019 40.1436 26.8402 39.4187C25.8786 38.6937 24.376 37.2108 23.8533 36.3994C22.7332 34.5209 22.5656 33.9064 22.2323 31.6433C22.0794 30.6093 22.3544 28.7124 23.5947 28.0519C24.8149 27.4392 26.1354 27.5238 27.1571 28.5008Z" fill="#2E1701"/>
<path d="M40.741 30.5026C40.6784 30.3596 40.5117 30.2945 40.3687 30.3571C40.2257 30.4198 40.1606 30.5865 40.2232 30.7294L40.741 30.5026ZM40.8239 35.3594C40.6814 35.4231 40.6175 35.5903 40.6812 35.7328C40.7449 35.8753 40.9121 35.9392 41.0546 35.8755L40.8239 35.3594ZM31.9909 26.3586C31.8903 26.478 31.9056 26.6563 32.0249 26.7569C32.1443 26.8574 32.3226 26.8422 32.4232 26.7228L31.9909 26.3586ZM36.3081 24.7713L36.3558 24.4927L36.3538 24.4924L36.3081 24.7713ZM36.8261 25.2019C36.9724 25.2562 37.1351 25.1817 37.1894 25.0353C37.2437 24.889 37.1692 24.7263 37.0228 24.672L36.8261 25.2019ZM41.1269 25.1558C41.0118 25.2612 41.0039 25.44 41.1093 25.5551C41.2147 25.6702 41.3935 25.6781 41.5086 25.5727L41.1269 25.1558ZM45.1097 24.4739L45.2286 24.2175L45.2283 24.2173L45.1097 24.4739ZM45.4322 24.9951C45.5568 25.0891 45.7341 25.0642 45.8281 24.9396C45.9221 24.815 45.8972 24.6378 45.7726 24.5438L45.4322 24.9951ZM40.4821 30.616C40.2232 30.7294 40.2232 30.7294 40.2233 30.7295C40.2233 30.7295 40.2233 30.7295 40.2233 30.7296C40.2233 30.7297 40.2234 30.7298 40.2235 30.7301C40.2237 30.7305 40.224 30.7311 40.2244 30.732C40.2251 30.7337 40.2262 30.7363 40.2277 30.7397C40.2307 30.7466 40.2352 30.7568 40.241 30.7701C40.2527 30.7968 40.2698 30.8361 40.2916 30.8862C40.3351 30.9865 40.3974 31.1303 40.4722 31.3042C40.6217 31.6521 40.8209 32.1201 41.02 32.6009C41.2194 33.0822 41.4176 33.5741 41.5657 33.9708C41.6399 34.1694 41.7003 34.341 41.7417 34.4739C41.7625 34.5405 41.7775 34.5943 41.7871 34.6351C41.7979 34.6813 41.7976 34.6937 41.7976 34.6857H42.3628C42.3628 34.6249 42.35 34.5594 42.3374 34.5059C42.3236 34.447 42.3043 34.3791 42.2813 34.3056C42.2354 34.1583 42.1709 33.9757 42.0953 33.7731C41.9437 33.3671 41.7425 32.868 41.5423 32.3846C41.3419 31.9007 41.1416 31.4303 40.9915 31.081C40.9164 30.9063 40.8538 30.7618 40.81 30.661C40.7881 30.6105 40.7709 30.571 40.7591 30.5441C40.7532 30.5306 40.7487 30.5203 40.7457 30.5133C40.7441 30.5098 40.743 30.5071 40.7422 30.5054C40.7418 30.5045 40.7415 30.5038 40.7413 30.5033C40.7412 30.5031 40.7411 30.5029 40.7411 30.5028C40.7411 30.5027 40.741 30.5027 40.741 30.5027C40.741 30.5026 40.741 30.5026 40.4821 30.616ZM41.7976 34.6857C41.7976 34.6719 41.7989 34.7123 41.7019 34.8094C41.6164 34.8951 41.4938 34.9854 41.3587 35.0707C41.2259 35.1547 41.0915 35.2273 40.9894 35.2792C40.9386 35.3051 40.8965 35.3255 40.8673 35.3393C40.8528 35.3461 40.8415 35.3514 40.8341 35.3548C40.8304 35.3565 40.8276 35.3577 40.8259 35.3585C40.825 35.3589 40.8244 35.3592 40.8241 35.3593C40.8239 35.3594 40.8238 35.3595 40.8238 35.3595C40.8238 35.3595 40.8238 35.3595 40.8238 35.3595C40.8238 35.3595 40.8238 35.3595 40.8238 35.3595C40.8239 35.3594 40.8239 35.3594 40.9392 35.6174C41.0546 35.8755 41.0547 35.8754 41.0547 35.8754C41.0547 35.8754 41.0548 35.8754 41.0548 35.8754C41.0549 35.8753 41.055 35.8753 41.0551 35.8752C41.0554 35.8751 41.0557 35.875 41.0561 35.8748C41.0568 35.8745 41.0579 35.874 41.0592 35.8734C41.0618 35.8722 41.0654 35.8706 41.0701 35.8684C41.0793 35.8642 41.0926 35.858 41.1092 35.8501C41.1425 35.8344 41.1895 35.8116 41.2457 35.7831C41.3575 35.7262 41.5083 35.6449 41.6607 35.5486C41.8109 35.4537 41.9735 35.3374 42.1019 35.2089C42.2189 35.0917 42.3628 34.9103 42.3628 34.6857H41.7976ZM32.4232 26.7228C33.4507 25.5031 34.9261 24.8313 36.2624 25.0502L36.3538 24.4924C34.7712 24.2332 33.1104 25.0297 31.9909 26.3586L32.4232 26.7228ZM36.2604 25.0499C36.4532 25.0829 36.6426 25.1338 36.8261 25.2019L37.0228 24.672C36.8065 24.5917 36.5832 24.5316 36.3558 24.4927L36.2604 25.0499ZM41.5086 25.5727C42.5944 24.5787 43.9343 24.2421 44.9911 24.7305L45.2283 24.2173C43.8982 23.6027 42.3193 24.0642 41.1269 25.1558L41.5086 25.5727ZM44.9908 24.7303C45.1468 24.8026 45.2948 24.8914 45.4322 24.9951L45.7726 24.5438C45.6033 24.416 45.4209 24.3067 45.2286 24.2175L44.9908 24.7303Z" fill="#050504"/>
<path d="M37.2656 37.7788C37.8243 39.0852 39.7571 39.3992 40.6379 39.251" stroke="#050504" stroke-width="0.565263" stroke-miterlimit="10" stroke-linecap="round"/>
<path d="M36.2314 31.403C36.815 31.403 37.2881 30.7541 37.2881 29.9536C37.2881 29.1531 36.815 28.5042 36.2314 28.5042C35.6479 28.5042 35.1748 29.1531 35.1748 29.9536C35.1748 30.7541 35.6479 31.403 36.2314 31.403Z" fill="#2E1701"/>
<path d="M36.9263 29.4301C36.6435 28.3534 35.229 28.1859 34.2061 29.0819" stroke="#050504" stroke-width="0.565263" stroke-linecap="round"/>
<path d="M44.4971 30.8795C45.0806 30.8795 45.5537 30.2306 45.5537 29.4301C45.5537 28.6296 45.0806 27.9807 44.4971 27.9807C43.9135 27.9807 43.4404 28.6296 43.4404 29.4301C43.4404 30.2306 43.9135 30.8795 44.4971 30.8795Z" fill="#2E1701"/>
<path d="M45.192 28.9069C44.9091 27.8302 43.4946 27.6627 42.4717 28.5587" stroke="#050504" stroke-width="0.565263" stroke-linecap="round"/>
<path d="M22.241 34.7672C21.231 35.5566 20.8359 36.885 20.8359 38.5319C20.8359 41.0269 22.3877 43.0495 24.3019 43.0495C26.2161 43.0495 27.7678 41.0269 27.7678 38.5319C27.7678 36.4599 26.6977 34.7138 25.2386 34.1812" stroke="#9D6C21" stroke-width="0.753684" stroke-linecap="round" stroke-linejoin="round"/>
<path d="M32.534 8.1293C28.6121 8.40659 19.0775 9.74175 19.3352 13.4355C19.5929 17.1293 31.0724 16.7323 33.1224 16.5867C35.1724 16.4412 46.696 15.3389 46.4315 11.5184C46.2059 8.31239 38.2704 7.72366 32.534 8.1293ZM32.9309 14.9761C27.1741 15.3834 20.9868 14.4009 20.9037 13.2164C20.8206 12.0319 26.6943 10.2637 32.5815 9.84614C38.5265 9.41991 44.6765 10.2159 44.768 11.5338C44.8596 12.8519 38.6858 14.5721 32.9309 14.9794V14.9761Z" fill="#69F0ED"/>
</g>
<path d="M33.0713 63.9216C15.7104 63.9216 1.63655 49.8477 1.63655 32.4868H0.506026C0.506026 50.4721 15.086 65.0521 33.0713 65.0521V63.9216ZM64.506 32.4868C64.506 49.8477 50.4322 63.9216 33.0713 63.9216V65.0521C51.0566 65.0521 65.6366 50.4721 65.6366 32.4868H64.506ZM33.0713 1.05208C50.4322 1.05208 64.506 15.1259 64.506 32.4868H65.6366C65.6366 14.5015 51.0566 -0.0784464 33.0713 -0.0784464V1.05208ZM33.0713 -0.0784464C15.086 -0.0784464 0.506026 14.5015 0.506026 32.4868H1.63655C1.63655 15.1259 15.7104 1.05208 33.0713 1.05208V-0.0784464Z" fill="#050504"/>
</g>
<defs>
<filter id="filter0_d_550:5068" x="0.317605" y="0.486816" width="65.5074" height="65.5074" filterUnits="userSpaceOnUse" color-interpolation-filters="sRGB">
<feFlood flood-opacity="0" result="BackgroundImageFix"/>
<feColorMatrix in="SourceAlpha" type="matrix" values="0 0 0 0 0 0 0 0 0 0 0 0 0 0 0 0 0 0 127 0" result="hardAlpha"/>
<feOffset dy="0.753684"/>
<feGaussianBlur stdDeviation="0.376842"/>
<feColorMatrix type="matrix" values="0 0 0 0 0 0 0 0 0 0 0 0 0 0 0 0 0 0 0.25 0"/>
<feBlend mode="normal" in2="BackgroundImageFix" result="effect1_dropShadow_550:5068"/>
<feBlend mode="normal" in="SourceGraphic" in2="effect1_dropShadow_550:5068" result="shape"/>
</filter>
<clipPath id="clip0_550:5068">
<path d="M1.07129 32.4868C1.07129 14.8137 15.3982 0.486816 33.0713 0.486816C50.7444 0.486816 65.0713 14.8137 65.0713 32.4868C65.0713 50.1599 50.7444 64.4868 33.0713 64.4868C15.3982 64.4868 1.07129 50.1599 1.07129 32.4868Z" fill="white"/>
</clipPath>
</defs>
</svg>

