<svg width="65" height="65" viewBox="0 0 65 65" fill="none" xmlns="http://www.w3.org/2000/svg">
<g clip-path="url(#clip0_550:5064)">
<path d="M0.936523 32.4868C0.936523 14.8137 15.2634 0.486816 32.9365 0.486816C50.6096 0.486816 64.9365 14.8137 64.9365 32.4868C64.9365 50.1599 50.6096 64.4868 32.9365 64.4868C15.2634 64.4868 0.936523 50.1599 0.936523 32.4868Z" fill="white"/>
<rect x="0.936523" y="0.486816" width="64.0631" height="64.0631" fill="#F1CF73"/>
<circle cx="32.9681" cy="32.5184" r="30.1474" stroke="white" stroke-width="3.76842"/>
<path d="M37.6171 43.3037C36.2513 43.2623 32.199 41.9691 31.3934 41.3724L37.6171 43.3037Z" fill="#EB8682"/>
<path d="M38.1791 49.6773C40.699 53.2067 48.8465 54.2544 50.2367 54.7589C52.5167 55.6229 52.9045 57.9588 52.9382 59.2313C53.0356 62.8567 53.4609 69.076 52.1888 72.3626" fill="#EB8682"/>
<path d="M38.1791 49.6773C36.6504 46.9216 37.6171 43.3037 37.6171 43.3037C37.6171 43.3037 40.5791 43.4448 41.7669 42.8368C44.0506 41.8524 46.7634 38.2514 46.7353 33.0957C46.6706 28.4527 45.6946 23.8682 43.8633 19.6048C42.2109 15.3112 31.9573 11.298 24.2329 18.7973C24.2329 18.7973 20.0682 22.6222 22.4869 28.979" fill="#EB8682"/>
<path d="M10.4852 72.3626C9.38545 68.8219 9.81823 59.5118 9.97747 58.1979C10.1367 56.884 10.7512 54.2186 14.0055 53.4073C15.4443 53.044 24.454 51.5804 26.2825 49.0411" fill="#EB8682"/>
<path d="M26.7247 39.4411C26.7247 39.4411 23.699 37.715 22.4925 34.1159C21.286 30.5168 22.4869 28.979 22.4869 28.979C23.4555 27.5277 27.3092 27.1719 27.3092 31.5502" fill="#EB8682"/>
<path d="M26.7247 39.4411C26.9551 44.0152 27.0132 46.114 26.2825 49.0411L26.7247 39.4411Z" fill="#EB8682"/>
<path d="M38.1791 49.6773C40.699 53.2067 48.8465 54.2544 50.2367 54.7589C52.5167 55.6229 52.9045 57.9588 52.9382 59.2313C53.0356 62.8567 53.4609 69.076 52.1888 72.3626H10.4852C9.38545 68.8219 9.81823 59.5118 9.97747 58.1979C10.1367 56.884 10.7512 54.2186 14.0055 53.4073C15.4443 53.044 24.454 51.5804 26.2825 49.0411C27.0132 46.114 26.9551 44.0152 26.7247 39.4411C26.7247 39.4411 23.699 37.715 22.4925 34.1159C21.286 30.5168 22.4869 28.979 22.4869 28.979C20.0682 22.6222 24.2329 18.7973 24.2329 18.7973C31.9573 11.298 42.2109 15.3112 43.8633 19.6048C45.6946 23.8682 46.6706 28.4527 46.7353 33.0957C46.7634 38.2514 44.0506 41.8524 41.7669 42.8368C40.5791 43.4448 37.6171 43.3037 37.6171 43.3037C37.6171 43.3037 36.6504 46.9216 38.1791 49.6773Z" fill="#EB8682"/>
<path opacity="0.4" d="M37.5739 43.1587C37.3925 44.4398 37.1115 46.3222 37.5739 47.8281C35.8597 47.4196 31.0205 44.0585 31.0205 41.3291C33.1378 42.16 35.3335 42.773 37.5739 43.1587Z" fill="#050504"/>
<path d="M24.6945 30.0398C23.9638 30.2393 23.4655 31.348 24.0463 32.5433" stroke="#050504" stroke-width="0.565263" stroke-linecap="round"/>
<path d="M37.6422 44.3459C38.557 44.6038 38.7995 44.9257 38.7995 45.2739C38.7995 45.3262 38.7873 45.3779 38.7635 45.4288M26.2893 44.3459C25.3708 44.6019 24.8249 44.9238 24.8249 45.2739C24.8249 45.3289 24.8383 45.3832 24.8646 45.4366M24.8381 45.2551C24.8473 45.3159 24.8562 45.3764 24.8646 45.4366M38.7713 45.3869C38.7687 45.4008 38.7661 45.4148 38.7635 45.4288M24.8646 45.4366C25.0423 46.7056 25.0459 47.8615 24.8249 48.8067C21.78 50.6992 14.9204 51.6826 13.674 51.9958C10.4044 52.8071 9.78695 55.4725 9.62695 56.7864C9.46695 58.1003 9.03213 67.4104 10.1371 70.9511H52.0382C53.3163 67.6645 52.889 61.4452 52.7911 57.8198C52.7572 56.5473 52.3676 54.2113 50.0768 53.3473C48.7978 52.8854 41.8592 52.0747 38.7543 49.2316C38.515 47.9561 38.5291 46.7038 38.7635 45.4288M24.8646 45.4366C25.2385 46.1978 28.2065 46.7911 31.8122 46.7911C35.4302 46.7911 38.4062 46.1938 38.7635 45.4288" stroke="#050504" stroke-width="0.565263" stroke-linecap="round" stroke-linejoin="round"/>
<mask id="mask0_550:5064" style="mask-type:alpha" maskUnits="userSpaceOnUse" x="9" y="46" width="44" height="25">
<path d="M25.191 48.8924C25.3722 48.1173 25.409 47.2239 25.3338 46.2634C25.3731 46.2815 25.4134 46.2992 25.4545 46.3165C25.8742 46.4928 26.4203 46.6443 27.0534 46.7687C28.3223 47.018 29.9908 47.1676 31.8117 47.1676C33.6387 47.1676 35.3125 47.0169 36.583 46.7661C37.2169 46.641 37.7631 46.4885 38.1819 46.3109C38.2087 46.2996 38.2351 46.2881 38.2612 46.2763C38.1577 47.2828 38.1931 48.2845 38.3838 49.301C38.3988 49.3811 38.4394 49.4542 38.4996 49.5092C40.1246 50.9973 42.7148 51.9289 45.0017 52.5459C46.1539 52.8567 47.2469 53.092 48.1265 53.2775L48.3217 53.3187C49.1157 53.4859 49.6786 53.6045 49.946 53.7005C51.9994 54.4766 52.381 56.5801 52.4143 57.83C52.4271 58.3036 52.4453 58.8186 52.4647 59.3637L52.4647 59.3639C52.5199 60.9207 52.5837 62.7228 52.5537 64.5062C52.5151 66.8025 52.3202 69.0091 51.7751 70.5746H10.4194C9.94656 68.8189 9.7926 65.829 9.78363 63.0325C9.77423 60.1036 9.92297 57.4658 10.0002 56.8319C10.0773 56.1987 10.2622 55.2668 10.803 54.4023C11.3369 53.5489 12.2288 52.7422 13.7642 52.3612L13.7653 52.3609C13.9961 52.3029 14.4346 52.2197 15.0291 52.1069C15.2014 52.0742 15.3869 52.039 15.5843 52.0012C16.4518 51.8351 17.5268 51.6226 18.6595 51.3602C20.9087 50.8392 23.4417 50.1094 25.0231 49.1265C25.1079 49.0738 25.1682 48.9896 25.191 48.8924Z" fill="#C4C4C4"/>
</mask>
<g mask="url(#mask0_550:5064)">
<path d="M9.59478 42.6519C9.59478 42.6519 23.0163 48.7747 31.6183 48.7695C39.9263 48.7645 52.8889 42.6519 52.8889 42.6519V45.2871C52.8889 45.2871 39.9257 50.9304 31.6183 50.9342C23.0169 50.9381 9.59478 45.4754 9.59478 45.4754V42.6519Z" fill="white"/>
<path d="M9.59473 48.2989C9.59473 48.2989 23.0163 52.5394 31.6183 52.5342C39.9262 52.5292 52.8888 48.2989 52.8888 48.2989V50.9342C52.8888 50.9342 39.9257 54.6951 31.6183 54.6989C23.0168 54.7028 9.59473 51.1224 9.59473 51.1224V48.2989Z" fill="white"/>
<path d="M9.59473 52.0636C9.59473 52.0636 23.0163 56.3041 31.6183 56.2989C39.9262 56.2939 52.8888 52.0636 52.8888 52.0636V54.6989C52.8888 54.6989 39.9257 58.4599 31.6183 58.4636C23.0168 58.4675 9.59473 54.8871 9.59473 54.8871V52.0636Z" fill="white"/>
<path d="M9.59473 56.0166C9.59473 56.0166 23.0163 60.2571 31.6183 60.2519C39.9262 60.2468 52.8888 56.0166 52.8888 56.0166V58.6519C52.8888 58.6519 39.9257 62.4128 31.6183 62.4166C23.0168 62.4205 9.59473 58.8401 9.59473 58.8401V56.0166Z" fill="white"/>
<path d="M9.59473 60.5342C9.59473 60.5342 23.0163 64.0218 31.6183 64.0166C39.9262 64.0115 52.8888 60.7224 52.8888 60.7224V63.3577C52.8888 63.3577 39.9257 66.1775 31.6183 66.1813C23.0168 66.1852 9.59473 63.3577 9.59473 63.3577V60.5342Z" fill="white"/>
<path d="M9.59473 65.0519C9.59473 65.0519 23.0163 67.41 31.6183 67.4048C39.9262 67.3998 52.8888 65.0519 52.8888 65.0519V67.6872C52.8888 67.6872 39.9257 69.5657 31.6183 69.5695C23.0168 69.5734 9.59473 67.8754 9.59473 67.8754V65.0519Z" fill="white"/>
</g>
<path d="M10.1371 70.9511C9.03213 67.4104 9.46695 58.1003 9.62695 56.7864C9.78695 55.4725 10.4044 52.8071 13.674 51.9958C14.9204 51.6826 21.78 50.6992 24.8249 48.8067C25.0459 47.8615 25.0423 46.7056 24.8646 45.4366C25.2385 46.1978 28.2065 46.7911 31.8122 46.7911C35.4302 46.7911 38.4062 46.1938 38.7635 45.4288C38.5291 46.7038 38.515 47.9561 38.7543 49.2316C41.8592 52.0747 48.7978 52.8854 50.0768 53.3473C52.3676 54.2113 52.7572 56.5473 52.7911 57.8198C52.889 61.4452 53.3163 67.6645 52.0382 70.9511H10.1371Z" fill="#FAE5E3"/>
<path d="M37.6425 44.3459C38.5573 44.6038 38.7995 44.9257 38.7995 45.2739C38.7995 45.3262 38.7873 45.3779 38.7635 45.4288M26.2893 44.3459C25.3708 44.6019 24.8249 44.9238 24.8249 45.2739C24.8249 45.3289 24.8383 45.3832 24.8646 45.4366M24.8381 45.2551C24.8473 45.3159 24.8562 45.3764 24.8646 45.4366M38.7713 45.3869C38.7687 45.4008 38.7661 45.4148 38.7635 45.4288M24.8646 45.4366C25.0423 46.7056 25.0459 47.8615 24.8249 48.8067C21.78 50.6992 14.9204 51.6826 13.674 51.9958C10.4044 52.8071 9.78695 55.4725 9.62695 56.7864C9.46695 58.1003 9.03213 67.4104 10.1371 70.9511H52.0382C53.3163 67.6645 52.889 61.4452 52.7911 57.8198C52.7572 56.5473 52.3676 54.2113 50.0768 53.3473C48.7978 52.8854 41.8592 52.0747 38.7543 49.2316C38.515 47.9561 38.5291 46.7038 38.7635 45.4288M24.8646 45.4366C25.2385 46.1978 28.2065 46.7911 31.8122 46.7911C35.4302 46.7911 38.4062 46.1938 38.7635 45.4288" stroke="#050504" stroke-width="0.565263" stroke-linecap="round" stroke-linejoin="round"/>
<path d="M26.3479 45.9459L26.5738 44.3459C26.1032 44.3773 25.0303 44.8354 25.0303 45.2871C25.0303 45.7389 25.9087 45.9146 26.3479 45.9459Z" fill="#050504"/>
<path d="M37.0773 46.0401L37.3597 44.3459C37.8303 44.3773 38.6773 44.8354 38.6773 45.2871C38.6773 45.7389 37.5165 46.0087 37.0773 46.0401Z" fill="#050504"/>
<path d="M22.6374 43.6494C21.3263 43.8581 19.9981 43.9315 18.6728 43.8683C18.6344 43.8663 18.5979 43.8502 18.57 43.8228C18.5421 43.7955 18.5246 43.7588 18.5208 43.7193C18.3206 41.6568 18.1882 41.0975 18.3814 38.965C18.5477 37.6624 18.3975 28.9745 18.4314 27.9258C18.4797 27.4823 18.553 26.0859 18.6103 25.8301C18.6836 25.475 18.6818 25.0942 18.7301 24.7354C18.9751 22.8955 19.4024 21.0832 20.4092 19.5635C21.3141 18.1983 21.5322 17.6942 22.6785 16.4357C23.0361 16.099 23.4939 15.6206 23.8033 15.3023C23.9338 15.168 24.2843 14.8957 24.4041 14.7706C25.7185 13.6427 27.1312 12.8829 28.6959 12.1543C31.0155 11.0654 33.5837 10.6615 36.1135 10.9878C38.4912 11.2542 40.7472 12.2071 42.6209 13.7366C44.529 15.3207 45.8183 17.3427 46.3494 19.8487C46.386 20.0278 46.4117 20.209 46.4263 20.3914C46.4531 20.5515 46.4495 20.6453 46.4692 20.8312C46.4692 20.8312 48.4363 39.9917 47.5797 40.6007C46.7231 41.2097 42.6405 42.4911 42.6405 42.4911C42.6405 42.4911 44.2141 41.1683 44.8758 40.0073C45.3442 39.166 45.7516 38.1712 46.0381 37.2475C46.7534 34.9955 46.6247 31.7039 46.3064 29.152C46.0113 26.7841 45.8289 25.8991 45.2334 23.3564C44.5056 20.2764 40.7683 18.9066 40.7683 18.9066C40.7683 18.9066 29.8958 27.6774 25.3644 27.7381C23.1452 27.7638 21.6306 28.9303 22.0061 32.3525C22.4675 35.07 23.5673 36.713 24.0429 37.2963C24.7504 38.1864 25.5968 38.8934 26.5179 39.5446C26.5537 40.2658 26.6073 41.9144 26.6073 43.0404" fill="#050504"/>
<path d="M40.6062 30.5026C40.5436 30.3596 40.3769 30.2945 40.2339 30.3571C40.091 30.4198 40.0258 30.5865 40.0885 30.7294L40.6062 30.5026ZM40.6891 35.3594C40.5466 35.4231 40.4828 35.5903 40.5465 35.7328C40.6102 35.8753 40.7773 35.9392 40.9198 35.8755L40.6891 35.3594ZM31.8561 26.3586C31.7555 26.478 31.7708 26.6563 31.8902 26.7569C32.0096 26.8574 32.1879 26.8422 32.2884 26.7228L31.8561 26.3586ZM36.1733 24.7713L36.221 24.4927L36.219 24.4924L36.1733 24.7713ZM36.6913 25.2019C36.8376 25.2562 37.0003 25.1817 37.0546 25.0353C37.109 24.889 37.0344 24.7263 36.8881 24.672L36.6913 25.2019ZM40.9922 25.1558C40.877 25.2612 40.8691 25.44 40.9745 25.5551C41.0799 25.6702 41.2587 25.6781 41.3739 25.5727L40.9922 25.1558ZM44.9749 24.4739L45.0938 24.2175L45.0935 24.2173L44.9749 24.4739ZM45.2975 24.9951C45.4221 25.0891 45.5993 25.0642 45.6933 24.9396C45.7873 24.815 45.7625 24.6378 45.6379 24.5438L45.2975 24.9951ZM40.3474 30.616C40.0885 30.7294 40.0885 30.7294 40.0885 30.7295C40.0885 30.7295 40.0885 30.7295 40.0885 30.7296C40.0886 30.7297 40.0886 30.7298 40.0887 30.7301C40.0889 30.7305 40.0892 30.7311 40.0896 30.732C40.0903 30.7337 40.0915 30.7363 40.093 30.7397C40.096 30.7466 40.1004 30.7568 40.1063 30.7701C40.1179 30.7968 40.135 30.8361 40.1568 30.8862C40.2004 30.9865 40.2626 31.1303 40.3374 31.3042C40.4869 31.6521 40.6861 32.1201 40.8853 32.6009C41.0846 33.0822 41.2829 33.5741 41.431 33.9708C41.5051 34.1694 41.5655 34.341 41.6069 34.4739C41.6277 34.5405 41.6428 34.5943 41.6523 34.6351C41.6632 34.6813 41.6628 34.6937 41.6628 34.6857H42.2281C42.2281 34.6249 42.2152 34.5594 42.2026 34.5059C42.1888 34.447 42.1695 34.3791 42.1466 34.3056C42.1006 34.1583 42.0362 33.9757 41.9605 33.7731C41.8089 33.3671 41.6077 32.868 41.4075 32.3846C41.2071 31.9007 41.0068 31.4303 40.8567 31.081C40.7816 30.9063 40.7191 30.7618 40.6752 30.661C40.6533 30.6105 40.6361 30.571 40.6243 30.5441C40.6185 30.5306 40.6139 30.5203 40.6109 30.5133C40.6094 30.5098 40.6082 30.5071 40.6074 30.5054C40.607 30.5045 40.6067 30.5038 40.6065 30.5033C40.6064 30.5031 40.6064 30.5029 40.6063 30.5028C40.6063 30.5027 40.6063 30.5027 40.6063 30.5027C40.6062 30.5026 40.6062 30.5026 40.3474 30.616ZM41.6628 34.6857C41.6628 34.6719 41.6641 34.7123 41.5672 34.8094C41.4816 34.8951 41.359 34.9854 41.224 35.0707C41.0911 35.1547 40.9567 35.2273 40.8546 35.2792C40.8038 35.3051 40.7617 35.3255 40.7326 35.3393C40.718 35.3461 40.7067 35.3514 40.6993 35.3548C40.6956 35.3565 40.6928 35.3577 40.6911 35.3585C40.6903 35.3589 40.6897 35.3592 40.6893 35.3593C40.6892 35.3594 40.689 35.3595 40.689 35.3595C40.689 35.3595 40.689 35.3595 40.689 35.3595C40.689 35.3595 40.6891 35.3595 40.6891 35.3595C40.6891 35.3594 40.6891 35.3594 40.8045 35.6174C40.9198 35.8755 40.9199 35.8754 40.9199 35.8754C40.92 35.8754 40.92 35.8754 40.92 35.8754C40.9201 35.8753 40.9202 35.8753 40.9204 35.8752C40.9206 35.8751 40.9209 35.875 40.9213 35.8748C40.9221 35.8745 40.9231 35.874 40.9244 35.8734C40.927 35.8722 40.9306 35.8706 40.9353 35.8684C40.9446 35.8642 40.9578 35.858 40.9745 35.8501C41.0077 35.8344 41.0547 35.8116 41.1109 35.7831C41.2227 35.7262 41.3735 35.6449 41.5259 35.5486C41.6762 35.4537 41.8388 35.3374 41.9672 35.2089C42.0841 35.0917 42.2281 34.9103 42.2281 34.6857H41.6628ZM32.2884 26.7228C33.3159 25.5031 34.7914 24.8313 36.1276 25.0502L36.219 24.4924C34.6364 24.2332 32.9756 25.0297 31.8561 26.3586L32.2884 26.7228ZM36.1257 25.0499C36.3185 25.0829 36.5078 25.1338 36.6913 25.2019L36.8881 24.672C36.6717 24.5917 36.4484 24.5316 36.221 24.4927L36.1257 25.0499ZM41.3739 25.5727C42.4597 24.5787 43.7996 24.2421 44.8564 24.7305L45.0935 24.2173C43.7635 23.6027 42.1845 24.0642 40.9922 25.1558L41.3739 25.5727ZM44.856 24.7303C45.012 24.8026 45.16 24.8914 45.2975 24.9951L45.6379 24.5438C45.4685 24.416 45.2861 24.3067 45.0938 24.2175L44.856 24.7303Z" fill="#050504"/>
<path d="M37.1309 37.7788C37.6895 39.0852 39.6224 39.3992 40.5031 39.251" stroke="#050504" stroke-width="0.565263" stroke-miterlimit="10" stroke-linecap="round"/>
<path d="M36.0967 31.403C36.6803 31.403 37.1533 30.7541 37.1533 29.9536C37.1533 29.1531 36.6803 28.5042 36.0967 28.5042C35.5131 28.5042 35.04 29.1531 35.04 29.9536C35.04 30.7541 35.5131 31.403 36.0967 31.403Z" fill="#050504"/>
<path d="M36.7916 29.4301C36.5087 28.3534 35.0942 28.1859 34.0713 29.0819" stroke="#050504" stroke-width="0.565263" stroke-linecap="round"/>
<path d="M44.3623 30.8795C44.9459 30.8795 45.419 30.2306 45.419 29.4301C45.419 28.6296 44.9459 27.9807 44.3623 27.9807C43.7787 27.9807 43.3057 28.6296 43.3057 29.4301C43.3057 30.2306 43.7787 30.8795 44.3623 30.8795Z" fill="#050504"/>
<path d="M45.0572 28.9069C44.7743 27.8302 43.3598 27.6627 42.3369 28.5587" stroke="#050504" stroke-width="0.565263" stroke-linecap="round"/>
<path d="M32.9637 9.25869C29.0418 9.53598 19.5072 10.8711 19.7649 14.5649C20.0226 18.2587 31.5021 17.8617 33.5521 17.7161C35.6021 17.5706 47.1257 16.4683 46.8612 12.6478C46.6356 9.44178 38.7 8.85306 32.9637 9.25869ZM33.3606 16.1055C27.6038 16.5128 21.4165 15.5303 21.3334 14.3458C21.2503 13.1613 27.1239 11.3931 33.0112 10.9755C38.9562 10.5493 45.1062 11.3453 45.1977 12.6632C45.2893 13.9813 39.1155 15.7015 33.3606 16.1088V16.1055Z" fill="#69F0ED"/>
</g>
<path d="M32.9365 63.9216C15.5756 63.9216 1.50179 49.8477 1.50179 32.4868H0.371261C0.371261 50.4721 14.9512 65.0521 32.9365 65.0521V63.9216ZM64.3713 32.4868C64.3713 49.8477 50.2974 63.9216 32.9365 63.9216V65.0521C50.9218 65.0521 65.5018 50.4721 65.5018 32.4868H64.3713ZM32.9365 1.05208C50.2974 1.05208 64.3713 15.1259 64.3713 32.4868H65.5018C65.5018 14.5015 50.9218 -0.0784464 32.9365 -0.0784464V1.05208ZM32.9365 -0.0784464C14.9512 -0.0784464 0.371261 14.5015 0.371261 32.4868H1.50179C1.50179 15.1259 15.5756 1.05208 32.9365 1.05208V-0.0784464Z" fill="#050504"/>
<defs>
<clipPath id="clip0_550:5064">
<path d="M0.936523 32.4868C0.936523 14.8137 15.2634 0.486816 32.9365 0.486816C50.6096 0.486816 64.9365 14.8137 64.9365 32.4868C64.9365 50.1599 50.6096 64.4868 32.9365 64.4868C15.2634 64.4868 0.936523 50.1599 0.936523 32.4868Z" fill="white"/>
</clipPath>
</defs>
</svg>
