<svg width="65" height="65" viewBox="0 0 65 65" fill="none" xmlns="http://www.w3.org/2000/svg">
<g clip-path="url(#clip0_550:5066)">
<path d="M0.0361328 32.9736C0.0361328 15.3005 14.363 0.973633 32.0361 0.973633V0.973633C49.7092 0.973633 64.0361 15.3005 64.0361 32.9736V32.9736C64.0361 50.6467 49.7092 64.9736 32.0361 64.9736V64.9736C14.363 64.9736 0.0361328 50.6467 0.0361328 32.9736V32.9736Z" fill="white"/>
<rect x="0.0361328" y="0.973633" width="64.0631" height="64.0631" fill="#E3F0DF"/>
<circle cx="32.0677" cy="33.0052" r="30.1474" stroke="white" stroke-width="3.76842"/>
<path d="M36.7167 43.7905C35.3509 43.7491 31.2986 42.4559 30.493 41.8592L36.7167 43.7905Z" fill="#F1BF73"/>
<path d="M37.2788 50.1641C39.7986 53.6935 47.9461 54.7412 49.3363 55.2457C51.6163 56.1097 52.0041 58.4457 52.0378 59.7181C52.1352 63.3435 52.5605 69.5628 51.2884 72.8494" fill="#F1BF73"/>
<path d="M37.2788 50.1641C35.75 47.4084 36.7167 43.7905 36.7167 43.7905C36.7167 43.7905 39.6787 43.9317 40.8665 43.3237C43.1502 42.3392 45.863 38.7382 45.8349 33.5825C45.7702 28.9395 44.7942 24.355 42.9629 20.0917C41.3105 15.798 31.0569 11.7848 23.3326 19.2841C23.3326 19.2841 19.1678 23.1091 21.5865 29.4658" fill="#F1BF73"/>
<path d="M9.5848 72.8494C8.48506 69.3087 8.91784 59.9986 9.07708 58.6847C9.23633 57.3708 9.85083 54.7054 13.1051 53.8941C14.5439 53.5308 23.5536 52.0672 25.3821 49.5279" fill="#F1BF73"/>
<path d="M25.8243 39.9279C25.8243 39.9279 22.7986 38.2018 21.5921 34.6027C20.3856 31.0037 21.5865 29.4658 21.5865 29.4658C22.5551 28.0145 26.4088 27.6587 26.4088 32.0371" fill="#F1BF73"/>
<path d="M25.8243 39.9279C26.0547 44.502 26.1128 46.6008 25.3821 49.5279L25.8243 39.9279Z" fill="#F1BF73"/>
<path d="M37.2788 50.1641C39.7986 53.6935 47.9461 54.7412 49.3363 55.2457C51.6163 56.1097 52.0041 58.4457 52.0378 59.7181C52.1352 63.3435 52.5605 69.5628 51.2884 72.8494H9.5848C8.48506 69.3087 8.91784 59.9986 9.07708 58.6847C9.23633 57.3708 9.85083 54.7054 13.1051 53.8941C14.5439 53.5308 23.5536 52.0672 25.3821 49.5279C26.1128 46.6008 26.0547 44.502 25.8243 39.9279C25.8243 39.9279 22.7986 38.2018 21.5921 34.6027C20.3856 31.0037 21.5865 29.4658 21.5865 29.4658C19.1678 23.1091 23.3326 19.2841 23.3326 19.2841C31.0569 11.7848 41.3105 15.798 42.9629 20.0917C44.7942 24.355 45.7702 28.9395 45.8349 33.5825C45.863 38.7382 43.1502 42.3392 40.8665 43.3237C39.6787 43.9317 36.7167 43.7905 36.7167 43.7905C36.7167 43.7905 35.75 47.4084 37.2788 50.1641Z" fill="#F1BF73"/>
<path opacity="0.4" d="M36.6736 43.6456C36.4921 44.9266 36.2111 46.809 36.6736 48.3149C34.9593 47.9064 30.1201 44.5453 30.1201 41.8159C32.2374 42.6468 34.4331 43.2598 36.6736 43.6456Z" fill="#050504"/>
<path d="M23.7941 30.5266C23.0635 30.7261 22.5651 31.8348 23.1459 33.0301" stroke="#050504" stroke-width="0.565263" stroke-linecap="round"/>
<path d="M9.61265 72.7552C8.50771 69.2145 8.94253 59.9044 9.10253 58.5905C9.26253 57.2767 9.87994 54.6113 13.1496 53.8C14.5952 53.4367 20.5358 52.5501 23.3593 51.1383" fill="#FAE5E3"/>
<path d="M9.61265 72.7552C8.50771 69.2145 8.94253 59.9044 9.10253 58.5905C9.26253 57.2767 9.87994 54.6113 13.1496 53.8C14.5952 53.4367 20.5358 52.5501 23.3593 51.1383L24.5828 50.4795C24.5828 51.9349 27.3962 52.9266 30.9828 52.9266C34.5694 52.9266 37.4769 51.7467 37.4769 50.2913L38.324 51.1383C41.524 53.8677 48.1556 54.647 49.5523 55.1515C51.8432 56.0155 52.2328 58.3515 52.2667 59.624C52.3646 63.2494 52.7919 69.4687 51.5138 72.7552H9.61265Z" fill="#FAE5E3"/>
<path d="M9.61265 72.7552C8.50771 69.2145 8.94253 59.9044 9.10253 58.5905C9.26253 57.2767 9.87994 54.6113 13.1496 53.8C14.5952 53.4367 20.5358 52.5501 23.3593 51.1383L24.5828 50.4795C24.5828 51.9349 27.3962 52.9266 30.9828 52.9266C34.5694 52.9266 37.4769 51.7467 37.4769 50.2913L38.324 51.1383C41.524 53.8677 48.1556 54.647 49.5524 55.1515C51.8432 56.0155 52.2328 58.3515 52.2667 59.624C52.3646 63.2494 52.7919 69.4687 51.5138 72.7552H9.61265Z" stroke="#050504" stroke-width="0.565263" stroke-linecap="round" stroke-linejoin="round"/>
<path d="M9.61265 72.7552C8.50771 69.2145 8.94253 59.9044 9.10253 58.5905C9.26253 57.2767 9.87994 54.6113 13.1496 53.8C14.5952 53.4367 20.5358 52.5501 23.3593 51.1383" fill="white"/>
<path d="M9.61265 72.7552C8.50771 69.2145 8.94253 59.9044 9.10253 58.5905C9.26253 57.2767 9.87994 54.6113 13.1496 53.8C14.5952 53.4367 20.5358 52.5501 23.3593 51.1383L24.5828 50.4795C24.5828 51.9349 27.3962 52.9266 30.9828 52.9266C34.5694 52.9266 37.4769 51.7467 37.4769 50.2913L38.324 51.1383C41.524 53.8677 48.1557 54.647 49.5524 55.1515C51.8432 56.0155 52.2328 58.3515 52.2667 59.624C52.3646 63.2494 52.7919 69.4687 51.5138 72.7552H9.61265Z" fill="white"/>
<path d="M9.61265 72.7552C8.50771 69.2145 8.94253 59.9044 9.10253 58.5905C9.26253 57.2767 9.87994 54.6113 13.1496 53.8C14.5952 53.4367 20.5358 52.5501 23.3593 51.1383L24.5828 50.4795C24.5828 51.9349 27.3962 52.9266 30.9828 52.9266C34.5694 52.9266 37.4769 51.7467 37.4769 50.2913L38.324 51.1383C41.524 53.8677 48.1557 54.647 49.5524 55.1515C51.8432 56.0155 52.2328 58.3515 52.2667 59.624C52.3646 63.2494 52.7919 69.4687 51.5138 72.7552H9.61265Z" stroke="#050504" stroke-width="0.565263" stroke-linecap="round" stroke-linejoin="round"/>
<mask id="mask0_550:5066" style="mask-type:alpha" maskUnits="userSpaceOnUse" x="9" y="51" width="44" height="22">
<path d="M22.9658 51.6309C23.0722 51.9656 23.283 52.2738 23.5655 52.5493C23.9808 52.9543 24.567 53.3061 25.2686 53.5954C26.6729 54.1747 28.5935 54.5265 30.7003 54.5265C32.8049 54.5265 34.7243 54.1989 36.1282 53.6441C36.8295 53.3669 37.4165 53.0274 37.8327 52.6311C38.1469 52.332 38.3727 51.991 38.4654 51.6152C40.1103 52.8737 42.4464 53.6898 44.5411 54.2519C45.6649 54.5534 46.7311 54.7847 47.5992 54.9714L47.6708 54.9868C48.5138 55.168 49.1367 55.3019 49.4545 55.4163C51.5673 56.2144 51.9509 58.3759 51.9843 59.6314C51.9971 60.1037 52.0153 60.6179 52.0346 61.1625C52.0898 62.7198 52.1538 64.5258 52.1238 66.3118C52.0846 68.6392 51.8853 70.8876 51.3176 72.4728H9.82356C9.33186 70.7121 9.17455 67.6678 9.16546 64.8368C9.15606 61.9066 9.30479 59.2642 9.38269 58.6246C9.46052 57.9854 9.64781 57.0378 10.1992 56.1564C10.7454 55.2834 11.6572 54.461 13.2175 54.0739L13.2183 54.0737C13.5519 53.9899 14.1374 53.8762 14.8874 53.7305L15.0114 53.7064C15.8158 53.5501 16.7851 53.3606 17.7982 53.138C19.5872 52.7449 21.538 52.2439 22.9658 51.6309Z" fill="#C4C4C4"/>
</mask>
<g mask="url(#mask0_550:5066)">
<path d="M15.4708 68.0795C15.4708 70.6265 13.4482 72.6912 10.9532 72.6912C8.45817 72.6912 6.43555 70.6265 6.43555 68.0795C6.43555 65.5325 8.45817 63.4677 10.9532 63.4677C13.4482 63.4677 15.4708 65.5325 15.4708 68.0795Z" fill="#050504"/>
<path d="M55.7532 56.9736C55.7532 59.5206 53.3513 61.5854 50.3885 61.5854C47.4256 61.5854 45.0238 59.5206 45.0238 56.9736C45.0238 54.4266 47.4256 52.3618 50.3885 52.3618C53.3513 52.3618 55.7532 54.4266 55.7532 56.9736Z" fill="#050504"/>
<path d="M36.5532 71.2795C36.5532 73.8265 33.6035 75.8912 29.965 75.8912C26.3264 75.8912 23.3767 73.8265 23.3767 71.2795C23.3767 68.7325 26.3264 66.6677 29.965 66.6677C33.6035 66.6677 36.5532 68.7325 36.5532 71.2795Z" fill="#050504"/>
<path d="M23.3767 55.4677C23.3767 57.5989 21.3541 59.3265 18.8591 59.3265C16.364 59.3265 14.3414 57.5989 14.3414 55.4677C14.3414 53.3365 16.364 51.6089 18.8591 51.6089C21.3541 51.6089 23.3767 53.3365 23.3767 55.4677Z" fill="#050504"/>
<path d="M39.4708 55.8442C39.4708 58.2872 37.716 59.8912 34.7532 59.8912C31.7903 59.8912 29.4944 58.2872 29.4944 55.8442C29.4944 53.4011 31.7903 52.5501 34.7532 52.5501C37.716 52.5501 39.4708 53.4011 39.4708 55.8442Z" fill="#050504"/>
<path d="M52.365 69.5854C52.365 72.3403 50.1316 74.5736 47.3767 74.5736C44.6218 74.5736 42.3885 72.3403 42.3885 69.5854C42.3885 66.8304 44.6218 64.5971 47.3767 64.5971C50.1316 64.5971 52.365 66.8304 52.365 69.5854Z" fill="#050504"/>
</g>
<path d="M30.8888 54.2442C35.0472 54.2442 38.4182 52.9478 38.4182 51.2324L37.477 50.2913C37.477 51.7467 34.5695 52.9266 30.9829 52.9266C27.3963 52.9266 24.5829 51.9349 24.5829 50.4795L23.3594 51.1383C23.3594 52.8537 26.7304 54.2442 30.8888 54.2442Z" fill="#EB8682" stroke="#050504" stroke-width="0.565263" stroke-linecap="round" stroke-linejoin="round"/>
<path d="M45.9314 25.8321C46.4268 25.8597 46.9787 25.201 46.9441 24.5828C46.9441 24.1596 46.9441 24.0308 46.9441 23.6095L46.9222 22.9637C46.9022 22.7797 46.904 22.684 46.8785 22.5221C46.8641 22.3365 46.8373 22.1521 46.7984 21.9701C46.252 19.3943 44.8769 17.3373 42.848 15.7348C40.819 14.1322 38.5297 13.319 35.9944 13.0743C33.5377 12.827 31.06 13.2435 28.8149 14.2813C27.2433 15.0306 25.7796 15.9918 24.4638 17.1386C24.4822 17.2082 24.5053 17.2764 24.533 17.3428C24.6139 17.4789 24.6388 17.6416 24.6023 17.796C24.5659 17.9505 24.4711 18.0843 24.3381 18.1689C23.0803 19.2128 21.9813 20.4378 21.0762 21.8046C20.0416 23.292 19.3677 25.0044 19.1092 26.8035C19.0618 27.1605 18.8433 27.2543 18.7704 27.6112C18.7106 27.9186 18.6783 28.2308 18.6739 28.544C18.6375 29.5854 18.8305 30.6029 18.9726 31.6259C19.2367 33.5412 19.7703 35.3571 20.8303 36.9909C21.7027 38.3359 22.2473 39.2246 23.127 40.564C23.5347 41.2148 23.9882 41.8352 24.4838 42.4204C24.7097 42.6651 25.338 43.1895 25.6785 43.0166C25.6694 42.1113 25.7186 41.1362 25.6785 40.1059C24.7481 39.4598 23.7604 38.6878 23.0377 37.8115C21.1125 34.7463 20.7629 33.5191 20.8267 31.2174C20.9578 29.1935 22.5259 28.0896 24.2635 28.3748C24.7915 28.4787 25.2835 28.8072 25.6786 29.176C26.0736 29.5449 26.2631 29.9403 26.4071 30.4639C26.5644 31.0074 26.6745 31.6456 26.6803 32.2118C27.0573 32.8374 27.8277 32.3544 28.4707 32.0251C28.7973 31.8665 29.1032 31.6675 29.3813 31.4327C31.4084 29.6388 32.0732 26.3031 31.6233 23.3979C33.9655 25.1605 44.4908 25.7493 45.9314 25.8321Z" fill="#EA7000"/>
<path d="M25.3581 13.8783C25.3112 14.4482 25.1461 15.0018 24.8736 15.503C24.6514 15.3999 24.4583 15.4919 24.2562 15.5858C22.8514 16.2535 21.6421 17.2779 20.7465 18.559C19.009 20.9509 17.6667 23.5028 17.7542 26.5938C17.7687 27.0758 17.8689 27.5137 18.2805 27.8044C18.1548 28.3969 18.1785 29.0169 17.9909 29.5983C17.481 31.1824 16.4792 32.2974 14.851 32.6801C13.1772 33.0738 11.6237 31.9442 11.2412 30.1319C11.1544 29.8138 11.137 29.4804 11.1902 29.1549C11.2357 28.947 11.1793 28.866 10.9625 28.8715C10.5757 28.8763 10.19 28.8261 9.81695 28.7225C8.48194 28.3711 7.86452 27.372 7.57129 26.1172C7.43044 25.5854 7.4011 25.0296 7.48515 24.4856C7.5692 23.9416 7.76479 23.4214 8.0594 22.9582C8.19235 22.7484 8.11586 22.638 7.99019 22.4853C7.23617 21.5654 6.79542 20.5093 6.83002 19.3078C6.88284 17.5507 8.66771 15.9096 10.4143 15.9648C10.9207 15.9813 10.9225 15.9813 10.937 15.4938C10.9935 13.5968 11.9588 12.2942 13.5688 11.4313C14.5512 10.8673 15.6828 10.6256 16.8071 10.7395C16.8563 10.7395 16.9127 10.7395 16.951 10.7542C17.3917 11.0192 17.6977 10.8021 18.0547 10.5242C18.8084 9.96691 19.6954 9.62211 20.6245 9.52518C20.6792 9.5859 20.7247 9.56934 20.7684 9.5123C21.7228 9.43135 22.6352 9.55278 23.4803 10.0514C24.8262 10.8425 25.3326 12.0863 25.3708 13.5876C25.3319 13.625 25.3088 13.6762 25.3064 13.7304C25.304 13.7846 25.3226 13.8376 25.3581 13.8783Z" fill="#EA7000"/>
<path d="M18.2794 27.8045C17.8678 27.5064 17.7676 27.0685 17.7531 26.5939C17.6656 23.5028 19.0079 20.9564 20.7455 18.5591C21.641 17.278 22.8503 16.2535 24.2551 15.5858C24.4573 15.492 24.6503 15.4018 24.8725 15.503C25.3169 15.871 25.5482 16.3733 25.8196 16.8553C25.8349 16.9253 25.855 16.9942 25.8797 17.0614C25.955 17.2009 25.9733 17.3646 25.9308 17.5176C25.8882 17.6705 25.7882 17.8007 25.652 17.8802C24.3511 18.8698 23.2016 20.0477 22.2407 21.3759C21.1458 22.8186 20.4027 24.5016 20.0716 26.2884C20.0096 26.6417 20.0024 27.0023 19.9149 27.3537C19.8681 27.6033 19.7459 27.8321 19.5653 28.0087C19.1261 28.0899 18.6727 28.0179 18.2794 27.8045ZM18.6801 25.7806V26.8018C18.675 26.8636 18.6941 26.925 18.7332 26.9728C18.7724 27.0206 18.8285 27.051 18.8896 27.0575C19.0243 27.0667 19.0462 26.9397 19.0407 26.8238C19.0555 26.6331 19.0872 26.444 19.1354 26.259C19.2656 25.1882 19.5644 24.1453 20.0206 23.1698C21.0796 20.9504 22.6301 19.007 24.552 17.4901C24.9654 17.1571 24.9836 17.0706 24.6576 16.6511C24.572 16.5389 24.5082 16.5334 24.3917 16.6033C23.8348 16.9154 23.3117 17.2854 22.8308 17.7072C21.7381 18.7191 20.9057 19.9445 20.1936 21.2472C19.4214 22.6657 18.7639 24.1302 18.6801 25.788V25.7806Z" fill="#050504"/>
<path d="M18.6807 25.7879C18.7644 24.132 19.4219 22.6601 20.1942 21.2508C20.9063 19.9481 21.7313 18.7228 22.8314 17.7108C23.3122 17.289 23.8353 16.919 24.3922 16.6069C24.5088 16.537 24.5744 16.5425 24.6582 16.6547C24.9842 17.0742 24.966 17.1607 24.5525 17.4937C22.6331 19.0102 21.0845 20.9523 20.0266 23.1698C19.5704 24.1452 19.2716 25.1881 19.1415 26.2589C19.0933 26.444 19.0616 26.633 19.0467 26.8238C19.0467 26.9397 19.0304 27.0666 18.8956 27.0574C18.8352 27.0509 18.7796 27.021 18.7406 26.974C18.7015 26.927 18.682 26.8666 18.6861 26.8054L18.6807 25.7879Z" fill="white"/>
<path d="M21.1131 35.2325C20.103 36.0219 19.708 37.3504 19.708 38.9972C19.708 41.4922 21.2598 43.5148 23.1739 43.5148C25.0881 43.5148 26.6399 41.4922 26.6399 38.9972C26.6399 36.9253 25.5698 35.1791 24.1107 34.6465" stroke="#9D6C21" stroke-width="0.753684" stroke-linecap="round" stroke-linejoin="round"/>
<path d="M39.7058 30.9892C39.6432 30.8462 39.4765 30.7811 39.3336 30.8437C39.1906 30.9064 39.1254 31.073 39.1881 31.216L39.7058 30.9892ZM39.7887 35.846C39.6462 35.9097 39.5824 36.0769 39.6461 36.2194C39.7098 36.3619 39.877 36.4257 40.0195 36.362L39.7887 35.846ZM30.9557 26.8452C30.8552 26.9646 30.8704 27.1429 30.9898 27.2435C31.1092 27.344 31.2875 27.3288 31.388 27.2094L30.9557 26.8452ZM35.2729 25.2579L35.3206 24.9793L35.3186 24.979L35.2729 25.2579ZM35.7909 25.6885C35.9372 25.7428 36.0999 25.6682 36.1543 25.5219C36.2086 25.3756 36.134 25.2129 35.9877 25.1586L35.7909 25.6885ZM40.0918 25.6424C39.9766 25.7478 39.9688 25.9265 40.0742 26.0417C40.1796 26.1568 40.3583 26.1647 40.4735 26.0593L40.0918 25.6424ZM44.0745 24.9605L44.1934 24.7041L44.1931 24.7039L44.0745 24.9605ZM44.3971 25.4816C44.5217 25.5756 44.6989 25.5508 44.7929 25.4262C44.8869 25.3016 44.8621 25.1244 44.7375 25.0304L44.3971 25.4816ZM39.447 31.1026C39.1881 31.216 39.1881 31.216 39.1881 31.216C39.1881 31.2161 39.1881 31.2161 39.1881 31.2162C39.1882 31.2163 39.1883 31.2164 39.1884 31.2166C39.1885 31.2171 39.1888 31.2177 39.1892 31.2186C39.19 31.2203 39.1911 31.2229 39.1926 31.2263C39.1956 31.2332 39.2 31.2434 39.2059 31.2567C39.2175 31.2834 39.2346 31.3227 39.2564 31.3728C39.3 31.4731 39.3623 31.6169 39.437 31.7908C39.5865 32.1387 39.7858 32.6066 39.9849 33.0874C40.1842 33.5688 40.3825 34.0607 40.5306 34.4573C40.6047 34.656 40.6651 34.8276 40.7066 34.9605C40.7273 35.0271 40.7424 35.0808 40.7519 35.1216C40.7628 35.1679 40.7624 35.1803 40.7624 35.1722H41.3277C41.3277 35.1115 41.3148 35.046 41.3023 34.9925C41.2884 34.9335 41.2691 34.8657 41.2462 34.7922C41.2002 34.6449 41.1358 34.4623 41.0601 34.2596C40.9086 33.8537 40.7073 33.3545 40.5071 32.8712C40.3067 32.3873 40.1064 31.9169 39.9563 31.5676C39.8812 31.3929 39.8187 31.2484 39.7749 31.1475C39.7529 31.0971 39.7357 31.0576 39.7239 31.0306C39.7181 31.0172 39.7136 31.0068 39.7105 30.9998C39.709 30.9964 39.7078 30.9937 39.707 30.9919C39.7066 30.991 39.7064 30.9904 39.7062 30.9899C39.7061 30.9897 39.706 30.9895 39.7059 30.9894C39.7059 30.9893 39.7059 30.9893 39.7059 30.9892C39.7059 30.9892 39.7058 30.9892 39.447 31.1026ZM40.7624 35.1722C40.7624 35.1585 40.7637 35.1989 40.6668 35.296C40.5812 35.3817 40.4586 35.472 40.3236 35.5573C40.1907 35.6413 40.0563 35.7139 39.9542 35.7658C39.9034 35.7916 39.8613 35.812 39.8322 35.8258C39.8176 35.8327 39.8063 35.8379 39.7989 35.8414C39.7952 35.8431 39.7924 35.8443 39.7907 35.8451C39.7899 35.8455 39.7893 35.8458 39.7889 35.8459C39.7888 35.846 39.7887 35.846 39.7886 35.846C39.7886 35.8461 39.7886 35.8461 39.7886 35.846C39.7886 35.846 39.7887 35.846 39.7887 35.846C39.7887 35.846 39.7887 35.846 39.9041 36.104C40.0195 36.362 40.0195 36.362 40.0195 36.362C40.0196 36.362 40.0196 36.362 40.0197 36.3619C40.0197 36.3619 40.0199 36.3619 40.02 36.3618C40.0202 36.3617 40.0205 36.3615 40.0209 36.3614C40.0217 36.361 40.0227 36.3606 40.024 36.36C40.0266 36.3588 40.0303 36.3571 40.0349 36.355C40.0442 36.3507 40.0574 36.3446 40.0741 36.3367C40.1073 36.321 40.1543 36.2982 40.2105 36.2696C40.3223 36.2128 40.4732 36.1315 40.6255 36.0352C40.7758 35.9403 40.9384 35.824 41.0668 35.6954C41.1837 35.5783 41.3277 35.3969 41.3277 35.1722H40.7624ZM31.388 27.2094C32.4155 25.9896 33.891 25.3179 35.2272 25.5368L35.3186 24.979C33.736 24.7197 32.0752 25.5163 30.9557 26.8452L31.388 27.2094ZM35.2253 25.5365C35.4181 25.5695 35.6074 25.6203 35.7909 25.6885L35.9877 25.1586C35.7713 25.0782 35.548 25.0182 35.3206 24.9793L35.2253 25.5365ZM40.4735 26.0593C41.5593 25.0652 42.8992 24.7286 43.956 25.217L44.1931 24.7039C42.8631 24.0892 41.2841 24.5508 40.0918 25.6424L40.4735 26.0593ZM43.9557 25.2169C44.1117 25.2892 44.2596 25.378 44.3971 25.4816L44.7375 25.0304C44.5681 24.9026 44.3858 24.7932 44.1934 24.7041L43.9557 25.2169Z" fill="#050504"/>
<path d="M36.2305 38.2654C36.7891 39.5718 38.722 39.8857 39.6027 39.7376" stroke="#050504" stroke-width="0.565263" stroke-miterlimit="10" stroke-linecap="round"/>
<path d="M35.1963 31.8895C35.7799 31.8895 36.2529 31.2406 36.2529 30.4401C36.2529 29.6396 35.7799 28.9907 35.1963 28.9907C34.6127 28.9907 34.1396 29.6396 34.1396 30.4401C34.1396 31.2406 34.6127 31.8895 35.1963 31.8895Z" fill="#2E1701"/>
<path d="M35.8912 29.9167C35.6083 28.84 34.1938 28.6725 33.1709 29.5685" stroke="#050504" stroke-width="0.565263" stroke-linecap="round"/>
<path d="M43.4619 31.3661C44.0455 31.3661 44.5186 30.7172 44.5186 29.9167C44.5186 29.1162 44.0455 28.4673 43.4619 28.4673C42.8783 28.4673 42.4053 29.1162 42.4053 29.9167C42.4053 30.7172 42.8783 31.3661 43.4619 31.3661Z" fill="#2E1701"/>
<path d="M44.1568 29.3935C43.8739 28.3168 42.4594 28.1493 41.4365 29.0453" stroke="#050504" stroke-width="0.565263" stroke-linecap="round"/>
<path d="M37.6234 30.7394C37.6234 30.8955 37.75 31.022 37.9061 31.022C38.0622 31.022 38.1887 30.8955 38.1887 30.7394H37.6234ZM40.5354 30.4288C40.5354 30.5849 40.662 30.7114 40.8181 30.7114C40.9742 30.7114 41.1007 30.5849 41.1007 30.4288H40.5354ZM32.1009 30.8566C32.2499 30.9033 32.4085 30.8205 32.4553 30.6716C32.502 30.5227 32.4192 30.364 32.2703 30.3173L32.1009 30.8566ZM22.051 29.113L22.172 29.3687L22.181 29.364L22.051 29.113ZM20.2673 32.1146C20.296 32.268 20.4436 32.3692 20.597 32.3405C20.7505 32.3119 20.8516 32.1642 20.823 32.0108L20.2673 32.1146ZM37.6234 30.5869C37.6234 32.2878 36.4337 33.5965 35.0468 33.5965V34.1618C36.8181 34.1618 38.1887 32.5225 38.1887 30.5869H37.6234ZM35.0468 33.5965C33.6598 33.5965 32.4701 32.2878 32.4701 30.5869H31.9049C31.9049 32.5225 33.2754 34.1618 35.0468 34.1618V33.5965ZM32.4701 30.5869C32.4701 28.886 33.6598 27.5773 35.0468 27.5773V27.0121C33.2754 27.0121 31.9049 28.6513 31.9049 30.5869H32.4701ZM35.0468 27.5773C36.4337 27.5773 37.6234 28.886 37.6234 30.5869H38.1887C38.1887 28.6513 36.8181 27.0121 35.0468 27.0121V27.5773ZM46.2277 29.9507C46.2277 31.6516 45.038 32.9603 43.651 32.9603V33.5255C45.4224 33.5255 46.7929 31.8863 46.7929 29.9507H46.2277ZM43.651 32.9603C42.2641 32.9603 41.0744 31.6516 41.0744 29.9507H40.5091C40.5091 31.8863 41.8797 33.5255 43.651 33.5255V32.9603ZM41.0744 29.9507C41.0744 28.2498 42.2641 26.9411 43.651 26.9411V26.3758C41.8797 26.3758 40.5091 28.0151 40.5091 29.9507H41.0744ZM43.651 26.9411C45.038 26.9411 46.2277 28.2498 46.2277 29.9507H46.7929C46.7929 28.0151 45.4224 26.3758 43.651 26.3758V26.9411ZM38.1887 30.7394C38.1887 30.5325 38.2968 30.3627 38.5122 30.2264C38.7338 30.0861 39.0477 29.999 39.3791 29.9789C39.7108 29.9589 40.0265 30.0081 40.247 30.1074C40.4699 30.2078 40.5354 30.3249 40.5354 30.4288H41.1007C41.1007 30.0085 40.8022 29.7375 40.4791 29.592C40.1537 29.4454 39.7413 29.3907 39.345 29.4147C38.9485 29.4387 38.5343 29.5434 38.2099 29.7487C37.8794 29.958 37.6234 30.2875 37.6234 30.7394H38.1887ZM32.1856 30.5869C32.2703 30.3173 32.2702 30.3173 32.2701 30.3172C32.2701 30.3172 32.2699 30.3172 32.2698 30.3171C32.2695 30.317 32.2691 30.3169 32.2686 30.3167C32.2675 30.3164 32.266 30.3159 32.264 30.3153C32.26 30.314 32.254 30.3122 32.2462 30.3098C32.2306 30.3049 32.2074 30.2978 32.1773 30.2885C32.117 30.27 32.0285 30.2431 31.9154 30.2092C31.689 30.1415 31.3638 30.0461 30.9671 29.9349C30.1742 29.7127 29.0945 29.4273 27.9492 29.1751C26.8054 28.9233 25.589 28.7029 24.5247 28.613C23.9926 28.5681 23.4921 28.5552 23.0542 28.5892C22.6205 28.6229 22.2263 28.704 21.921 28.8621L22.181 29.364C22.3891 29.2562 22.6967 29.1839 23.098 29.1528C23.4951 29.122 23.9629 29.1329 24.4772 29.1763C25.5056 29.2631 26.6945 29.4776 27.8276 29.7272C28.9593 29.9764 30.0282 30.2589 30.8146 30.4792C31.2077 30.5893 31.5297 30.6838 31.7534 30.7507C31.8652 30.7842 31.9523 30.8107 32.0114 30.8289C32.0409 30.8379 32.0635 30.8449 32.0785 30.8496C32.0861 30.8519 32.0917 30.8537 32.0955 30.8549C32.0974 30.8554 32.0988 30.8559 32.0997 30.8562C32.1001 30.8563 32.1005 30.8564 32.1007 30.8565C32.1008 30.8565 32.1008 30.8565 32.1009 30.8566C32.1009 30.8566 32.1009 30.8566 32.1856 30.5869ZM21.9301 28.8576C21.3321 29.1406 20.8447 29.6136 20.5439 30.2028L21.0474 30.4599C21.2914 29.9819 21.6868 29.5981 22.1719 29.3685L21.9301 28.8576ZM20.5439 30.2028C20.2431 30.792 20.1459 31.4643 20.2673 32.1146L20.823 32.0108C20.7244 31.4832 20.8033 30.9379 21.0474 30.4599L20.5439 30.2028Z" fill="#050504"/>
<path d="M29.8045 9.74551C25.8826 10.0228 16.348 11.358 16.6057 15.0517C16.8634 18.7456 28.343 18.3485 30.3929 18.2029C32.4429 18.0574 43.9665 16.9551 43.702 13.1346C43.4764 9.9286 35.5409 9.33987 29.8045 9.74551ZM30.2014 16.5923C24.4447 16.9997 18.2573 16.0171 18.1742 14.8326C18.0911 13.6481 23.9648 11.8799 29.852 11.4624C35.797 11.0361 41.947 11.8321 42.0385 13.15C42.1301 14.4681 35.9563 16.1883 30.2014 16.5957V16.5923Z" fill="#69F0ED"/>
</g>
<path d="M32.0361 64.4084C14.6752 64.4084 0.601396 50.3346 0.601396 32.9736H-0.52913C-0.52913 50.9589 14.0508 65.5389 32.0361 65.5389V64.4084ZM63.4709 32.9736C63.4709 50.3346 49.3971 64.4084 32.0361 64.4084V65.5389C50.0214 65.5389 64.6014 50.9589 64.6014 32.9736H63.4709ZM32.0361 1.5389C49.3971 1.5389 63.4709 15.6127 63.4709 32.9736H64.6014C64.6014 14.9883 50.0214 0.40837 32.0361 0.40837V1.5389ZM32.0361 0.40837C14.0508 0.40837 -0.52913 14.9883 -0.52913 32.9736H0.601396C0.601396 15.6127 14.6752 1.5389 32.0361 1.5389V0.40837Z" fill="#050504"/>
<defs>
<clipPath id="clip0_550:5066">
<path d="M0.0361328 32.9736C0.0361328 15.3005 14.363 0.973633 32.0361 0.973633V0.973633C49.7092 0.973633 64.0361 15.3005 64.0361 32.9736V32.9736C64.0361 50.6467 49.7092 64.9736 32.0361 64.9736V64.9736C14.363 64.9736 0.0361328 50.6467 0.0361328 32.9736V32.9736Z" fill="white"/>
</clipPath>
</defs>
</svg>

