<svg width="24" height="24" viewBox="0 0 24 24" fill="none" xmlns="http://www.w3.org/2000/svg">
<g opacity="0.85">
<circle cx="12" cy="12" r="12" fill="#34008E"/>
<path d="M18.4508 16.4917C18.0996 15.6599 17.5899 14.9043 16.9502 14.267C16.3125 13.6279 15.557 13.1184 14.7255 12.7665C14.7181 12.7628 14.7106 12.7609 14.7032 12.7572C15.863 11.9194 16.617 10.5548 16.617 9.01518C16.617 6.46467 14.5505 4.39819 12 4.39819C9.44949 4.39819 7.38301 6.46467 7.38301 9.01518C7.38301 10.5548 8.13699 11.9194 9.29683 12.759C9.28938 12.7628 9.28193 12.7646 9.27449 12.7683C8.44045 13.1202 7.69205 13.6247 7.04977 14.2689C6.41067 14.9066 5.90111 15.6621 5.54925 16.4936C5.20357 17.3076 5.01714 18.1804 5.00005 19.0646C4.99955 19.0845 5.00303 19.1042 5.0103 19.1227C5.01756 19.1412 5.02845 19.1581 5.04233 19.1723C5.05621 19.1865 5.0728 19.1978 5.09111 19.2056C5.10943 19.2133 5.12911 19.2172 5.14898 19.2172H6.266C6.34791 19.2172 6.41307 19.1521 6.41493 19.072C6.45216 17.6348 7.02929 16.2888 8.04949 15.2686C9.10507 14.213 10.5069 13.6322 12 13.6322C13.4931 13.6322 14.8949 14.213 15.9505 15.2686C16.9707 16.2888 17.5478 17.6348 17.5851 19.072C17.5869 19.1539 17.6521 19.2172 17.734 19.2172H18.851C18.8709 19.2172 18.8906 19.2133 18.9089 19.2056C18.9272 19.1978 18.9438 19.1865 18.9577 19.1723C18.9715 19.1581 18.9824 19.1412 18.9897 19.1227C18.997 19.1042 19.0005 19.0845 19 19.0646C18.9813 18.1747 18.797 17.309 18.4508 16.4917ZM12 12.2173C11.1455 12.2173 10.3412 11.884 9.73619 11.279C9.13114 10.6739 8.79789 9.8697 8.79789 9.01518C8.79789 8.16067 9.13114 7.35642 9.73619 6.75137C10.3412 6.14632 11.1455 5.81308 12 5.81308C12.8545 5.81308 13.6588 6.14632 14.2638 6.75137C14.8689 7.35642 15.2021 8.16067 15.2021 9.01518C15.2021 9.8697 14.8689 10.6739 14.2638 11.279C13.6588 11.884 12.8545 12.2173 12 12.2173Z" fill="white"/>
<path d="M11.9672 7.26204C12.4129 7.22667 13.8877 7.07526 15.2397 6.69967C15.9146 6.51216 16.5686 6.26624 17.0493 5.94493C17.5282 5.62475 17.8621 5.20996 17.8295 4.68352L17.8295 4.6834C17.8019 4.24416 17.5365 3.90518 17.1425 3.65077C16.7502 3.39752 16.2182 3.219 15.6219 3.09755C14.4279 2.85433 12.9391 2.83269 11.6935 2.93116C10.8417 2.99849 9.37776 3.19425 8.13729 3.59941C7.51786 3.80172 6.94468 4.05922 6.53112 4.38574C6.11645 4.71314 5.84739 5.12308 5.87869 5.62464C5.91074 6.13821 6.29287 6.49019 6.80261 6.72918C7.31464 6.96924 7.98786 7.11225 8.67452 7.19593C10.05 7.36356 11.52 7.29754 11.9672 7.26204ZM11.9672 7.26204L11.9574 7.13867L11.9672 7.26204C11.9672 7.26204 11.9672 7.26204 11.9672 7.26204ZM6.89013 5.6246C6.82049 5.56697 6.80461 5.52561 6.80321 5.50339L6.80321 5.50339C6.80173 5.47984 6.81281 5.43557 6.87366 5.36822C6.93311 5.30242 7.02777 5.22867 7.1588 5.14999C7.42008 4.99311 7.80352 4.82984 8.27317 4.67612C9.21103 4.36914 10.4713 4.10708 11.7335 4.00699L11.7336 4.00698C13.0093 3.90473 14.3057 3.9493 15.2852 4.09763C15.7758 4.17193 16.1806 4.27134 16.462 4.38813C16.603 4.44667 16.7066 4.50693 16.7739 4.56569C16.8415 4.62458 16.8618 4.67194 16.864 4.70628C16.8661 4.73997 16.8512 4.79147 16.7882 4.86298C16.7259 4.9337 16.6271 5.0115 16.491 5.0934C16.2195 5.25681 15.8224 5.42303 15.3402 5.57762C14.4122 5.8752 13.1906 6.12302 11.9984 6.22798V6.22695L11.8649 6.23751C10.6315 6.33509 9.35197 6.26605 8.37872 6.10224C7.89137 6.02021 7.48647 5.91533 7.2042 5.79853C7.0626 5.73994 6.95813 5.68086 6.89013 5.6246Z" fill="#69F0ED" stroke="#69F0ED" stroke-width="0.247524"/>
</g>
</svg>
